<svg xmlns="http://www.w3.org/2000/svg" xmlns:xlink="http://www.w3.org/1999/xlink" xmlns:lucid="lucid" width="1200" height="760"><g transform="translate(-140 -60)" lucid:page-tab-id="0_0"><path d="M0 0h1870.4v1323.2H0z" fill="#fff"/><path d="M300 84c0-2.2 1.8-4 4-4h832c2.2 0 4 1.8 4 4v712c0 2.2-1.8 4-4 4H304c-2.2 0-4-1.8-4-4z" stroke="#000" stroke-width="2" fill="#fff"/><use xlink:href="#a" transform="matrix(1,0,0,1,300,80) translate(402.626 367.434)"/><path d="M500 179.8c0-2.2 1.8-4 4-4h442.96c2.2 0 4 1.8 4 4v563.6c0 2.2-1.8 4-4 4H504c-2.2 0-4-1.8-4-4z" stroke="#000" stroke-width="2" fill="#fff"/><path d="M544.27 461v-.05-4.06c0-2.23 1.8-4.02 4.02-4.02h202.86c2.76 0 5 2.24 5 5v63.93c0 2.25-1.8 4.07-4.05 4.07h-4c-.03 0-.05-.02-.05-.04V466c0-2.77-2.24-5-5-5H544.27z" stroke="#000" stroke-width="2" fill="#fff"/><path d="M536.16 466c0-2.77 2.24-5 5-5h201.9c2.75 0 5 2.23 5 5v62.98c0 2.76-2.25 5-5 5h-201.9c-2.76 0-5-2.24-5-5z" stroke="#000" stroke-width="2" fill="#fff"/><use xlink:href="#b" transform="matrix(1,0,0,1,536.1613600774895,460.9864485677083) translate(56.79388888888889 48.69166666666666)"/><path d="M544.27 279.9v-.05-4.06c0-2.23 1.8-4.02 4.02-4.02h202.86c2.76 0 5 2.24 5 5v63.93c0 2.25-1.8 4.07-4.05 4.07h-4c-.03 0-.05-.02-.05-.04V284.9c0-2.77-2.24-5-5-5H544.27z" stroke="#000" stroke-width="2" fill="#fff"/><path d="M536.16 284.9c0-2.77 2.24-5 5-5h201.9c2.75 0 5 2.23 5 5v62.98c0 2.76-2.25 5-5 5h-201.9c-2.76 0-5-2.24-5-5z" stroke="#000" stroke-width="2" fill="#fff"/><use xlink:href="#c" transform="matrix(1,0,0,1,536.1613600774895,279.8864485677084) translate(60.838333333333324 48.69166666666666)"/><path d="M544.16 641.98v-.04-4c0-2.2 1.77-3.96 3.96-3.96h203.04c2.76 0 5 2.24 5 5v63c0 2.2-1.8 4-4 4h-3.96c-.02 0-.04-.02-.04-.04v-58.96c0-2.76-2.24-5-5-5h-199z" stroke="#000" stroke-width="2" fill="#fff"/><path d="M536.16 646.98c0-2.76 2.24-5 5-5h202c2.76 0 5 2.24 5 5v62c0 2.76-2.24 5-5 5h-202c-2.76 0-5-2.24-5-5z" stroke="#000" stroke-width="2" fill="#fff"/><use xlink:href="#d" transform="matrix(1,0,0,1,536.1613600774895,641.9764485677082) translate(51.504999999999995 48.06666666666666)"/><path d="M647.16 433.37h-2V408.8h2zm0-54.02h-2v-24.47h2z"/><path d="M647.16 354.9h-2v-1.02h2zM646.16 448.64l-4.63-14.27h9.27z"/><path d="M646.16 451.88l-6-18.5h12zm-3.26-16.5l3.26 10.02 3.26-10.03z"/><use xlink:href="#e" transform="matrix(1,0,0,1,610.8502489663783,379.3530026069252) translate(0.005000000000002558 23.088888888888885)"/><use xlink:href="#f" transform="matrix(1,0,0,1,610.8502489663783,379.3530026069252) translate(40.09388888888889 23.088888888888885)"/><path d="M647.16 614.47h-2v-24.8h2zm0-54.24h-2v-24.25h2z"/><path d="M647.16 536h-2v-1.02h2zM646.16 629.74l-4.63-14.27h9.27z"/><path d="M646.16 632.98l-6-18.5h12zm-3.26-16.5l3.26 10.02 3.26-10.03z"/><use xlink:href="#e" transform="matrix(1,0,0,1,591.4058045219339,560.2291383647712) translate(0.005000000000002558 23.088888888888885)"/><use xlink:href="#g" transform="matrix(1,0,0,1,591.4058045219339,560.2291383647712) translate(40.09388888888889 23.088888888888885)"/><use xlink:href="#h" transform="matrix(1,0,0,1,591.4058045219339,560.2291383647712) translate(78.98277777777778 23.088888888888885)"/><path d="M760.56 499.7h-2.4v-2h2.4zm8.5-.23l-2.86.24h-2.44v-2h2.36l2.77-.22zm9.38-2.4l-2.13.94-3.37.87-.5-1.93 3.22-.82 1.98-.88zm8.18-5.2l-1.3 1.22-3.37 2.2-1.1-1.66 3.23-2.13 1.18-1.1zm6.2-7.46l-.55 1.04-2.84 3.7-1.58-1.22 2.73-3.57.46-.87zm3.57-9l-.1.63-1.62 4.86-.1.2-1.63-.87-.14-.05.02-.02v-.06l1.53-4.55.07-.46zm.76-6.67l-.08 2.23-.1.72-2-.3.1-.6.08-2.1v-2.55h2zm0-6.05h-2v-5.17h2zm0-8.6h-2v-5.18h2zm0-11.25v2.63h-2v-2.54l-.23-2.78 2-.16zm-1.7-10.1l.87 3.37-1.94.5-.83-3.22-.88-1.98 1.82-.8zm-83.8-2.3l-.22.87-.1 2.13-2-.1.1-2.32.26-1.04zm78.88-6.7l2.22 3.36-1.67 1.1-2.14-3.24-1.1-1.18 1.47-1.36zm-74.78-2.5l-1.08 1.23-2.07 4.04-1.77-.9 2.18-4.27 1.25-1.42zm67.13-4.46l3.7 2.83-1.23 1.6-3.56-2.74-.87-.47.94-1.77zm-59-1.46l-2.2.85-3.14 2.2-1.15-1.64 3.36-2.33 2.42-.93zm49.58-2.56l4.86 1.62.2.1-.86 1.63-.05.13h-.02l-.05-.03-4.54-1.5-.45-.08.3-1.98zm-40 1.14h-2.6l-3.12.38-.24-2 3.25-.38h2.7zm34.93-1.92l.73.1-.3 1.98-.6-.1-2.1-.06h-2.62v-2h2.68zm-8.42 1.92h-5.3v-2h5.3zm-8.84 0h-5.3v-2h5.3zm-8.83 0H737v-2h5.3z"/><path d="M758.2 499.7h-1.04v-2h1.03zM710.33 448.64l-4.64-14.27h9.26z"/><path d="M710.33 451.88l-6-18.5h12zm-3.26-16.5l3.26 10.02 3.26-10.03z"/><use xlink:href="#i" transform="matrix(1,0,0,1,781.753333976699,492.42334213292247) translate(0 23.088888888888885)"/><use xlink:href="#g" transform="matrix(1,0,0,1,781.753333976699,492.42334213292247) translate(16.200000000000003 23.088888888888885)"/><use xlink:href="#j" transform="matrix(1,0,0,1,781.753333976699,492.42334213292247) translate(55.088888888888896 23.088888888888885)"/><use xlink:href="#k" transform="matrix(1,0,0,1,781.753333976699,492.42334213292247) translate(0 52.533333333333324)"/><use xlink:href="#l" transform="matrix(1,0,0,1,781.753333976699,492.42334213292247) translate(16.200000000000003 52.533333333333324)"/><path d="M952.96 315.96h3m3.98 0h6m3.98 0h5.98m4 0h5.97m4 0h5.97m4 0h5.98m4 0h5.97m3.98 0h5.98m4 0h5.98m3.98 0h6m3.98 0h5.98m4 0h5.97m4 0h5.98m4 .02h5.97m4 0h5.97m4 0h5.97m4 0h5.98m4 0h2.98" stroke="#000" stroke-width="2" fill="none"/><path d="M953 314.96v2h-1.04v-2z"/><path d="M1137.76 315.98l-14.26 4.64v-9.27z" stroke="#000" stroke-width="2"/><path d="M952.96 461.56h3m3.98 0h6m3.98 0h5.98m4 0h5.97m4 0h5.97m4 0h5.98m4 0h5.97m3.98 0h5.98m4 0h5.98m3.98 0h6m3.98 0h5.98m4 0h5.97m4 0h5.98m4 0h5.97m4 0h5.97m4 0h5.97m4 0h5.98m4 0h2.98" stroke="#000" stroke-width="2" fill="none"/><path d="M953 462.56h-1.04v-2H953z"/><path d="M1137.76 461.56l-14.26 4.64v-9.27z" stroke="#000" stroke-width="2"/><path d="M952.96 387.74h3m3.98 0h6m3.98 0h5.98m4 0h5.97m4 0h5.97m4 0h5.98m4 0h5.97m3.98 0h5.98m4 0h5.98m3.98 0h6m3.98 0h5.98m4 0h5.97m4 0h5.98m4 0h5.97m4 0h5.97m4 0h5.97m4 0h5.98m4 0h2.98" stroke="#000" stroke-width="2" fill="none"/><path d="M953 386.74v2h-1.04v-2z"/><path d="M1137.76 387.75l-14.26 4.63v-9.27z" stroke="#000" stroke-width="2"/><path d="M952.96 535.85h3m3.98 0h6m3.98 0h5.98m4 0h5.97m4 0h5.97m4 0h5.98m4 0h5.97m3.98 0h5.98m4 0h5.98m3.98 0h6m3.98 0h5.98m4 0h5.97m4 0h5.98m4 0h5.97m4 0h5.97m4 0h5.97m4 0h5.98m4 0h2.98" stroke="#000" stroke-width="2" fill="none"/><path d="M953 536.85h-1.04v-2H953z"/><path d="M1137.76 535.84l-14.26 4.64v-9.27z" stroke="#000" stroke-width="2"/><path d="M320.78 460.98l2.34-1.87m3.12-2.5l4.68-3.73m3.12-2.5l4.68-3.73m3.12-2.5l4.68-3.73m3.12-2.5l4.67-3.73m3.13-2.5l4.68-3.73m3.13-2.5l4.68-3.73m3.13-2.5l4.68-3.73m3.13-2.5l4.68-3.73m3.13-2.5l4.68-3.73m3.13-2.5l4.67-3.73m3.12-2.5l4.68-3.73m3.12-2.5l4.68-3.73m3.12-2.48l4.68-3.74m3.12-2.5l4.68-3.74m3.12-2.5l4.68-3.73m3.12-2.48l4.67-3.74m3.1-2.5l4.7-3.74m3.1-2.5l4.7-3.73m3.1-2.48l4.7-3.74m3.1-2.5l4.7-3.74m3.1-2.5l2.35-1.86M320.8 460.96l-.8.64" stroke="#000" stroke-width="2" fill="none"/><path d="M496.47 320.55l-8.25 12.53-5.8-7.24z" stroke="#000" stroke-width="2"/><path d="M320.77 462.24l2.34 1.93m3.14 2.57l4.68 3.86m3.12 2.57l4.7 3.86m3.1 2.57l4.7 3.86m3.12 2.57l4.68 3.86m3.13 2.57l4.68 3.86m3.12 2.57l4.7 3.86m3.1 2.57l4.7 3.86m3.12 2.56l4.67 3.86m3.12 2.57l4.68 3.85m3.12 2.58l4.68 3.86m3.13 2.56l4.7 3.86m3.1 2.57l4.7 3.85m3.12 2.57l4.7 3.86m3.1 2.58l4.7 3.85m3.12 2.6l4.68 3.85m3.12 2.57l4.7 3.86m3.1 2.57l4.7 3.86m3.12 2.58l4.68 3.86m3.12 2.58l4.7 3.85m3.1 2.58l4.7 3.86m3.12 2.58l2.34 1.93M320.8 462.25l-.8-.65" stroke="#000" stroke-width="2" fill="none"/><path d="M496.5 607.02l-13.96-5.5 5.9-7.15z" stroke="#000" stroke-width="2"/><path d="M321 461.56h3m3.98 0h5.98m4 0h5.97m4 0h5.97m3.98 0h6m3.97 0h5.98m4 0h5.97m4 0l5.97.02m4 0h5.97m4 0h5.97m4 0h5.98m3.98 0h6m3.97 0h5.98m4 0h5.98m4 0h5.97m4 0h5.97m4 .02h2.98M321.03 461.56H320" stroke="#000" stroke-width="2" fill="none"/><path d="M495.76 461.6l-14.26 4.63v-9.27z" stroke="#000" stroke-width="2"/><path d="M320.92 461.98l2.84 1.18m3.8 1.58l5.67 2.36m3.8 1.57l5.67 2.36m3.8 1.58l5.67 2.37m3.8 1.57l5.67 2.36m3.8 1.58l5.67 2.36m3.8 1.57l5.68 2.37m3.8 1.58l5.67 2.36m3.8 1.58l5.67 2.36m3.8 1.58l5.67 2.36m3.78 1.57l5.68 2.36m3.8 1.6l5.67 2.35m3.8 1.57l5.67 2.36m3.8 1.57l5.68 2.37m3.78 1.57l5.7 2.35m3.77 1.57l5.7 2.37m3.77 1.56l5.7 2.36m3.77 1.57l2.84 1.17M320.95 462l-.95-.4" stroke="#000" stroke-width="2" fill="none"/><path d="M496 534.73l-14.94-1.2 3.56-8.55z" stroke="#000" stroke-width="2"/><path d="M1161.74 461.56h61.04M1161.76 461.56h-1.02" stroke="#000" stroke-width="2" fill="none"/><path d="M1238.04 461.56l-14.26 4.63v-9.28z" stroke="#000" stroke-width="2"/><path d="M1161.74 387.75h59.76M1161.76 387.75h-1.02" stroke="#000" stroke-width="2" fill="none"/><path d="M1236.76 387.75l-14.26 4.64v-9.28z" stroke="#000" stroke-width="2"/><path d="M1161.74 532.66h59.76M1161.76 532.66h-1.02" stroke="#000" stroke-width="2" fill="none"/><path d="M1236.76 532.66l-14.26 4.63V528z" stroke="#000" stroke-width="2"/><path d="M1160 200h160v100h-160z" fill="#fff" fill-opacity="0"/><use xlink:href="#m" transform="matrix(1,0,0,1,1160,200) translate(5.01 44.147777777777776)"/><use xlink:href="#n" transform="matrix(1,0,0,1,1160,200) translate(5.01 76.51222222222222)"/><path d="M320.93 461.22l2.84-1.16m3.78-1.56l5.68-2.33m3.8-1.55l5.67-2.33m3.8-1.56l5.67-2.33m3.8-1.55l5.67-2.32m3.78-1.56l5.7-2.33m3.77-1.55l5.67-2.34m3.8-1.55l5.67-2.32m3.8-1.56l5.67-2.33m3.8-1.56l5.68-2.33m3.78-1.54l5.7-2.33m3.77-1.55l5.68-2.33m3.8-1.56l5.68-2.34m3.8-1.55l5.67-2.32m3.8-1.55l5.67-2.33m3.8-1.55l5.67-2.33m3.77-1.56l5.68-2.33m3.8-1.55l2.83-1.16M320.95 461.2l-.95.4" stroke="#000" stroke-width="2" fill="none"/><path d="M496 389.42l-11.43 9.7-3.52-8.57z" stroke="#000" stroke-width="2"/><path d="M1161 606.55h60.5M1161.03 606.55H1160" stroke="#000" stroke-width="2" fill="none"/><path d="M1236.76 606.55l-14.26 4.64v-9.28z" stroke="#000" stroke-width="2"/><path d="M160 421.65h120V520H160z" fill="#fff" fill-opacity="0"/><use xlink:href="#o" transform="matrix(1,0,0,1,160,421.6483032226562) translate(12.973333333333324 32.71666666666667)"/><use xlink:href="#p" transform="matrix(1,0,0,1,160,421.6483032226562) translate(40.33333333333332 68.02333333333334)"/><path d="M952.96 608.78h3m3.98 0h6m3.98 0h5.98m4 0h5.97m4 0h5.97m4 0h5.98m4 0h5.97m3.98 0h5.98m4 0h5.98m3.98 0h6m3.98 0h5.98m4 0h5.97m4 0h5.98m4 0h5.97m4 0h5.97m4 0h5.97m4 0h5.98m4 0h2.98" stroke="#000" stroke-width="2" fill="none"/><path d="M953 609.78h-1.04v-2H953z"/><path d="M1137.76 608.76l-14.26 4.64v-9.27z" stroke="#000" stroke-width="2"/><path d="M300 80h840v80H300z" fill="#fff" fill-opacity="0"/><use xlink:href="#q" transform="matrix(1,0,0,1,300,80) translate(256.17833333333334 50.710277777777776)"/><path d="M500 183.83h450.96v64.1H500z" fill="#fff" fill-opacity="0"/><g><use xlink:href="#r" transform="matrix(1,0,0,1,500,183.8323364257813) translate(149.59277777777777 41.647777777777776)"/></g><path d="M950.96 240H1140v80H950.96z" fill="#fff" fill-opacity="0"/><g><use xlink:href="#s" transform="matrix(1,0,0,1,950.9613600774895,240) translate(23.616111111111117 50.397777777777776)"/></g><path d="M1161 316h59.76M1161.03 316H1160" stroke="#000" stroke-width="2" fill="none"/><path d="M1236.03 316l-14.27 4.64v-9.28z" stroke="#000" stroke-width="2"/><path d="M320 240h160v100H320z" fill="#fff" fill-opacity="0"/><g><use xlink:href="#t" transform="matrix(1,0,0,1,320,240) translate(5.01 44.147777777777776)"/><use xlink:href="#u" transform="matrix(1,0,0,1,320,240) translate(97.87444444444445 44.147777777777776)"/><use xlink:href="#v" transform="matrix(1,0,0,1,320,240) translate(5.01 76.53666666666668)"/></g><defs><path d="M358-53c34 7 63 11 92 24V0H169v-29c30-11 58-19 93-24v-595H109L56-505H31c-8-59-11-130-12-195h581c-1 65-4 135-11 195h-26l-52-143H358v595" id="w"/><path d="M307-50c44 0 103-15 125-36l14 16c-29 50-88 82-165 82C119 12 43-88 41-250c-2-160 74-260 226-262 146-2 212 109 182 262H137c3 118 52 197 170 200zm53-244c9-89-12-177-97-174-96 4-114 65-123 174h220" id="x"/><path d="M217-475c-16 10-29 19-49 25l104 150 102-150c-23-7-39-15-50-24v-26h167v26c-13 9-31 17-56 24L298-268 456-49c19 7 37 13 53 24V0H304v-24c17-9 32-19 50-25L243-213 131-49c19 7 34 15 50 24V0H10v-25c19-11 37-19 56-24l149-199L65-450c-19-7-33-13-49-24v-26h201v25" id="y"/><path d="M218 12C131 12 94-38 95-132v-318H15v-26c25-16 52-27 80-34v-85c25-16 47-38 90-36v131h150v50H185v290c0 70 16 110 76 110 27 0 71-3 91-12l7 15c-33 31-79 59-141 59" id="z"/><g id="a"><use transform="matrix(0.018,0,0,0.018,0,0)" xlink:href="#w"/><use transform="matrix(0.018,0,0,0.018,10.008,0)" xlink:href="#x"/><use transform="matrix(0.018,0,0,0.018,18.738,0)" xlink:href="#y"/><use transform="matrix(0.018,0,0,0.018,28.08,0)" xlink:href="#z"/></g><path d="M454-646c-26-7-50-14-72-25v-29h221v29c-24 11-49 19-76 25L326-380c85 110 179 227 272 331l48 24V0H521l-34-24c-80-94-160-205-231-311h-49v282c31 5 56 13 75 24V0H29v-29c27-11 54-19 82-24v-593c-30-4-57-12-82-25v-29h253v29c-22 10-48 19-75 25v277l60-14" id="A"/><path d="M276 12C114 12 41-89 41-250s78-262 235-262c164 0 234 99 236 262 2 158-86 262-236 262zm-8-480c-100 0-133 95-131 218 2 121 37 218 156 218 94 0 125-98 123-218-2-118-34-218-148-218" id="B"/><path d="M344-512c130 0 167 79 167 210v253c27 5 49 13 66 24V0H362v-25c18-9 38-17 59-24v-237c-2-90-16-164-102-164-75 0-110 52-132 109v292c21 4 41 12 60 24V0H31v-25c17-9 39-17 66-24v-393l-66-8v-26c45-16 95-35 156-36 1 37-1 77 1 112 26-55 77-112 156-112" id="C"/><path d="M402-450c-21-5-39-13-55-24v-26h170v26c-15 11-36 18-57 24L283 0l-45 12L43-450c-19-7-37-15-53-24v-26h209v25c-18 10-35 19-57 25 45 121 95 237 136 363h2c31-131 82-241 122-363" id="D"/><path d="M31-476c47-18 94-35 156-36v106h4c30-56 78-109 163-106 11 25 25 48 23 87H244c-24 16-45 42-57 79v297c31 3 56 11 80 24V0H31v-25c22-12 41-17 66-24v-393l-66-8v-26" id="E"/><g id="b"><use transform="matrix(0.022222222222222223,0,0,0.022222222222222223,0,0)" xlink:href="#A"/><use transform="matrix(0.022222222222222223,0,0,0.022222222222222223,13.28888888888889,0)" xlink:href="#B"/><use transform="matrix(0.022222222222222223,0,0,0.022222222222222223,25.57777777777778,0)" xlink:href="#C"/><use transform="matrix(0.022222222222222223,0,0,0.022222222222222223,38.77777777777778,0)" xlink:href="#D"/><use transform="matrix(0.022222222222222223,0,0,0.022222222222222223,49.644444444444446,0)" xlink:href="#x"/><use transform="matrix(0.022222222222222223,0,0,0.022222222222222223,60.82222222222222,0)" xlink:href="#E"/><use transform="matrix(0.022222222222222223,0,0,0.022222222222222223,69.35555555555555,0)" xlink:href="#z"/><use transform="matrix(0.022222222222222223,0,0,0.022222222222222223,77.6,0)" xlink:href="#B"/><use transform="matrix(0.022222222222222223,0,0,0.022222222222222223,89.88888888888889,0)" xlink:href="#E"/></g><path d="M29-700c214 7 502-64 502 160 0 92-55 145-133 165v4c92 18 164 64 164 172C562-51 439 6 289 6 206 6 117-2 29 0v-29c27-13 54-21 82-24v-593c-28-6-57-15-82-25v-29zM201-54c30 8 49 8 95 8 99 0 170-51 170-148 0-132-128-141-265-136v276zm234-468c8-122-114-146-234-128v268h50c111 7 178-46 184-140" id="F"/><path d="M142-42c84 43 202-40 136-120S56-246 56-387c0-137 194-144 310-102-6 47-12 89-25 131h-25l-38-102c-60-22-139-1-132 64 10 92 120 101 177 151 31 27 62 56 62 110C386 21 171 37 46-17c3-50 13-94 27-134h25" id="G"/><path d="M242 12C22 26 86-252 83-442l-66-8v-26c49-16 94-35 156-36 1 99-7 198-6 296 0 91 13 166 103 166 70 0 103-59 123-117v-275l-65-8v-26c48-16 94-35 155-36v455l66 8v21c-45 17-84 39-145 38l-7-119h-4C373-42 325 7 242 12" id="H"/><path d="M309-50c45 2 80-15 105-34l13 14c-23 46-82 83-153 82C113 10 44-90 41-250c-3-159 81-261 231-262 61 0 114 11 153 31-4 43-16 110-31 142h-27l-42-119c-13-8-21-10-46-10-112 0-142 83-142 217 0 116 56 197 172 201" id="I"/><path d="M504-49c24 6 48 11 66 24V0H354v-25c16-9 36-17 60-24v-234c-2-92-15-167-102-167-74 0-112 51-132 109v292c23 6 42 11 59 24V0H24v-25c21-11 43-19 66-24v-633l-76-8v-26c46-17 105-35 166-36 1 117-1 237 1 353 26-56 76-113 156-113 130 0 167 79 167 210v253" id="J"/><g id="c"><use transform="matrix(0.022222222222222223,0,0,0.022222222222222223,0,0)" xlink:href="#F"/><use transform="matrix(0.022222222222222223,0,0,0.022222222222222223,13.666666666666668,0)" xlink:href="#x"/><use transform="matrix(0.022222222222222223,0,0,0.022222222222222223,24.844444444444452,0)" xlink:href="#G"/><use transform="matrix(0.022222222222222223,0,0,0.022222222222222223,34.46666666666667,0)" xlink:href="#H"/><use transform="matrix(0.022222222222222223,0,0,0.022222222222222223,47.22222222222222,0)" xlink:href="#I"/><use transform="matrix(0.022222222222222223,0,0,0.022222222222222223,57.57777777777778,0)" xlink:href="#J"/><use transform="matrix(0.022222222222222223,0,0,0.022222222222222223,70.62222222222223,0)" xlink:href="#x"/><use transform="matrix(0.022222222222222223,0,0,0.022222222222222223,81.80000000000001,0)" xlink:href="#E"/></g><path d="M370 12C157 12 53-135 53-350s104-362 317-362 317 147 317 362S583 12 370 12zm-8-672c-160 0-202 145-202 310 0 168 55 310 219 310 156 0 201-148 201-310 0-168-54-310-218-310" id="K"/><path d="M187 151c26 4 45 11 66 24v25H31v-25c23-11 45-19 66-24v-593l-66-8v-26c47-18 93-35 156-36 1 37-1 77 1 112 25-62 66-112 150-112 138 0 189 94 187 251-2 163-75 273-234 273-51 0-68-5-104-20v159zm242-412c0-102-23-189-123-189-73 0-104 52-119 116v280c27 16 54 25 99 22 110-7 143-111 143-229" id="L"/><path d="M197-49c26 7 46 13 66 24V0H41v-25c21-11 41-17 66-24v-393l-66-8v-26c46-16 95-35 156-36v463zm-45-563c-37 0-64-22-64-58s27-59 64-59 63 23 63 59-26 58-63 58" id="M"/><path d="M596-450c-71 0-97 57-113 117v284c23 7 45 15 65 24V0H334v-25c16-10 36-19 59-24v-231c-2-88-4-170-91-170-68 0-97 53-115 107v294c22 7 41 13 59 24V0H31v-25c19-10 43-18 66-24v-393l-66-8v-26c47-18 93-35 156-36 1 37-1 77 1 113 20-58 72-113 150-113 87 0 127 45 138 123 22-67 72-123 158-123 124 0 145 87 145 212v251c23 4 45 12 66 24V0H630v-25c20-11 40-19 59-24v-249c0-83-9-153-93-152" id="N"/><g id="d"><use transform="matrix(0.022222222222222223,0,0,0.022222222222222223,0,0)" xlink:href="#K"/><use transform="matrix(0.022222222222222223,0,0,0.022222222222222223,16.444444444444446,0)" xlink:href="#L"/><use transform="matrix(0.022222222222222223,0,0,0.022222222222222223,28.77777777777778,0)" xlink:href="#z"/><use transform="matrix(0.022222222222222223,0,0,0.022222222222222223,37.022222222222226,0)" xlink:href="#M"/><use transform="matrix(0.022222222222222223,0,0,0.022222222222222223,43.711111111111116,0)" xlink:href="#N"/><use transform="matrix(0.022222222222222223,0,0,0.022222222222222223,62.88888888888889,0)" xlink:href="#M"/><use transform="matrix(0.022222222222222223,0,0,0.022222222222222223,69.57777777777778,0)" xlink:href="#x"/><use transform="matrix(0.022222222222222223,0,0,0.022222222222222223,80.75555555555556,0)" xlink:href="#E"/><use transform="matrix(0.022222222222222223,0,0,0.022222222222222223,89.28888888888889,0)" xlink:href="#x"/><use transform="matrix(0.022222222222222223,0,0,0.022222222222222223,100.46666666666667,0)" xlink:href="#E"/></g><path d="M209-367c35-81 104-175 212-133-3 40-18 78-37 102l-79-41c-52 27-100 87-116 160L129 0H43l93-442-61-9v-25c38-19 91-31 138-36l20 12-28 133h4" id="O"/><path d="M139-97c-3 47 47 58 82 34 69-48 114-130 148-212l44-225h83L414-55h74v25c-30 29-147 65-158-2 2-55 10-106 27-164h-4c-46 89-92 208-217 208-50 0-87-39-83-94 8-122 44-247 66-360l-61-9v-25c42-15 88-31 138-36l22 12c-27 137-68 250-79 403" id="P"/><path d="M236-710c46-39 153-56 223-26-4 35-15 68-39 86l-76-62c-92 16-98 118-120 212h111c3 17 0 33-10 50H214L150-43C129 88 64 173-43 212l-9-22C13 149 50 71 64-24l65-426H56v-26c24-14 56-26 85-33 14-87 43-157 95-201" id="Q"/><path d="M148 12C63 19 46-54 63-136l66-314H53l1-26c25-14 56-27 87-34l16-76c19-15 46-26 71-36l21 12-24 110h124c3 21-1 37-10 50H215c-23 118-71 225-71 350 0 82 113 42 154 19l11 18c-35 40-91 70-161 75" id="R"/><g id="e"><use transform="matrix(0.022222222222222223,0,0,0.022222222222222223,0,0)" xlink:href="#O"/><use transform="matrix(0.022222222222222223,0,0,0.022222222222222223,8.555555555555555,0)" xlink:href="#P"/><use transform="matrix(0.022222222222222223,0,0,0.022222222222222223,20.6,0)" xlink:href="#Q"/><use transform="matrix(0.022222222222222223,0,0,0.022222222222222223,27.2,0)" xlink:href="#R"/></g><path d="M133-156c0 57 6 103 56 106 98-26 135-145 178-227l32-171c-39-29-109-20-147 10-71 57-119 159-119 282zM323-33c3-54 15-102 28-163h-4C319-121 279-44 213-7 121 44 38-6 43-139c6-159 68-278 171-339 53-32 142-44 199-13 27-14 55-21 84-21L407-55h73v25c-30 30-147 65-157-3" id="S"/><g id="f"><use transform="matrix(0.022222222222222223,0,0,0.022222222222222223,0,0)" xlink:href="#S"/><use transform="matrix(0.022222222222222223,0,0,0.022222222222222223,11.88888888888889,0)" xlink:href="#P"/><use transform="matrix(0.022222222222222223,0,0,0.022222222222222223,23.933333333333334,0)" xlink:href="#Q"/></g><path d="M69-333c0-118 91-174 211-179 56-3 98 16 126 38 32-26 81-41 125-55 12 24 6 67-8 84l-103-7c4 13 9 28 9 46-8 134-117 198-262 181-18 15-69 60-18 79 81 31 202 33 256 93 34 37 24 106-5 145-54 75-156 120-281 120-96 0-174-29-174-117C-55 0 30-36 95-76c-18-9-34-27-34-52 0-50 50-80 81-105-41-14-73-46-73-100zm47 266C67-32 37 8 35 73c-2 66 59 99 130 96 91-4 164-41 172-131-14-89-146-75-221-105zm227-322c0-48-22-85-71-83-80 3-118 56-122 137-2 47 37 74 77 74 78 0 116-52 116-128" id="T"/><path d="M97 8C58 8 29-19 29-57c0-39 29-66 68-66 40 0 69 26 69 66 0 39-29 65-69 65" id="U"/><g id="g"><use transform="matrix(0.022222222222222223,0,0,0.022222222222222223,0,0)" xlink:href="#T"/><use transform="matrix(0.022222222222222223,0,0,0.022222222222222223,11.422222222222222,0)" xlink:href="#T"/><use transform="matrix(0.022222222222222223,0,0,0.022222222222222223,22.28888888888889,0)" xlink:href="#Q"/><use transform="matrix(0.022222222222222223,0,0,0.022222222222222223,28.355555555555558,0)" xlink:href="#U"/></g><g id="h"><use transform="matrix(0.022222222222222223,0,0,0.022222222222222223,0,0)" xlink:href="#S"/><use transform="matrix(0.022222222222222223,0,0,0.022222222222222223,11.88888888888889,0)" xlink:href="#P"/><use transform="matrix(0.022222222222222223,0,0,0.022222222222222223,23.933333333333334,0)" xlink:href="#Q"/></g><path d="M250-50c56-2 93-33 126-58l16 19C360-31 301 11 212 12 102 14 38-57 40-167c2-152 64-262 164-318 80-44 233-40 231 70 0 47-24 85-71 112s-122 45-227 53C113-150 148-46 250-50zm99-361c0-35-19-59-62-58-29 1-55 15-80 41s-46 71-63 135c105-4 205-29 205-118" id="V"/><path d="M471-30C441-4 381 21 335-5c-64-57-92-158-132-233l-36-10L120 0H34l136-682-70-9v-25c35-16 100-34 147-36l21 11-94 467c41 5 50-15 72-32 39-30 77-70 105-109 3-25 1-61-1-85 43-16 95-19 132 0-41 93-132 158-207 216 34 79 82 165 133 228h63v26" id="W"/><path d="M138-31c78 4 148-61 104-129-47-72-160-88-160-207 0-105 81-145 187-145 44 0 89 6 120 26-4 40-20 76-46 94l-74-77c-56 3-99 19-99 78 0 82 87 99 130 147 23 26 45 56 45 105C345 12 129 43 7-18c9-40 13-71 41-96" id="X"/><path d="M212-30C181 0 54 37 54-37c0-31 5-53 11-81l70-323-64-10v-25c41-16 90-33 143-36l18 12-94 444h74v26zm-3-590c-34 0-58-20-58-53 0-34 24-56 58-56 36-1 60 21 60 56 0 34-25 53-60 53" id="Y"/><path d="M15-475c31-18 93-54 135-26 6 7 11 16 13 27 18 129 38 256 53 388 49-99 109-187 145-295-3-39-10-86-18-119 35-15 81-18 113 0C405-305 305-144 200 0l-47 12-74-454-64-8v-25" id="Z"/><g id="j"><use transform="matrix(0.022222222222222223,0,0,0.022222222222222223,0,0)" xlink:href="#O"/><use transform="matrix(0.022222222222222223,0,0,0.022222222222222223,8.555555555555555,0)" xlink:href="#V"/><use transform="matrix(0.022222222222222223,0,0,0.022222222222222223,18.644444444444446,0)" xlink:href="#W"/><use transform="matrix(0.022222222222222223,0,0,0.022222222222222223,29.333333333333336,0)" xlink:href="#P"/><use transform="matrix(0.022222222222222223,0,0,0.022222222222222223,41.37777777777778,0)" xlink:href="#O"/><use transform="matrix(0.022222222222222223,0,0,0.022222222222222223,49.93333333333334,0)" xlink:href="#X"/><use transform="matrix(0.022222222222222223,0,0,0.022222222222222223,59.22222222222222,0)" xlink:href="#Y"/><use transform="matrix(0.022222222222222223,0,0,0.022222222222222223,65.37777777777778,0)" xlink:href="#Z"/><use transform="matrix(0.022222222222222223,0,0,0.022222222222222223,75.06666666666668,0)" xlink:href="#V"/></g><path d="M176 0H-49l6-29c26-11 52-19 78-24l395-659h26L569-53c24 6 51 12 70 24l-5 29H380l5-29c30-11 59-19 88-24l-30-183H208L101-53c29 4 55 12 80 24zm61-288h198c-12-99-36-185-34-298h-2c-45 109-107 199-162 298" id="aa"/><g id="l"><use transform="matrix(0.022222222222222223,0,0,0.022222222222222223,0,0)" xlink:href="#aa"/><use transform="matrix(0.022222222222222223,0,0,0.022222222222222223,14.977777777777778,0)" xlink:href="#P"/><use transform="matrix(0.022222222222222223,0,0,0.022222222222222223,27.022222222222222,0)" xlink:href="#Q"/><use transform="matrix(0.022222222222222223,0,0,0.022222222222222223,33.62222222222222,0)" xlink:href="#O"/><use transform="matrix(0.022222222222222223,0,0,0.022222222222222223,42.17777777777778,0)" xlink:href="#P"/><use transform="matrix(0.022222222222222223,0,0,0.022222222222222223,54.22222222222222,0)" xlink:href="#Q"/><use transform="matrix(0.022222222222222223,0,0,0.022222222222222223,60.82222222222222,0)" xlink:href="#V"/></g><path d="M416-38c23-11 55-24 83-29l-58-159H219L160-67c31 4 60 14 87 29V0H0v-38c20-12 46-23 71-29l258-645h74L654-67c27 5 56 16 75 29V0H416v-38zM243-291h177c-29-91-66-175-84-277h-2c-21 102-59 186-91 277" id="ab"/><path d="M232 12C20 23 78-245 77-429l-66-8v-39c61-19 132-35 210-36 1 97-8 194-6 290 2 91 2 154 78 154 57 0 83-44 101-99v-262l-65-8v-39c59-20 131-35 209-36v441l66 8v35C547-8 482 11 405 10l-7-119h-4C373-39 321 7 232 12" id="ac"/><path d="M161-56c48 28 134 3 127-53-12-91-127-97-184-149-32-29-65-62-65-122 3-157 243-150 364-100-5 44-26 98-39 135h-34l-42-102c-48-20-123-5-115 49 14 88 127 96 185 146 32 27 64 60 64 116C422 36 155 36 29-26c2-51 29-104 49-139h34" id="ad"/><path d="M34-353c0-112 106-159 230-159 75 0 136 16 173 47 31-34 67-58 108-71 19 16 34 44 37 75l-13 24H464c15 20 31 52 30 90-7 134-137 172-284 159-15 19-21 47 11 58 92 32 222 40 282 106 31 34 31 98 6 139-65 105-315 126-437 58-33-18-56-46-56-89C16-3 92-22 163-42c-38-12-76-26-79-71 7-47 50-64 87-82-77-17-137-68-137-158zm246 508c81 0 142-65 94-123-34-40-109-43-166-62-30 24-48 42-48 88 0 66 50 97 120 97zm-16-610c-70 0-86 36-86 107 0 69 16 106 86 106 67 0 86-39 86-106 0-69-18-107-86-107" id="ae"/><path d="M475-353c0 99-10 184-2 280l69 10v35C488-8 424 11 349 10c-14-32-13-57-15-102h-5C310-30 262 12 182 12 91 12 27-36 27-127c0-153 154-149 304-162 6-96 9-166-72-166-21 0-40 3-57 10l-47 120h-44c-22-35-40-80-47-131 50-35 139-56 225-56 119 0 186 44 186 159zM177-148c0 47 23 80 68 80 50 0 75-34 86-74v-100c-86 2-154 7-154 94" id="af"/><path d="M272 9C198 8 118-4 67-29v-640l-76-8v-39c62-20 139-35 220-36 1 115-3 235 2 346 24-61 77-106 158-106 132 0 186 99 186 246C557-82 457 11 272 9zm130-268c0-90-14-173-96-173-57 0-81 49-95 97v265c19 14 48 24 81 22 96-7 110-92 110-211" id="ag"/><path d="M343-68c44 0 100-16 124-36l19 20c-34 61-105 96-200 96C119 12 37-84 31-250c-7-201 154-303 349-248 96 27 138 121 113 257H186c1 102 53 174 157 173zm7-225c13-100-12-185-106-155-44 26-49 86-55 155h161" id="ah"/><g id="m"><use transform="matrix(0.024444444444444446,0,0,0.024444444444444446,0,0)" xlink:href="#ab"/><use transform="matrix(0.024444444444444446,0,0,0.024444444444444446,17.82,0)" xlink:href="#ac"/><use transform="matrix(0.024444444444444446,0,0,0.024444444444444446,33.02444444444444,0)" xlink:href="#ad"/><use transform="matrix(0.024444444444444446,0,0,0.024444444444444446,44.07333333333333,0)" xlink:href="#ae"/><use transform="matrix(0.024444444444444446,0,0,0.024444444444444446,57.86000000000001,0)" xlink:href="#af"/><use transform="matrix(0.024444444444444446,0,0,0.024444444444444446,71.47555555555556,0)" xlink:href="#ag"/><use transform="matrix(0.024444444444444446,0,0,0.024444444444444446,85.8488888888889,0)" xlink:href="#ah"/></g><path d="M145-243c1 202 77 332 179 433l-24 20C167 112 59-14 59-243c0-232 117-351 244-459l21 18C223-577 144-452 145-243" id="ai"/><path d="M205 105c22-29 32-63 45-105L42-450c-21-6-36-14-53-24v-26h209v25c-14 9-33 18-57 25 48 120 107 229 147 358h2c30-126 74-238 110-358-20-4-38-12-55-24v-26h171v26c-14 9-33 17-57 24-67 182-120 386-201 554-29 60-65 97-136 111-14-24-26-57-34-86l13-24h104" id="aj"/><path d="M58-35c4-61 13-127 25-181h26l41 147c21 19 43 30 88 29 88-3 153-41 153-127 0-131-166-134-245-203-44-38-87-82-85-163 3-122 85-176 208-179 71-2 146 12 191 33-2 60-13 121-24 172h-26l-40-137c-25-11-66-16-104-16-67-1-119 41-113 108 11 132 164 141 245 209 44 37 88 78 86 156C480-49 385 9 242 12 172 14 94-8 58-35" id="ak"/><path d="M40-702c130 101 244 220 244 449 0 231-106 364-241 463l-24-20C122 88 196-50 197-253c1-206-77-326-178-431" id="al"/><g id="n"><use transform="matrix(0.024444444444444446,0,0,0.024444444444444446,0,0)" xlink:href="#ai"/><use transform="matrix(0.024444444444444446,0,0,0.024444444444444446,8.384444444444444,0)" xlink:href="#w"/><use transform="matrix(0.024444444444444446,0,0,0.024444444444444446,23.515555555555558,0)" xlink:href="#aj"/><use transform="matrix(0.024444444444444446,0,0,0.024444444444444446,35.86,0)" xlink:href="#L"/><use transform="matrix(0.024444444444444446,0,0,0.024444444444444446,49.69555555555556,0)" xlink:href="#x"/><use transform="matrix(0.024444444444444446,0,0,0.024444444444444446,61.99111111111112,0)" xlink:href="#ak"/><use transform="matrix(0.024444444444444446,0,0,0.024444444444444446,75.09333333333333,0)" xlink:href="#I"/><use transform="matrix(0.024444444444444446,0,0,0.024444444444444446,86.48444444444445,0)" xlink:href="#E"/><use transform="matrix(0.024444444444444446,0,0,0.024444444444444446,95.87111111111112,0)" xlink:href="#M"/><use transform="matrix(0.024444444444444446,0,0,0.024444444444444446,103.22888888888889,0)" xlink:href="#L"/><use transform="matrix(0.024444444444444446,0,0,0.024444444444444446,116.79555555555557,0)" xlink:href="#z"/><use transform="matrix(0.024444444444444446,0,0,0.024444444444444446,125.86444444444444,0)" xlink:href="#al"/></g><path d="M102-633c-27-6-61-16-82-29v-38h526c-3 61-10 129-20 183h-41l-46-118H252v245h122l44-77h32c7 65 7 155 0 221h-32l-44-79H252v260h195l53-127h41c12 56 20 124 20 192H20v-38c23-12 52-24 82-29v-566" id="am"/><path d="M241-63c26 7 46 13 66 24V0H31v-39c21-11 41-17 66-24v-366l-66-8v-39c59-20 132-35 210-36v449zm-75-527c-48 0-86-28-86-74 0-47 38-75 86-75s86 28 86 75c0 46-38 74-86 74" id="an"/><path d="M399-512c128 0 168 80 167 210v239c27 5 49 13 66 24V0H367v-39c19-10 33-16 55-24v-235c-2-74-13-134-82-134-58 0-91 43-107 91v278c23 6 37 12 55 24V0H23v-39c17-9 39-17 66-24v-366l-66-8v-39c58-21 131-36 210-36 1 34-1 71 1 103 27-53 84-103 165-103" id="ao"/><g id="o"><use transform="matrix(0.02666666666666667,0,0,0.02666666666666667,0,0)" xlink:href="#am"/><use transform="matrix(0.02666666666666667,0,0,0.02666666666666667,16.10666666666667,0)" xlink:href="#an"/><use transform="matrix(0.02666666666666667,0,0,0.02666666666666667,24.96,0)" xlink:href="#ao"/><use transform="matrix(0.02666666666666667,0,0,0.02666666666666667,42.13333333333334,0)" xlink:href="#ae"/><use transform="matrix(0.02666666666666667,0,0,0.02666666666666667,57.17333333333334,0)" xlink:href="#af"/><use transform="matrix(0.02666666666666667,0,0,0.02666666666666667,72.02666666666667,0)" xlink:href="#ag"/><use transform="matrix(0.02666666666666667,0,0,0.02666666666666667,87.70666666666668,0)" xlink:href="#ah"/></g><path d="M434-437c5 63 5 139 0 202h-23l-41-77H197v259c29 4 58 12 86 24V0H29v-29c22-10 46-18 72-24v-593c-27-6-51-15-72-25v-29h469c-2 55-5 110-11 162h-26l-41-110H197v285h173l41-74h23" id="ap"/><path d="M31-716c44-18 106-35 166-36v703c22 5 44 13 66 24V0H41v-25c22-11 44-19 66-24v-633l-76-8v-26" id="aq"/><path d="M623-450c-20-4-39-13-55-24v-26h170v26c-14 9-33 17-57 24L539 0l-53 12c-39-122-90-232-118-366h-3C333-231 290-118 252 0l-52 12L43-450c-19-7-37-13-53-24v-26h208v25c-18 10-36 19-57 25 33 122 78 232 100 364h2l15-74 108-330 30-10c44 139 97 268 133 414h2c25-127 62-242 92-364" id="ar"/><g id="p"><use transform="matrix(0.02666666666666667,0,0,0.02666666666666667,0,0)" xlink:href="#ai"/><use transform="matrix(0.02666666666666667,0,0,0.02666666666666667,9.146666666666667,0)" xlink:href="#ap"/><use transform="matrix(0.02666666666666667,0,0,0.02666666666666667,23.653333333333336,0)" xlink:href="#aq"/><use transform="matrix(0.02666666666666667,0,0,0.02666666666666667,31.680000000000003,0)" xlink:href="#B"/><use transform="matrix(0.02666666666666667,0,0,0.02666666666666667,46.10666666666667,0)" xlink:href="#ar"/><use transform="matrix(0.02666666666666667,0,0,0.02666666666666667,65.52000000000001,0)" xlink:href="#al"/></g><path d="M472-633c-25-5-54-18-73-29v-38h268v38c-19 13-53 24-79 29L398-392c80 111 174 226 264 329l48 29V0H536l-40-28c-72-91-140-197-201-300h-43v261c28 5 52 16 71 29V0H20v-38c24-12 53-23 82-29v-566c-30-4-61-16-82-29v-38h303v38c-19 11-45 23-71 29v254l59-14" id="as"/><path d="M297 12C125 12 31-80 31-250c0-169 97-262 266-262 174 0 266 90 266 262 0 170-97 262-266 262zm-8-463c-96 0-103 98-103 201 0 109 17 201 125 201 90 0 97-101 97-201 0-107-15-201-119-201" id="at"/><path d="M538-63c22 6 39 14 56 24V0H344v-39c15-9 31-18 50-24v-199c-3-82 7-170-71-170-50 0-78 44-90 89v280c18 5 35 13 50 24V0H23v-39c19-10 43-18 66-24v-366l-66-8v-39c59-21 132-35 210-36 1 37-1 77 1 113 20-58 76-113 154-113 88 0 131 44 143 123 21-67 77-123 162-123 208 0 141 259 153 449 23 4 45 12 66 24V0H652v-39c15-10 32-18 50-24v-217c-4-88 0-152-77-152-56 0-74 48-87 99v270" id="au"/><path d="M585-28C529-7 460 9 385 10l-9-109h-4C353-37 310 12 233 12 88 12 29-85 31-242c2-167 84-263 249-267 40-1 67 5 95 16v-176l-76-8v-39c64-18 141-33 220-36v681l66 8v35zM186-247c0 90 15 179 95 179 59 0 82-38 94-97v-269c-20-12-46-20-81-18-94 5-108 95-108 205" id="av"/><path d="M453-185c13 49 28 123 25 185H32v-39l285-404H151l-44 118H73c-12-48-25-119-25-175h430v39L192-57h173l54-128h34" id="aw"/><path d="M21-716c60-22 139-35 220-36v689c22 5 44 13 66 24V0H31v-39c22-11 44-19 66-24v-606l-76-8v-39" id="ax"/><path d="M231 137c26 4 45 11 66 24v39H21v-39c23-11 45-19 66-24v-566l-66-8v-39c59-21 132-35 210-36 1 37-1 77 1 112 24-62 67-114 155-112 143 3 191 104 191 251 0 169-85 273-252 273-47 0-64-5-95-20v145zm192-398c0-93-11-171-94-171-56 0-87 42-98 98v266c23 16 42 23 81 23 95 0 111-101 111-216" id="ay"/><path d="M23-476c59-21 132-35 210-36v133h4c29-64 72-128 158-133 19 30 36 75 32 127H290c-25 14-44 31-57 66v256c31 3 56 11 80 24V0H23v-39c22-12 41-17 66-24v-366l-66-8v-39" id="az"/><g id="q"><use transform="matrix(0.024444444444444446,0,0,0.024444444444444446,0,0)" xlink:href="#as"/><use transform="matrix(0.024444444444444446,0,0,0.024444444444444446,16.28,0)" xlink:href="#at"/><use transform="matrix(0.024444444444444446,0,0,0.024444444444444446,30.8,0)" xlink:href="#au"/><use transform="matrix(0.024444444444444446,0,0,0.024444444444444446,53.38666666666667,0)" xlink:href="#au"/><use transform="matrix(0.024444444444444446,0,0,0.024444444444444446,75.97333333333334,0)" xlink:href="#af"/><use transform="matrix(0.024444444444444446,0,0,0.024444444444444446,89.5888888888889,0)" xlink:href="#ao"/><use transform="matrix(0.024444444444444446,0,0,0.024444444444444446,105.33111111111111,0)" xlink:href="#av"/><use transform="matrix(0.024444444444444446,0,0,0.024444444444444446,119.97333333333336,0)" xlink:href="#at"/><use transform="matrix(0.024444444444444446,0,0,0.024444444444444446,134.1266666666667,0)" xlink:href="#aw"/><use transform="matrix(0.024444444444444446,0,0,0.024444444444444446,146.37333333333336,0)" xlink:href="#ah"/><use transform="matrix(0.024444444444444446,0,0,0.024444444444444446,159.50000000000003,0)" xlink:href="#an"/><use transform="matrix(0.024444444444444446,0,0,0.024444444444444446,167.61555555555557,0)" xlink:href="#ax"/><use transform="matrix(0.024444444444444446,0,0,0.024444444444444446,175.73111111111112,0)" xlink:href="#ah"/><use transform="matrix(0.024444444444444446,0,0,0.024444444444444446,188.85777777777778,0)" xlink:href="#ao"/><use transform="matrix(0.024444444444444446,0,0,0.024444444444444446,204.60000000000002,0)" xlink:href="#ay"/><use transform="matrix(0.024444444444444446,0,0,0.024444444444444446,219.48666666666662,0)" xlink:href="#az"/><use transform="matrix(0.024444444444444446,0,0,0.024444444444444446,230.02222222222218,0)" xlink:href="#at"/><use transform="matrix(0.024444444444444446,0,0,0.024444444444444446,244.54222222222222,0)" xlink:href="#ae"/><use transform="matrix(0.024444444444444446,0,0,0.024444444444444446,258.3288888888889,0)" xlink:href="#az"/><use transform="matrix(0.024444444444444446,0,0,0.024444444444444446,268.8644444444445,0)" xlink:href="#af"/><use transform="matrix(0.024444444444444446,0,0,0.024444444444444446,282.48,0)" xlink:href="#au"/><use transform="matrix(0.024444444444444446,0,0,0.024444444444444446,305.06666666666666,0)" xlink:href="#au"/></g><path d="M181-700c176-10 403-27 400 160-2 97-67 144-151 163v4c101 14 182 61 182 174C612 16 363 16 139 0H20v-38c22-13 52-26 82-29v-566c-28-6-60-16-82-29v-38h161zm65 634c110 29 211-18 211-130 0-116-91-133-211-127v257zm185-453c6-105-83-136-185-118v249c115 13 179-36 185-131" id="aA"/><path d="M66-327h282v90H66v-90" id="aB"/><path d="M613-492c0 185-164 242-361 225v200c35 5 74 16 101 29V0H20v-38c23-14 53-23 82-29v-566c-30-5-60-16-82-29v-38c107 3 211-8 312-8 159 0 281 56 281 216zm-165 5c0-119-81-175-196-150v304c121 21 196-38 196-154" id="aC"/><g id="r"><use transform="matrix(0.024444444444444446,0,0,0.024444444444444446,0,0)" xlink:href="#aA"/><use transform="matrix(0.024444444444444446,0,0,0.024444444444444446,15.864444444444445,0)" xlink:href="#af"/><use transform="matrix(0.024444444444444446,0,0,0.024444444444444446,29.48,0)" xlink:href="#ag"/><use transform="matrix(0.024444444444444446,0,0,0.024444444444444446,43.85333333333334,0)" xlink:href="#ah"/><use transform="matrix(0.024444444444444446,0,0,0.024444444444444446,56.980000000000004,0)" xlink:href="#ax"/><use transform="matrix(0.024444444444444446,0,0,0.024444444444444446,65.09555555555556,0)" xlink:href="#aB"/><use transform="matrix(0.024444444444444446,0,0,0.024444444444444446,75.21555555555557,0)" xlink:href="#aC"/><use transform="matrix(0.024444444444444446,0,0,0.024444444444444446,90.86000000000001,0)" xlink:href="#ax"/><use transform="matrix(0.024444444444444446,0,0,0.024444444444444446,98.97555555555557,0)" xlink:href="#ac"/><use transform="matrix(0.024444444444444446,0,0,0.024444444444444446,114.18000000000004,0)" xlink:href="#ae"/><use transform="matrix(0.024444444444444446,0,0,0.024444444444444446,127.96666666666667,0)" xlink:href="#an"/><use transform="matrix(0.024444444444444446,0,0,0.024444444444444446,136.08222222222224,0)" xlink:href="#ao"/></g><path d="M478-437c-7 63-25 147-42 202h-25l-22-77H213L159-53c28 4 55 12 80 24l-5 29H-20l5-29C8-39 36-47 63-53l125-593c-24-7-48-15-67-25l7-29h469c-13 55-27 111-46 162h-26l-17-110H284l-60 285h175l54-74h25" id="aD"/><path d="M209 12C98 10 38-65 41-186c3-136 62-241 152-295 34-21 74-31 119-31 111 1 159 73 157 190-2 144-60 251-154 306-32 18-67 28-106 28zm157-238c17-94 27-243-74-243-136 0-150 164-161 305-8 99 86 175 159 106 39-38 63-100 76-168" id="aE"/><path d="M727-30c-30 29-155 68-155-8 0-122 79-232 79-355 0-32-6-57-39-57-93 21-130 118-168 194L383 0h-80c25-113 54-224 75-340 7-40 18-111-31-110-86 25-128 119-165 195L129 0H43l93-442-61-9v-25c35-19 91-35 138-36l21 12-44 177h4c30-67 81-133 143-170 21-13 43-19 64-19 85-1 70 124 51 189 32-69 82-134 146-172s146-10 139 73c-12 137-57 244-84 366h74v26" id="aF"/><path d="M490-30c-29 28-146 66-155-2 15-128 58-233 69-363 5-61-60-67-99-33-50 43-95 112-125 173L127 0H43l88-442-61-9 2-25c38-18 83-34 136-36l20 12-38 177h5c36-72 84-138 153-175 68-36 149-2 142 79-12 134-50 242-74 363h74v26" id="aG"/><g id="s"><use transform="matrix(0.024444444444444446,0,0,0.024444444444444446,0,0)" xlink:href="#aD"/><use transform="matrix(0.024444444444444446,0,0,0.024444444444444446,13.07777777777778,0)" xlink:href="#aE"/><use transform="matrix(0.024444444444444446,0,0,0.024444444444444446,25.52,0)" xlink:href="#O"/><use transform="matrix(0.024444444444444446,0,0,0.024444444444444446,34.931111111111115,0)" xlink:href="#aF"/><use transform="matrix(0.024444444444444446,0,0,0.024444444444444446,54.48666666666667,0)" xlink:href="#S"/><use transform="matrix(0.024444444444444446,0,0,0.024444444444444446,67.56444444444445,0)" xlink:href="#R"/><use transform="matrix(0.024444444444444446,0,0,0.024444444444444446,75.80222222222223,0)" xlink:href="#Y"/><use transform="matrix(0.024444444444444446,0,0,0.024444444444444446,82.57333333333334,0)" xlink:href="#V"/><use transform="matrix(0.024444444444444446,0,0,0.024444444444444446,93.67111111111112,0)" xlink:href="#O"/><use transform="matrix(0.024444444444444446,0,0,0.024444444444444446,103.08222222222223,0)" xlink:href="#P"/><use transform="matrix(0.024444444444444446,0,0,0.024444444444444446,116.33111111111111,0)" xlink:href="#aG"/><use transform="matrix(0.024444444444444446,0,0,0.024444444444444446,129.82444444444445,0)" xlink:href="#T"/></g><path d="M198-646c-28-7-52-15-77-25l7-29h473c-11 56-26 112-45 162h-26l-17-110H294l-55 265h162l55-74h25c-11 70-25 137-43 202h-25l-23-76H227L169-52h229l75-120h25c-3 58-12 120-25 172H-20l5-29c27-11 57-19 88-24" id="aH"/><path d="M206-30C174 1 46 36 46-37c0-31 5-53 11-81l117-564-71-9v-25c42-16 92-33 148-36l20 11L133-56h73v26" id="aI"/><g id="t"><use transform="matrix(0.024444444444444446,0,0,0.024444444444444446,0,0)" xlink:href="#aH"/><use transform="matrix(0.024444444444444446,0,0,0.024444444444444446,13.982222222222223,0)" xlink:href="#Y"/><use transform="matrix(0.024444444444444446,0,0,0.024444444444444446,20.753333333333334,0)" xlink:href="#aG"/><use transform="matrix(0.024444444444444446,0,0,0.024444444444444446,34.24666666666667,0)" xlink:href="#aI"/><use transform="matrix(0.024444444444444446,0,0,0.024444444444444446,41.01777777777778,0)" xlink:href="#V"/><use transform="matrix(0.024444444444444446,0,0,0.024444444444444446,52.11555555555556,0)" xlink:href="#X"/><use transform="matrix(0.024444444444444446,0,0,0.024444444444444446,62.333333333333336,0)" xlink:href="#V"/><use transform="matrix(0.024444444444444446,0,0,0.024444444444444446,73.43111111111111,0)" xlink:href="#aG"/></g><path d="M434-684C292-553 147-396 147-129c0 141 31 234 102 319l-29 20C123 126 61 39 61-117c0-300 174-462 356-585" id="aJ"/><path d="M22-35c15-62 40-127 63-181h26l10 147c16 13 59 29 92 29 97 0 175-31 175-127 0-123-125-140-193-203-35-33-68-70-68-137 0-210 263-241 436-172-16 58-38 120-60 172h-26l-12-137c-98-34-252-19-245 101 8 120 127 135 193 199 36 35 68 77 68 148C481 6 229 49 51-18c-13-6-22-12-29-17" id="aK"/><path d="M320-53c32 7 60 11 86 24l-5 29H120l5-29c32-12 61-18 99-24l126-595H197l-83 143H88c6-66 17-136 30-195h580c-14 65-32 135-52 195h-26l-21-143H446" id="aL"/><g id="u"><use transform="matrix(0.024444444444444446,0,0,0.024444444444444446,0,0)" xlink:href="#aJ"/><use transform="matrix(0.024444444444444446,0,0,0.024444444444444446,8.384444444444444,0)" xlink:href="#aa"/><use transform="matrix(0.024444444444444446,0,0,0.024444444444444446,24.86,0)" xlink:href="#aK"/><use transform="matrix(0.024444444444444446,0,0,0.024444444444444446,37.742222222222225,0)" xlink:href="#aL"/></g><path d="M112-101c80 15 157 40 219 74l58-66 24 14c-19 42-23 96-53 127-50 28-100-15-142-31C170-1 115-30 55-38L14 6C-3 3-24-7-24-27 97-158 216-291 336-423c-71 4-141-5-206-15l-46 72-25-6c16-55-7-144 68-141 80 3 171 24 268 26l23-25c17 3 36 14 38 32" id="aM"/><path d="M130-702c97 90 161 174 161 333C291-76 124 92-60 210l-20-20C66 61 201-110 207-379c3-140-42-223-103-305" id="aN"/><g id="v"><use transform="matrix(0.024444444444444446,0,0,0.024444444444444446,0,0)" xlink:href="#V"/><use transform="matrix(0.024444444444444446,0,0,0.024444444444444446,11.097777777777779,0)" xlink:href="#O"/><use transform="matrix(0.024444444444444446,0,0,0.024444444444444446,20.50888888888889,0)" xlink:href="#aM"/><use transform="matrix(0.024444444444444446,0,0,0.024444444444444446,31.166666666666668,0)" xlink:href="#V"/><use transform="matrix(0.024444444444444446,0,0,0.024444444444444446,42.26444444444445,0)" xlink:href="#P"/><use transform="matrix(0.024444444444444446,0,0,0.024444444444444446,55.513333333333335,0)" xlink:href="#T"/><use transform="matrix(0.024444444444444446,0,0,0.024444444444444446,67.46666666666667,0)" xlink:href="#V"/><use transform="matrix(0.024444444444444446,0,0,0.024444444444444446,78.56444444444445,0)" xlink:href="#aG"/><use transform="matrix(0.024444444444444446,0,0,0.024444444444444446,92.05777777777779,0)" xlink:href="#aN"/></g></defs></g></svg>