<svg xmlns="http://www.w3.org/2000/svg" xmlns:xlink="http://www.w3.org/1999/xlink" xmlns:lucid="lucid" width="768" height="929.69"><g transform="translate(0 0)" lucid:page-tab-id="0_0"><path d="M0 0h1870.4v1323.2H0z" fill="#fff"/><path d="M274.25 40c0 11.05-8.95 20-20 20s-20-8.95-20-20 8.95-20 20-20 20 8.95 20 20z" stroke="#000" stroke-width="2"/><path d="M748 40c0 11.05-8.95 20-20 20s-20-8.95-20-20 8.95-20 20-20 20 8.95 20 20z" stroke="#000" stroke-width="2" fill="#fff"/><path d="M740 40c0 6.63-5.37 12-12 12s-12-5.37-12-12 5.37-12 12-12 12 5.37 12 12z" stroke="#000" stroke-width="2"/><path d="M254.25 62v28.5" stroke="#000" stroke-width="2" fill="none"/><path d="M254.2 61l1.05-.03v1.06h-2v-1.15z"/><path d="M254.25 105.76L249.6 91.5h9.3z" stroke="#000" stroke-width="2"/><path d="M284.25 25c0-2.76 2.24-5 5-5h70c2.76 0 5 2.24 5 5v30c0 2.76-2.24 5-5 5h-70c-2.76 0-5-2.24-5-5z" stroke="#000" stroke-opacity="0" stroke-width="2" fill="#fff" fill-opacity="0"/><use xlink:href="#a" transform="matrix(1,0,0,1,284.25,20) translate(5.01 26.39311111111111)"/><path d="M156.25 110c-6.63 0-12 5.37-12 12v36c0 6.63 5.37 12 12 12h196c6.63 0 12-5.37 12-12v-36c0-6.63-5.37-12-12-12z" stroke="#000" stroke-width="2" fill="#fff"/><use xlink:href="#b" transform="matrix(1,0,0,1,152.25000000000006,118.00000000000003) translate(32.356888888888875 27.932444444444446)"/><use xlink:href="#c" transform="matrix(1,0,0,1,152.25000000000006,118.00000000000003) translate(81.82022222222221 27.932444444444446)"/><path d="M156.25 210c-6.63 0-12 5.37-12 12v36c0 6.63 5.37 12 12 12h196c6.63 0 12-5.37 12-12v-36c0-6.63-5.37-12-12-12z" stroke="#000" stroke-width="2" fill="#fff"/><use xlink:href="#d" transform="matrix(1,0,0,1,152.25000000000006,218.00000000000006) translate(37.19277777777778 27.932444444444446)"/><use xlink:href="#e" transform="matrix(1,0,0,1,152.25000000000006,218.00000000000006) translate(107.26188888888889 27.932444444444446)"/><path d="M254.25 172v18.5" stroke="#000" stroke-width="2" fill="none"/><path d="M255.25 172.03h-2V171h2z"/><path d="M254.25 205.76l-4.64-14.26h9.3z" stroke="#000" stroke-width="2"/><path d="M156.25 450c-6.63 0-12 5.37-12 12v36c0 6.63 5.37 12 12 12h196c6.63 0 12-5.37 12-12v-36c0-6.63-5.37-12-12-12z" stroke="#000" stroke-width="2" fill="#fff"/><use xlink:href="#f" transform="matrix(1,0,0,1,152.25000000000006,458) translate(34.960222222222214 17.487555555555556)"/><use xlink:href="#g" transform="matrix(1,0,0,1,152.25000000000006,458) translate(42.17066666666666 38.37733333333334)"/><use xlink:href="#h" transform="matrix(1,0,0,1,152.25000000000006,458) translate(66.51577777777777 38.37733333333334)"/><use xlink:href="#i" transform="matrix(1,0,0,1,152.25000000000006,458) translate(101.87377777777778 38.37733333333334)"/><path d="M156.25 596.8c-6.63 0-12 5.36-12 12v36c0 6.62 5.37 12 12 12h196c6.63 0 12-5.38 12-12v-36c0-6.64-5.37-12-12-12z" stroke="#000" stroke-width="2" fill="#fff"/><use xlink:href="#j" transform="matrix(1,0,0,1,152.25000000000006,604.7908177915539) translate(16.102222222222224 17.551111111111112)"/><use xlink:href="#k" transform="matrix(1,0,0,1,152.25000000000006,604.7908177915539) translate(99.49555555555555 17.551111111111112)"/><use xlink:href="#l" transform="matrix(1,0,0,1,152.25000000000006,604.7908177915539) translate(22.324444444444424 38.14666666666667)"/><use xlink:href="#m" transform="matrix(1,0,0,1,152.25000000000006,604.7908177915539) translate(64.32444444444442 38.14666666666667)"/><use xlink:href="#n" transform="matrix(1,0,0,1,152.25000000000006,604.7908177915539) translate(101.57999999999998 38.14666666666667)"/><path d="M254.25 512v65.3" stroke="#000" stroke-width="2" fill="none"/><path d="M255.25 512.03h-2V511h2z"/><path d="M254.25 592.55l-4.64-14.26h9.3z" stroke="#000" stroke-width="2"/><path d="M156.63 849.7c-6.63 0-12 5.36-12 12v36c0 6.62 5.37 12 12 12h196c6.62 0 12-5.38 12-12v-36c0-6.64-5.38-12-12-12z" stroke="#000" stroke-width="2" fill="#fff"/><use xlink:href="#d" transform="matrix(1,0,0,1,152.62500000000006,857.6883057216721) translate(37.25588888888889 27.932444444444446)"/><use xlink:href="#o" transform="matrix(1,0,0,1,152.62500000000006,857.6883057216721) translate(107.325 27.932444444444446)"/><path d="M490 849.7c-6.63 0-12 5.36-12 12v36c0 6.62 5.37 12 12 12h196c6.63 0 12-5.38 12-12v-36c0-6.64-5.37-12-12-12z" stroke="#000" stroke-width="2" fill="#fff"/><use xlink:href="#d" transform="matrix(1,0,0,1,486,857.6883057216721) translate(34.26599999999999 27.932444444444446)"/><use xlink:href="#p" transform="matrix(1,0,0,1,486,857.6883057216721) translate(104.3351111111111 27.932444444444446)"/><path d="M724.46 223.54c1.96-1.96 5.12-1.96 7.08 0l12.92 12.92c1.96 1.96 1.96 5.12 0 7.08l-12.92 12.92c-1.96 1.96-5.12 1.96-7.08 0l-12.92-12.92c-1.96-1.96-1.96-5.12 0-7.08z" stroke="#000" stroke-width="2" fill="#fff"/><path d="M700 879.7h23c2.76 0 5-2.25 5-5V277.34" stroke="#000" stroke-width="2" fill="none"/><path d="M700.03 880.7H699v-2h1.03z"/><path d="M728 262.1l4.64 14.25h-9.28z" stroke="#000" stroke-width="2"/><path d="M432.8 241h-49.05v-2h49.06zm275.35 0h-66.57v-2h66.57z"/><path d="M709.08 239.4l.2 1.6h-1.16v-2h1.1zM382.75 244.64L368.5 240l14.25-4.64z"/><path d="M383.75 246l-18.5-6 18.5-6zm-12.03-6l10.03 3.26v-6.52z"/><use xlink:href="#q" transform="matrix(1,0,0,1,432.81343377827875,229.55511111111116) translate(0 16.377333333333336)"/><use xlink:href="#r" transform="matrix(1,0,0,1,432.81343377827875,229.55511111111116) translate(55.600888888888896 16.377333333333336)"/><use xlink:href="#s" transform="matrix(1,0,0,1,432.81343377827875,229.55511111111116) translate(133.60622222222224 16.377333333333336)"/><path d="M729 220.15h-2V79.5h2z"/><path d="M729 221.2l-.4-.12-1.6.2v-1.16h2zM732.64 78.5h-9.28L728 64.24z"/><path d="M734 79.5h-12l6-18.5zm-9.26-2h6.52L728 67.47z"/><use xlink:href="#t" transform="matrix(1,0,0,1,542.216,130.62174563219014) translate(0 16.39311111111111)"/><use xlink:href="#u" transform="matrix(1,0,0,1,542.216,130.62174563219014) translate(38.63977777777779 16.39311111111111)"/><use xlink:href="#v" transform="matrix(1,0,0,1,542.216,130.62174563219014) translate(103.61266666666668 16.39311111111111)"/><path d="M618 25c0-2.76 2.24-5 5-5h70c2.76 0 5 2.24 5 5v30c0 2.76-2.24 5-5 5h-70c-2.76 0-5-2.24-5-5z" stroke="#000" stroke-opacity="0" stroke-width="2" fill="#fff" fill-opacity="0"/><use xlink:href="#w" transform="matrix(1,0,0,1,618,20) translate(33.99355555555555 26.39311111111111)"/><path d="M250.7 313.54c1.97-1.96 5.13-1.96 7.1 0l12.9 12.92c1.97 1.96 1.97 5.12 0 7.08l-12.9 12.92c-1.97 1.96-5.13 1.96-7.1 0l-12.9-12.92c-1.97-1.96-1.97-5.12 0-7.08z" stroke="#000" stroke-width="2" fill="#fff"/><path d="M254.25 272v20.65" stroke="#000" stroke-width="2" fill="none"/><path d="M255.25 272.03h-2V271h2z"/><path d="M254.25 307.9l-4.64-14.25h9.3z" stroke="#000" stroke-width="2"/><path d="M347.82 331H274.1v-2h73.72zM729 325.08l-.3 1.9-2.13 2.9-3.4 1.12h-98.54v-2h98.2l2.5-.82 1.47-2 .2-1.26v-47.57h2z"/><path d="M274.13 331h-1.1l.14-.4-.2-1.6h1.16zM732.64 276.35h-9.28L728 262.1z"/><path d="M734 277.35h-12l6-18.5zm-9.26-2h6.52L728 265.32z"/><use xlink:href="#x" transform="matrix(1,0,0,1,347.8215374254948,319.5472222222222) translate(0 16.39311111111111)"/><use xlink:href="#y" transform="matrix(1,0,0,1,347.8215374254948,319.5472222222222) translate(31.47666666666667 16.39311111111111)"/><use xlink:href="#z" transform="matrix(1,0,0,1,347.8215374254948,319.5472222222222) translate(99.44733333333333 16.39311111111111)"/><use xlink:href="#A" transform="matrix(1,0,0,1,347.8215374254948,319.5472222222222) translate(123.79244444444444 16.39311111111111)"/><use xlink:href="#s" transform="matrix(1,0,0,1,347.8215374254948,319.5472222222222) translate(201.64000000000001 16.39311111111111)"/><path d="M255.25 430.5h-2v-30.08h2zm0-50.97h-2v-29.68h2z"/><path d="M255.25 349.88h-2v-1.1l.4.14 1.6-.2zM254.25 445.76l-4.64-14.26h9.3z"/><path d="M254.25 449l-6-18.5h12zM251 432.5l3.25 10.03 3.26-10.03z"/><use xlink:href="#B" transform="matrix(1,0,0,1,141.46255555555558,379.53147576376625) translate(0 16.377333333333336)"/><use xlink:href="#z" transform="matrix(1,0,0,1,141.46255555555558,379.53147576376625) translate(67.97066666666666 16.377333333333336)"/><use xlink:href="#C" transform="matrix(1,0,0,1,141.46255555555558,379.53147576376625) translate(92.31577777777777 16.377333333333336)"/><use xlink:href="#s" transform="matrix(1,0,0,1,141.46255555555558,379.53147576376625) translate(150.40955555555556 16.377333333333336)"/><path d="M36.46 463.54c1.96-1.96 5.12-1.96 7.08 0l12.92 12.92c1.96 1.96 1.96 5.12 0 7.08l-12.92 12.92c-1.96 1.96-5.12 1.96-7.08 0l-12.92-12.92c-1.96-1.96-1.96-5.12 0-7.08z" stroke="#000" stroke-width="2" fill="#fff"/><path d="M41 460.15h-2V364.5h2zM124.75 241H45.08l-1.26.2-2 1.46-.82 2.5v98.43h-2v-98.76l1.1-3.4 2.92-2.13 1.9-.3h79.83z"/><path d="M41 461.2l-.4-.12-1.6.2v-1.16h2zM140 240l-14.25 4.64v-9.28z"/><path d="M143.25 240l-18.5 6v-12zm-16.5 3.26l10.03-3.26-10.03-3.26z"/><use xlink:href="#D" transform="matrix(1,0,0,1,47.99999999999999,281.1340048000535) translate(0 16.39311111111111)"/><use xlink:href="#E" transform="matrix(1,0,0,1,47.99999999999999,281.1340048000535) translate(64.29444444444445 16.39311111111111)"/><use xlink:href="#F" transform="matrix(1,0,0,1,33.08144444444444,343.5908992337735) translate(0 16.39311111111111)"/><path d="M366.25 626.8h4.13l2.8-.24m3.72-.57l3.3-.85 2.05-.9m3.36-1.7l3.3-2.17 1.25-1.16m2.7-2.6l2.8-3.64.5-.95m1.76-3.33l.07-.12 1.56-4.7.1-.55m.57-3.72l.1-.66.07-2.15v-4.2m0-5.57v-4.18l-.23-2.8m-.57-3.72l-.84-3.3-.9-2.05m-1.7-3.37l-2.17-3.28-1.15-1.25m-2.6-2.7l-3.64-2.78-.95-.5m-3.3-1.78l-.14-.06-4.7-1.57-.55-.1m-3.7-.57l-.67-.1-2.15-.08h-3.22m-4.28 0h-6.43m-4.28 0h-6.43m-4.28 0h-3.2l-2.87.3m-3.76.72l-3.1 1-2.17 1.2m-3.2 2.1l-2.77 2.42-1.25 1.64m-2.16 3.14l-1.77 3.7-.4 1.6m-.82 3.74l-.2 2.87" stroke="#000" stroke-width="2" fill="none"/><path d="M366.28 627.8h-1.03v-2h1.03z"/><path d="M313.8 592.55l-4.63-14.26h9.28z" stroke="#000" stroke-width="2"/><use xlink:href="#G" transform="matrix(1,0,0,1,408.375,571.5935808323686) translate(0 16.39311111111111)"/><use xlink:href="#H" transform="matrix(1,0,0,1,408.375,571.5935808323686) translate(7.668000000000001 16.39311111111111)"/><use xlink:href="#I" transform="matrix(1,0,0,1,408.375,571.5935808323686) translate(35.27911111111111 16.39311111111111)"/><use xlink:href="#J" transform="matrix(1,0,0,1,408.375,571.5935808323686) translate(99.57355555555557 16.39311111111111)"/><path d="M20 515c0-2.76 2.24-5 5-5h93.13c2.76 0 5 2.24 5 5v41.56c0 2.76-2.24 5-5 5H25c-2.76 0-5-2.24-5-5z" stroke="#000" stroke-opacity="0" stroke-width="2" fill="#fff" fill-opacity="0"/><use xlink:href="#K" transform="matrix(1,0,0,1,20,510) translate(7.01 21.387333333333338)"/><use xlink:href="#L" transform="matrix(1,0,0,1,20,510) translate(8.01 42.27711111111111)"/><path d="M366.63 879.7h91.87" stroke="#000" stroke-width="2" fill="none"/><path d="M366.65 880.7h-1.02v-2h1.02z"/><path d="M473.76 879.7l-14.26 4.62v-9.27z" stroke="#000" stroke-width="2"/><path d="M254.25 658.8v23.27c0 .1.08.2.2.2.1 0 .18.07.18.18v5.78" stroke="#000" stroke-width="2" fill="none"/><path d="M255.25 658.82h-2v-1.03h2z"/><path d="M254.63 703.5L250 689.22h9.26z" stroke="#000" stroke-width="2"/><path d="M255.63 830.2h-2v-39h2zm0-59.9h-2v-24.87h2z"/><path d="M255.63 745.46h-2v-1.1l.4.14 1.6-.18zM254.63 845.45L250 831.2h9.26z"/><path d="M254.63 848.7l-6.02-18.5h12.04zm-3.26-16.5l3.25 10.02 3.26-10.03z"/><g><use xlink:href="#M" transform="matrix(1,0,0,1,235.81788888888894,770.3091823300642) translate(0 16.377333333333336)"/></g><path d="M251.1 709.12c1.94-1.96 5.1-1.96 7.06 0l12.93 12.93c1.94 1.95 1.94 5.1 0 7.07l-12.94 12.93c-1.95 1.95-5.12 1.95-7.07 0l-12.94-12.93c-1.95-1.96-1.95-5.12 0-7.07zM490 695.58c-6.63 0-12 5.37-12 12v36c0 6.63 5.37 12 12 12h196c6.63 0 12-5.37 12-12v-36c0-6.63-5.37-12-12-12z" stroke="#000" stroke-width="2" fill="#fff"/><g><use xlink:href="#N" transform="matrix(1,0,0,1,486,703.5816355831078) translate(50.169999999999995 17.487555555555556)"/><use xlink:href="#O" transform="matrix(1,0,0,1,486,703.5816355831078) translate(39.77244444444444 38.37733333333334)"/><use xlink:href="#i" transform="matrix(1,0,0,1,486,703.5816355831078) translate(104.27199999999999 38.37733333333334)"/></g><path d="M587.98 757.58l-.04 2.06-.18 2.77-.26 2.52-.34 2.3-.4 2.13-.47 1.98-.52 1.84-.56 1.72-.6 1.62-.65 1.53-.7 1.46-.7 1.4-.78 1.33-.83 1.3-.85 1.22-.9 1.2-.97 1.15-1.02 1.13-1.07 1.1-1.15 1.08-1.22 1.07-1.3 1.04-1.43 1.04-1.52 1-1.66 1-1.8 1-2 1-2.2.97-2.45.98-2.77.97-3.16.95-3.65.93-4.3.9-5.2.9-6.48.8-8.63.7-13.1.54-73.04.6-10.33.84-8.03 1.02-6.6 1.1-5.6 1.2-4.84 1.24-4.27 1.3-3.8 1.3-3.44 1.37-3.13 1.4-2.85 1.4-2.63 1.45-2.45 1.47-2.27 1.5-2.13 1.55-2 1.6-1.87 1.6-1.78 1.68-1.7 1.72-1.6 1.8-.6.73" stroke="#000" stroke-width="2" fill="none"/><path d="M588.98 757.63l-2-.04.02-1.02h2z"/><path d="M359.4 847.06l3.34-14.62 7.95 4.76z" stroke="#000" stroke-width="2"/><path d="M308.7 726.58h-34.22v-2h34.22zm149.8 0h-41.1v-2h41.1z"/><path d="M274.5 726.58h-1.08l.13-.4-.2-1.6h1.15zM473.76 725.58l-14.26 4.64v-9.27z"/><path d="M477 725.58l-18.5 6v-12zm-16.5 3.26l10.03-3.26-10.03-3.26z"/><g><use xlink:href="#P" transform="matrix(1,0,0,1,308.6986626850724,715.1367466942189) translate(0 16.377333333333336)"/><use xlink:href="#s" transform="matrix(1,0,0,1,308.6986626850724,715.1367466942189) translate(33.527777777777786 16.377333333333336)"/></g><path d="M142.25 480h-64.9" stroke="#000" stroke-width="2" fill="none"/><path d="M143.25 481h-1.03v-2h1.03z"/><path d="M62.1 480l14.25-4.64v9.28z" stroke="#000" stroke-width="2"/><defs><path d="M42-35c5-68 18-137 33-195h41l41 147c61 61 222 26 212-78-9-91-96-111-160-149-77-45-160-92-160-211 0-136 98-191 235-191 81 0 152 11 208 35-3 63-14 130-27 183h-41l-46-137c-68-32-194-19-184 70 14 126 164 136 241 206 42 38 85 80 84 158C517-51 412 13 253 12 172 10 93-4 42-35" id="Q"/><path d="M408-67c34 7 70 15 97 29V0H161v-38c27-10 64-24 97-29v-568H142L78-464H37c-12-69-20-156-22-236h637c-2 80-10 166-22 236h-42l-64-171H408v568" id="R"/><path d="M416-38c23-11 55-24 83-29l-58-159H219L160-67c31 4 60 14 87 29V0H0v-38c20-12 46-23 71-29l258-645h74L654-67c27 5 56 16 75 29V0H416v-38zM243-291h177c-29-91-66-175-84-277h-2c-21 102-59 186-91 277" id="S"/><path d="M590-508c2 102-55 158-131 187 55 86 115 177 180 255l48 32V0H520c-95-62-139-193-187-303h-81v236c30 6 52 18 76 29V0H20v-38c26-15 51-22 82-29v-566c-33-7-61-17-82-29v-38c111 3 212-8 318-8 145 0 249 56 252 200zm-156 5c0-108-76-158-182-134v279h59c76-2 123-59 123-145" id="T"/><g id="a"><use transform="matrix(0.01577777777777778,0,0,0.01577777777777778,0,0)" xlink:href="#Q"/><use transform="matrix(0.01577777777777778,0,0,0.01577777777777778,8.804,0)" xlink:href="#R"/><use transform="matrix(0.01577777777777778,0,0,0.01577777777777778,17.90777777777778,0)" xlink:href="#S"/><use transform="matrix(0.01577777777777778,0,0,0.01577777777777778,29.409777777777784,0)" xlink:href="#T"/><use transform="matrix(0.01577777777777778,0,0,0.01577777777777778,39.46022222222223,0)" xlink:href="#R"/></g><path d="M557-492c0 181-161 237-350 218v221c36 4 68 13 96 24V0H29v-29c24-13 53-18 82-24v-593c-31-5-56-14-82-25v-29c93 3 179-8 267-8 153 0 261 61 261 216zm-107 0c0-134-109-182-243-159v324c139 23 243-29 243-165" id="U"/><path d="M31-716c44-18 106-35 166-36v703c22 5 44 13 66 24V0H41v-25c22-11 44-19 66-24v-633l-76-8v-26" id="V"/><path d="M242 12C22 26 86-252 83-442l-66-8v-26c49-16 94-35 156-36 1 99-7 198-6 296 0 91 13 166 103 166 70 0 103-59 123-117v-275l-65-8v-26c48-16 94-35 155-36v455l66 8v21c-45 17-84 39-145 38l-7-119h-4C373-42 325 7 242 12" id="W"/><path d="M48-351c0-111 82-161 199-161 69 0 117 12 153 43 39-27 80-46 123-58 15 20 21 63 2 81H420c17 24 25 56 25 95 1 125-117 180-256 158-16 20-31 59 5 75C298-72 485-85 485 58c0 118-112 151-235 154-119 3-220-35-220-130C30-3 93-25 158-48c-26-12-51-34-51-70 0-34 38-67 59-81-68-16-118-74-118-152zm220 519c72-1 127-18 127-87 0-97-134-90-213-120-41 25-62 49-62 101 0 79 62 107 148 106zm-21-636c-80 0-109 40-109 117 0 74 34 117 109 118s108-49 108-118c0-74-31-117-108-117" id="X"/><path d="M197-49c26 7 46 13 66 24V0H41v-25c21-11 41-17 66-24v-393l-66-8v-26c46-16 95-35 156-36v463zm-45-563c-37 0-64-22-64-58s27-59 64-59 63 23 63 59-26 58-63 58" id="Y"/><path d="M344-512c130 0 167 79 167 210v253c27 5 49 13 66 24V0H362v-25c18-9 38-17 59-24v-237c-2-90-16-164-102-164-75 0-110 52-132 109v292c21 4 41 12 60 24V0H31v-25c17-9 39-17 66-24v-393l-66-8v-26c45-16 95-35 156-36 1 37-1 77 1 112 26-55 77-112 156-112" id="Z"/><g id="b"><use transform="matrix(0.01577777777777778,0,0,0.01577777777777778,0,0)" xlink:href="#U"/><use transform="matrix(0.01577777777777778,0,0,0.01577777777777778,9.403555555555556,0)" xlink:href="#V"/><use transform="matrix(0.01577777777777778,0,0,0.01577777777777778,14.152666666666669,0)" xlink:href="#W"/><use transform="matrix(0.01577777777777778,0,0,0.01577777777777778,23.209111111111113,0)" xlink:href="#X"/><use transform="matrix(0.01577777777777778,0,0,0.01577777777777778,31.508222222222223,0)" xlink:href="#Y"/><use transform="matrix(0.01577777777777778,0,0,0.01577777777777778,36.257333333333335,0)" xlink:href="#Z"/></g><path d="M218 12C131 12 94-38 95-132v-318H15v-26c25-16 52-27 80-34v-85c25-16 47-38 90-36v131h150v50H185v290c0 70 16 110 76 110 27 0 71-3 91-12l7 15c-33 31-79 59-141 59" id="aa"/><path d="M415-353c0 100-10 198-2 294l69 10v21c-39 18-83 39-139 38-14-31-13-67-15-111h-5C306-35 258 4 177 12 35 25-13-191 112-244c57-24 129-30 212-36 11-104 1-206-116-186-12 1-24 3-35 8l-47 120h-26c-12-37-24-81-27-125 50-30 110-49 188-49 108 0 154 55 154 159zM135-140c-1 55 30 91 82 90 61-1 91-43 108-87v-105c-102 2-189 4-190 102" id="ab"/><path d="M142-42c84 43 202-40 136-120S56-246 56-387c0-137 194-144 310-102-6 47-12 89-25 131h-25l-38-102c-60-22-139-1-132 64 10 92 120 101 177 151 31 27 62 56 62 110C386 21 171 37 46-17c3-50 13-94 27-134h25" id="ac"/><path d="M307-50c44 0 103-15 125-36l14 16c-29 50-88 82-165 82C119 12 43-88 41-250c-2-160 74-260 226-262 146-2 212 109 182 262H137c3 118 52 197 170 200zm53-244c9-89-12-177-97-174-96 4-114 65-123 174h220" id="ad"/><path d="M31-476c47-18 94-35 156-36v106h4c30-56 78-109 163-106 11 25 25 48 23 87H244c-24 16-45 42-57 79v297c31 3 56 11 80 24V0H31v-25c22-12 41-17 66-24v-393l-66-8v-26" id="ae"/><g id="c"><use transform="matrix(0.01577777777777778,0,0,0.01577777777777778,0,0)" xlink:href="#Y"/><use transform="matrix(0.01577777777777778,0,0,0.01577777777777778,4.7491111111111115,0)" xlink:href="#Z"/><use transform="matrix(0.01577777777777778,0,0,0.01577777777777778,14.121111111111112,0)" xlink:href="#Y"/><use transform="matrix(0.01577777777777778,0,0,0.01577777777777778,18.870222222222225,0)" xlink:href="#aa"/><use transform="matrix(0.01577777777777778,0,0,0.01577777777777778,24.72377777777778,0)" xlink:href="#Y"/><use transform="matrix(0.01577777777777778,0,0,0.01577777777777778,29.472888888888892,0)" xlink:href="#ab"/><use transform="matrix(0.01577777777777778,0,0,0.01577777777777778,37.44066666666667,0)" xlink:href="#V"/><use transform="matrix(0.01577777777777778,0,0,0.01577777777777778,42.189777777777785,0)" xlink:href="#Y"/><use transform="matrix(0.01577777777777778,0,0,0.01577777777777778,46.9388888888889,0)" xlink:href="#ac"/><use transform="matrix(0.01577777777777778,0,0,0.01577777777777778,53.77066666666668,0)" xlink:href="#Y"/><use transform="matrix(0.01577777777777778,0,0,0.01577777777777778,58.51977777777779,0)" xlink:href="#ad"/><use transform="matrix(0.01577777777777778,0,0,0.01577777777777778,66.45600000000002,0)" xlink:href="#ae"/><use transform="matrix(0.01577777777777778,0,0,0.01577777777777778,72.51466666666668,0)" xlink:href="#ad"/><use transform="matrix(0.01577777777777778,0,0,0.01577777777777778,80.45088888888891,0)" xlink:href="#Z"/></g><path d="M427-29c25-10 54-18 82-24l-68-183H202L136-53c28 4 57 12 86 24V0H0v-29c24-11 48-19 72-24l253-659h29L607-53c28 6 55 11 76 24V0H427v-29zM222-288h202c-33-99-79-185-98-298h-2c-27 106-67 199-102 298" id="af"/><path d="M58-35c4-61 13-127 25-181h26l41 147c21 19 43 30 88 29 88-3 153-41 153-127 0-131-166-134-245-203-44-38-87-82-85-163 3-122 85-176 208-179 71-2 146 12 191 33-2 60-13 121-24 172h-26l-40-137c-25-11-66-16-104-16-67-1-119 41-113 108 11 132 164 141 245 209 44 37 88 78 86 156C480-49 385 9 242 12 172 14 94-8 58-35" id="ag"/><path d="M358-53c34 7 63 11 92 24V0H169v-29c30-11 58-19 93-24v-595H109L56-505H31c-8-59-11-130-12-195h581c-1 65-4 135-11 195h-26l-52-143H358v595" id="ah"/><path d="M71-313h282v63H71v-63" id="ai"/><path d="M107-509c-10-159 49-246 199-243 32 1 67 5 92 13-4 42-11 80-22 113h-25l-44-86c-116-8-111 98-110 212h115v50H197v401c35 4 67 12 96 24V0H41v-25c21-12 43-20 66-24v-401H31v-26c23-15 49-26 76-33" id="aj"/><path d="M532-28c-43 19-86 39-146 38l-9-109h-4C355-37 314 12 238 12 91 12 43-86 41-247c-2-159 81-261 231-262 50 0 68 3 104 16v-189l-76-8v-26c46-17 105-35 166-36v695l66 8v21zM137-247c2 101 24 197 121 197 72 0 104-52 118-115v-282c-27-15-55-18-99-18-103 0-142 104-140 218" id="ak"/><g id="d"><use transform="matrix(0.01577777777777778,0,0,0.01577777777777778,0,0)" xlink:href="#af"/><use transform="matrix(0.01577777777777778,0,0,0.01577777777777778,10.776222222222223,0)" xlink:href="#ag"/><use transform="matrix(0.01577777777777778,0,0,0.01577777777777778,19.233111111111114,0)" xlink:href="#ah"/><use transform="matrix(0.01577777777777778,0,0,0.01577777777777778,28.00555555555556,0)" xlink:href="#ai"/><use transform="matrix(0.01577777777777778,0,0,0.01577777777777778,34.711111111111116,0)" xlink:href="#U"/><use transform="matrix(0.01577777777777778,0,0,0.01577777777777778,44.11466666666667,0)" xlink:href="#aj"/><use transform="matrix(0.01577777777777778,0,0,0.01577777777777778,49.51066666666667,0)" xlink:href="#ab"/><use transform="matrix(0.01577777777777778,0,0,0.01577777777777778,57.47844444444445,0)" xlink:href="#ak"/></g><path d="M246 9C181 8 119-5 77-29v-653l-76-8v-26c47-17 105-33 166-36 1 116-3 238 2 351 18-60 74-111 147-111 138 0 188 100 188 253C504-87 415 10 246 9zm162-268c-2-99-23-191-119-191-71 0-105 57-122 115v279c24 13 61 22 99 21 105-4 144-101 142-224" id="al"/><g id="e"><use transform="matrix(0.01577777777777778,0,0,0.01577777777777778,0,0)" xlink:href="#al"/><use transform="matrix(0.01577777777777778,0,0,0.01577777777777778,8.59888888888889,0)" xlink:href="#ad"/><use transform="matrix(0.01577777777777778,0,0,0.01577777777777778,16.535111111111114,0)" xlink:href="#aa"/><use transform="matrix(0.01577777777777778,0,0,0.01577777777777778,22.38866666666667,0)" xlink:href="#ae"/><use transform="matrix(0.01577777777777778,0,0,0.01577777777777778,28.447333333333336,0)" xlink:href="#ad"/><use transform="matrix(0.01577777777777778,0,0,0.01577777777777778,36.38355555555556,0)" xlink:href="#aa"/><use transform="matrix(0.01577777777777778,0,0,0.01577777777777778,42.23711111111112,0)" xlink:href="#ad"/><use transform="matrix(0.01577777777777778,0,0,0.01577777777777778,50.17333333333334,0)" xlink:href="#Z"/></g><path d="M29-700c214 7 502-64 502 160 0 92-55 145-133 165v4c92 18 164 64 164 172C562-51 439 6 289 6 206 6 117-2 29 0v-29c27-13 54-21 82-24v-593c-28-6-57-15-82-25v-29zM201-54c30 8 49 8 95 8 99 0 170-51 170-148 0-132-128-141-265-136v276zm234-468c8-122-114-146-234-128v268h50c111 7 178-46 184-140" id="am"/><path d="M309-50c45 2 80-15 105-34l13 14c-23 46-82 83-153 82C113 10 44-90 41-250c-3-159 81-261 231-262 61 0 114 11 153 31-4 43-16 110-31 142h-27l-42-119c-13-8-21-10-46-10-112 0-142 83-142 217 0 116 56 197 172 201" id="an"/><path d="M504-49c24 6 48 11 66 24V0H354v-25c16-9 36-17 60-24v-234c-2-92-15-167-102-167-74 0-112 51-132 109v292c23 6 42 11 59 24V0H24v-25c21-11 43-19 66-24v-633l-76-8v-26c46-17 105-35 166-36 1 117-1 237 1 353 26-56 76-113 156-113 130 0 167 79 167 210v253" id="ao"/><path d="M434-437c5 63 5 139 0 202h-23l-41-77H197v259c29 4 58 12 86 24V0H29v-29c22-10 46-18 72-24v-593c-27-6-51-15-72-25v-29h469c-2 55-5 110-11 162h-26l-41-110H197v285h173l41-74h23" id="ap"/><path d="M14-716c45-18 106-33 166-36v478h26c49-55 100-116 143-176-17-5-33-13-49-24v-26h193v26c-24 10-48 18-76 24-43 56-96 115-144 165 58 77 123 163 187 236l56 24V0H392c-78-73-123-157-179-238l-33-10v199c22 4 44 12 65 24V0H24v-25c22-11 44-19 66-24v-633l-76-8v-26" id="aq"/><path d="M276 12C114 12 41-89 41-250s78-262 235-262c164 0 234 99 236 262 2 158-86 262-236 262zm-8-480c-100 0-133 95-131 218 2 121 37 218 156 218 94 0 125-98 123-218-2-118-34-218-148-218" id="ar"/><g id="f"><use transform="matrix(0.01577777777777778,0,0,0.01577777777777778,0,0)" xlink:href="#am"/><use transform="matrix(0.01577777777777778,0,0,0.01577777777777778,9.703333333333335,0)" xlink:href="#ad"/><use transform="matrix(0.01577777777777778,0,0,0.01577777777777778,17.639555555555557,0)" xlink:href="#ac"/><use transform="matrix(0.01577777777777778,0,0,0.01577777777777778,24.471333333333334,0)" xlink:href="#W"/><use transform="matrix(0.01577777777777778,0,0,0.01577777777777778,33.52777777777778,0)" xlink:href="#an"/><use transform="matrix(0.01577777777777778,0,0,0.01577777777777778,40.88022222222222,0)" xlink:href="#ao"/><use transform="matrix(0.01577777777777778,0,0,0.01577777777777778,50.141777777777776,0)" xlink:href="#ad"/><use transform="matrix(0.01577777777777778,0,0,0.01577777777777778,58.077999999999996,0)" xlink:href="#ae"/><use transform="matrix(0.01577777777777778,0,0,0.01577777777777778,63.52133333333333,0)" xlink:href="#ai"/><use transform="matrix(0.01577777777777778,0,0,0.01577777777777778,70.2268888888889,0)" xlink:href="#ap"/><use transform="matrix(0.01577777777777778,0,0,0.01577777777777778,78.81,0)" xlink:href="#W"/><use transform="matrix(0.01577777777777778,0,0,0.01577777777777778,87.86644444444445,0)" xlink:href="#Z"/><use transform="matrix(0.01577777777777778,0,0,0.01577777777777778,97.23844444444445,0)" xlink:href="#aq"/><use transform="matrix(0.01577777777777778,0,0,0.01577777777777778,105.37977777777779,0)" xlink:href="#aa"/><use transform="matrix(0.01577777777777778,0,0,0.01577777777777778,111.23333333333335,0)" xlink:href="#Y"/><use transform="matrix(0.01577777777777778,0,0,0.01577777777777778,115.98244444444445,0)" xlink:href="#ar"/><use transform="matrix(0.01577777777777778,0,0,0.01577777777777778,124.70755555555556,0)" xlink:href="#Z"/></g><path d="M242 12C22 26 86-252 83-442l-66-8v-26c49-16 94-35 156-36 1 99-7 198-6 296 0 91 13 166 103 166 70 0 103-59 123-117v-275l-65-8v-26c48-16 94-35 155-36v455l66 8v21c-45 17-84 39-145 38l-7-119h-4C373-42 325 7 242 12zm-67-624c-31 0-54-20-54-51s23-53 54-53 54 22 54 53-23 51-54 51zm222 0c-31 0-54-20-54-51s23-53 54-53 54 22 54 53-23 51-54 51" id="as"/><g id="g"><use transform="matrix(0.01577777777777778,0,0,0.01577777777777778,0,0)" xlink:href="#aj"/><use transform="matrix(0.01577777777777778,0,0,0.01577777777777778,5.396000000000001,0)" xlink:href="#as"/><use transform="matrix(0.01577777777777778,0,0,0.01577777777777778,14.452444444444446,0)" xlink:href="#ae"/></g><g id="h"><use transform="matrix(0.01577777777777778,0,0,0.01577777777777778,0,0)" xlink:href="#U"/><use transform="matrix(0.01577777777777778,0,0,0.01577777777777778,9.403555555555556,0)" xlink:href="#aj"/><use transform="matrix(0.01577777777777778,0,0,0.01577777777777778,14.799555555555557,0)" xlink:href="#ab"/><use transform="matrix(0.01577777777777778,0,0,0.01577777777777778,22.767333333333337,0)" xlink:href="#ak"/></g><g id="i"><use transform="matrix(0.01577777777777778,0,0,0.01577777777777778,0,0)" xlink:href="#ab"/><use transform="matrix(0.01577777777777778,0,0,0.01577777777777778,7.967777777777779,0)" xlink:href="#W"/><use transform="matrix(0.01577777777777778,0,0,0.01577777777777778,17.024222222222225,0)" xlink:href="#aj"/><use transform="matrix(0.01577777777777778,0,0,0.01577777777777778,22.420222222222225,0)" xlink:href="#ae"/><use transform="matrix(0.01577777777777778,0,0,0.01577777777777778,28.478888888888893,0)" xlink:href="#W"/><use transform="matrix(0.01577777777777778,0,0,0.01577777777777778,37.53533333333334,0)" xlink:href="#aj"/><use transform="matrix(0.01577777777777778,0,0,0.01577777777777778,42.64733333333334,0)" xlink:href="#ad"/><use transform="matrix(0.01577777777777778,0,0,0.01577777777777778,50.58355555555556,0)" xlink:href="#Z"/></g><g id="j"><use transform="matrix(0.015555555555555557,0,0,0.015555555555555557,0,0)" xlink:href="#U"/><use transform="matrix(0.015555555555555557,0,0,0.015555555555555557,9.271111111111113,0)" xlink:href="#aj"/><use transform="matrix(0.015555555555555557,0,0,0.015555555555555557,14.591111111111113,0)" xlink:href="#ab"/><use transform="matrix(0.015555555555555557,0,0,0.015555555555555557,22.44666666666667,0)" xlink:href="#ak"/><use transform="matrix(0.015555555555555557,0,0,0.015555555555555557,31.080000000000005,0)" xlink:href="#aq"/><use transform="matrix(0.015555555555555557,0,0,0.015555555555555557,39.10666666666667,0)" xlink:href="#Z"/><use transform="matrix(0.015555555555555557,0,0,0.015555555555555557,48.34666666666667,0)" xlink:href="#ar"/><use transform="matrix(0.015555555555555557,0,0,0.015555555555555557,56.777777777777786,0)" xlink:href="#aa"/><use transform="matrix(0.015555555555555557,0,0,0.015555555555555557,62.5488888888889,0)" xlink:href="#ad"/><use transform="matrix(0.015555555555555557,0,0,0.015555555555555557,70.37333333333333,0)" xlink:href="#Z"/></g><path d="M402-450c-21-5-39-13-55-24v-26h170v26c-15 11-36 18-57 24L283 0l-45 12L43-450c-19-7-37-15-53-24v-26h209v25c-18 10-35 19-57 25 45 121 95 237 136 363h2c31-131 82-241 122-363" id="at"/><g id="k"><use transform="matrix(0.015555555555555557,0,0,0.015555555555555557,0,0)" xlink:href="#aq"/><use transform="matrix(0.015555555555555557,0,0,0.015555555555555557,7.840000000000001,0)" xlink:href="#ar"/><use transform="matrix(0.015555555555555557,0,0,0.015555555555555557,16.442222222222224,0)" xlink:href="#Z"/><use transform="matrix(0.015555555555555557,0,0,0.015555555555555557,25.682222222222222,0)" xlink:href="#at"/><use transform="matrix(0.015555555555555557,0,0,0.015555555555555557,33.28888888888889,0)" xlink:href="#ad"/><use transform="matrix(0.015555555555555557,0,0,0.015555555555555557,41.11333333333334,0)" xlink:href="#ae"/><use transform="matrix(0.015555555555555557,0,0,0.015555555555555557,47.08666666666667,0)" xlink:href="#aa"/><use transform="matrix(0.015555555555555557,0,0,0.015555555555555557,52.857777777777784,0)" xlink:href="#Y"/><use transform="matrix(0.015555555555555557,0,0,0.015555555555555557,57.540000000000006,0)" xlink:href="#ad"/><use transform="matrix(0.015555555555555557,0,0,0.015555555555555557,65.36444444444444,0)" xlink:href="#ae"/><use transform="matrix(0.015555555555555557,0,0,0.015555555555555557,71.33777777777777,0)" xlink:href="#ad"/><use transform="matrix(0.015555555555555557,0,0,0.015555555555555557,79.16222222222223,0)" xlink:href="#Z"/></g><path d="M145-243c1 202 77 332 179 433l-24 20C167 112 59-14 59-243c0-232 117-351 244-459l21 18C223-577 144-452 145-243" id="au"/><path d="M623-450c-20-4-39-13-55-24v-26h170v26c-14 9-33 17-57 24L539 0l-53 12c-39-122-90-232-118-366h-3C333-231 290-118 252 0l-52 12L43-450c-19-7-37-13-53-24v-26h208v25c-18 10-36 19-57 25 33 122 78 232 100 364h2l15-74 108-330 30-10c44 139 97 268 133 414h2c25-127 62-242 92-364" id="av"/><g id="l"><use transform="matrix(0.015555555555555557,0,0,0.015555555555555557,0,0)" xlink:href="#au"/><use transform="matrix(0.015555555555555557,0,0,0.015555555555555557,5.335555555555556,0)" xlink:href="#ap"/><use transform="matrix(0.015555555555555557,0,0,0.015555555555555557,13.797777777777778,0)" xlink:href="#V"/><use transform="matrix(0.015555555555555557,0,0,0.015555555555555557,18.48,0)" xlink:href="#ar"/><use transform="matrix(0.015555555555555557,0,0,0.015555555555555557,26.895555555555553,0)" xlink:href="#av"/></g><g id="m"><use transform="matrix(0.015555555555555557,0,0,0.015555555555555557,0,0)" xlink:href="#Z"/><use transform="matrix(0.015555555555555557,0,0,0.015555555555555557,9.24,0)" xlink:href="#ab"/><use transform="matrix(0.015555555555555557,0,0,0.015555555555555557,17.095555555555556,0)" xlink:href="#an"/><use transform="matrix(0.015555555555555557,0,0,0.015555555555555557,24.344444444444445,0)" xlink:href="#ao"/></g><path d="M205 105c22-29 32-63 45-105L42-450c-21-6-36-14-53-24v-26h209v25c-14 9-33 18-57 25 48 120 107 229 147 358h2c30-126 74-238 110-358-20-4-38-12-55-24v-26h171v26c-14 9-33 17-57 24-67 182-120 386-201 554-29 60-65 97-136 111-14-24-26-57-34-86l13-24h104" id="aw"/><path d="M187 151c26 4 45 11 66 24v25H31v-25c23-11 45-19 66-24v-593l-66-8v-26c47-18 93-35 156-36 1 37-1 77 1 112 25-62 66-112 150-112 138 0 189 94 187 251-2 163-75 273-234 273-51 0-68-5-104-20v159zm242-412c0-102-23-189-123-189-73 0-104 52-119 116v280c27 16 54 25 99 22 110-7 143-111 143-229" id="ax"/><path d="M40-702c130 101 244 220 244 449 0 231-106 364-241 463l-24-20C122 88 196-50 197-253c1-206-77-326-178-431" id="ay"/><g id="n"><use transform="matrix(0.015555555555555557,0,0,0.015555555555555557,0,0)" xlink:href="#ah"/><use transform="matrix(0.015555555555555557,0,0,0.015555555555555557,9.62888888888889,0)" xlink:href="#aw"/><use transform="matrix(0.015555555555555557,0,0,0.015555555555555557,17.484444444444446,0)" xlink:href="#ax"/><use transform="matrix(0.015555555555555557,0,0,0.015555555555555557,26.28888888888889,0)" xlink:href="#ad"/><use transform="matrix(0.015555555555555557,0,0,0.015555555555555557,34.11333333333334,0)" xlink:href="#ag"/><use transform="matrix(0.015555555555555557,0,0,0.015555555555555557,42.45111111111112,0)" xlink:href="#an"/><use transform="matrix(0.015555555555555557,0,0,0.015555555555555557,49.70000000000001,0)" xlink:href="#ae"/><use transform="matrix(0.015555555555555557,0,0,0.015555555555555557,55.673333333333346,0)" xlink:href="#Y"/><use transform="matrix(0.015555555555555557,0,0,0.015555555555555557,60.35555555555557,0)" xlink:href="#ax"/><use transform="matrix(0.015555555555555557,0,0,0.015555555555555557,68.98888888888891,0)" xlink:href="#aa"/><use transform="matrix(0.015555555555555557,0,0,0.015555555555555557,74.76000000000002,0)" xlink:href="#ay"/></g><path d="M423-171c9 54 15 109 12 171H43v-25l285-431H139L95-338H70c-10-50-11-106-11-162h376v26L149-44h195l54-127h25" id="az"/><g id="o"><use transform="matrix(0.01577777777777778,0,0,0.01577777777777778,0,0)" xlink:href="#ad"/><use transform="matrix(0.01577777777777778,0,0,0.01577777777777778,7.936222222222223,0)" xlink:href="#ae"/><use transform="matrix(0.01577777777777778,0,0,0.01577777777777778,13.994888888888891,0)" xlink:href="#ac"/><use transform="matrix(0.01577777777777778,0,0,0.01577777777777778,20.826666666666668,0)" xlink:href="#ad"/><use transform="matrix(0.01577777777777778,0,0,0.01577777777777778,28.76288888888889,0)" xlink:href="#aa"/><use transform="matrix(0.01577777777777778,0,0,0.01577777777777778,34.60066666666667,0)" xlink:href="#az"/><use transform="matrix(0.01577777777777778,0,0,0.01577777777777778,42.110888888888894,0)" xlink:href="#ad"/><use transform="matrix(0.01577777777777778,0,0,0.01577777777777778,50.047111111111114,0)" xlink:href="#Z"/></g><g id="p"><use transform="matrix(0.01577777777777778,0,0,0.01577777777777778,0,0)" xlink:href="#at"/><use transform="matrix(0.01577777777777778,0,0,0.01577777777777778,7.7153333333333345,0)" xlink:href="#ad"/><use transform="matrix(0.01577777777777778,0,0,0.01577777777777778,15.651555555555557,0)" xlink:href="#ae"/><use transform="matrix(0.01577777777777778,0,0,0.01577777777777778,21.710222222222225,0)" xlink:href="#V"/><use transform="matrix(0.01577777777777778,0,0,0.01577777777777778,26.459333333333337,0)" xlink:href="#ab"/><use transform="matrix(0.01577777777777778,0,0,0.01577777777777778,34.42711111111112,0)" xlink:href="#ac"/><use transform="matrix(0.01577777777777778,0,0,0.01577777777777778,41.2588888888889,0)" xlink:href="#ac"/><use transform="matrix(0.01577777777777778,0,0,0.01577777777777778,48.09066666666668,0)" xlink:href="#ad"/><use transform="matrix(0.01577777777777778,0,0,0.01577777777777778,56.0268888888889,0)" xlink:href="#Z"/></g><g id="q"><use transform="matrix(0.01577777777777778,0,0,0.01577777777777778,0,0)" xlink:href="#av"/><use transform="matrix(0.01577777777777778,0,0,0.01577777777777778,11.29688888888889,0)" xlink:href="#ad"/><use transform="matrix(0.01577777777777778,0,0,0.01577777777777778,19.233111111111114,0)" xlink:href="#Y"/><use transform="matrix(0.01577777777777778,0,0,0.01577777777777778,23.982222222222227,0)" xlink:href="#aa"/><use transform="matrix(0.01577777777777778,0,0,0.01577777777777778,29.835777777777782,0)" xlink:href="#ad"/><use transform="matrix(0.01577777777777778,0,0,0.01577777777777778,37.772000000000006,0)" xlink:href="#ae"/><use transform="matrix(0.01577777777777778,0,0,0.01577777777777778,43.83066666666667,0)" xlink:href="#ad"/></g><g id="r"><use transform="matrix(0.01577777777777778,0,0,0.01577777777777778,0,0)" xlink:href="#af"/><use transform="matrix(0.01577777777777778,0,0,0.01577777777777778,10.776222222222223,0)" xlink:href="#ag"/><use transform="matrix(0.01577777777777778,0,0,0.01577777777777778,19.233111111111114,0)" xlink:href="#ah"/><use transform="matrix(0.01577777777777778,0,0,0.01577777777777778,28.00555555555556,0)" xlink:href="#ai"/><use transform="matrix(0.01577777777777778,0,0,0.01577777777777778,34.711111111111116,0)" xlink:href="#U"/><use transform="matrix(0.01577777777777778,0,0,0.01577777777777778,44.11466666666667,0)" xlink:href="#aj"/><use transform="matrix(0.01577777777777778,0,0,0.01577777777777778,49.51066666666667,0)" xlink:href="#ab"/><use transform="matrix(0.01577777777777778,0,0,0.01577777777777778,57.47844444444445,0)" xlink:href="#ak"/><use transform="matrix(0.01577777777777778,0,0,0.01577777777777778,66.23511111111111,0)" xlink:href="#ad"/></g><g id="s"><use transform="matrix(0.01577777777777778,0,0,0.01577777777777778,0,0)" xlink:href="#at"/><use transform="matrix(0.01577777777777778,0,0,0.01577777777777778,7.7153333333333345,0)" xlink:href="#ar"/><use transform="matrix(0.01577777777777778,0,0,0.01577777777777778,16.440444444444445,0)" xlink:href="#ae"/><use transform="matrix(0.01577777777777778,0,0,0.01577777777777778,22.499111111111112,0)" xlink:href="#ao"/><use transform="matrix(0.01577777777777778,0,0,0.01577777777777778,31.76066666666667,0)" xlink:href="#ab"/><use transform="matrix(0.01577777777777778,0,0,0.01577777777777778,39.72844444444445,0)" xlink:href="#Z"/><use transform="matrix(0.01577777777777778,0,0,0.01577777777777778,49.10044444444445,0)" xlink:href="#ak"/><use transform="matrix(0.01577777777777778,0,0,0.01577777777777778,57.85711111111112,0)" xlink:href="#ad"/><use transform="matrix(0.01577777777777778,0,0,0.01577777777777778,65.79333333333334,0)" xlink:href="#Z"/></g><path d="M471-30C441-4 381 21 335-5c-64-57-92-158-132-233l-36-10L120 0H34l136-682-70-9v-25c35-16 100-34 147-36l21 11-94 467c41 5 50-15 72-32 39-30 77-70 105-109 3-25 1-61-1-85 43-16 95-19 132 0-41 93-132 158-207 216 34 79 82 165 133 228h63v26" id="aA"/><path d="M250-50c56-2 93-33 126-58l16 19C360-31 301 11 212 12 102 14 38-57 40-167c2-152 64-262 164-318 80-44 233-40 231 70 0 47-24 85-71 112s-122 45-227 53C113-150 148-46 250-50zm99-361c0-35-19-59-62-58-29 1-55 15-80 41s-46 71-63 135c105-4 205-29 205-118" id="aB"/><path d="M212-30C181 0 54 37 54-37c0-31 5-53 11-81l70-323-64-10v-25c41-16 90-33 143-36l18 12-94 444h74v26zm-3-590c-34 0-58-20-58-53 0-34 24-56 58-56 36-1 60 21 60 56 0 34-25 53-60 53" id="aC"/><path d="M490-30c-29 28-146 66-155-2 15-128 58-233 69-363 5-61-60-67-99-33-50 43-95 112-125 173L127 0H43l88-442-61-9 2-25c38-18 83-34 136-36l20 12-38 177h5c36-72 84-138 153-175 68-36 149-2 142 79-12 134-50 242-74 363h74v26" id="aD"/><g id="t"><use transform="matrix(0.01577777777777778,0,0,0.01577777777777778,0,0)" xlink:href="#aA"/><use transform="matrix(0.01577777777777778,0,0,0.01577777777777778,7.3997777777777785,0)" xlink:href="#aB"/><use transform="matrix(0.01577777777777778,0,0,0.01577777777777778,14.56288888888889,0)" xlink:href="#aC"/><use transform="matrix(0.01577777777777778,0,0,0.01577777777777778,18.933333333333337,0)" xlink:href="#aD"/><use transform="matrix(0.01577777777777778,0,0,0.01577777777777778,27.64266666666667,0)" xlink:href="#aB"/></g><g id="u"><use transform="matrix(0.01577777777777778,0,0,0.01577777777777778,0,0)" xlink:href="#av"/><use transform="matrix(0.01577777777777778,0,0,0.01577777777777778,11.29688888888889,0)" xlink:href="#ad"/><use transform="matrix(0.01577777777777778,0,0,0.01577777777777778,19.233111111111114,0)" xlink:href="#Y"/><use transform="matrix(0.01577777777777778,0,0,0.01577777777777778,23.982222222222227,0)" xlink:href="#aa"/><use transform="matrix(0.01577777777777778,0,0,0.01577777777777778,29.835777777777782,0)" xlink:href="#ad"/><use transform="matrix(0.01577777777777778,0,0,0.01577777777777778,37.772000000000006,0)" xlink:href="#ae"/><use transform="matrix(0.01577777777777778,0,0,0.01577777777777778,43.83066666666667,0)" xlink:href="#ad"/><use transform="matrix(0.01577777777777778,0,0,0.01577777777777778,51.76688888888889,0)" xlink:href="#Z"/></g><g id="v"><use transform="matrix(0.01577777777777778,0,0,0.01577777777777778,0,0)" xlink:href="#af"/><use transform="matrix(0.01577777777777778,0,0,0.01577777777777778,10.776222222222223,0)" xlink:href="#ag"/><use transform="matrix(0.01577777777777778,0,0,0.01577777777777778,19.233111111111114,0)" xlink:href="#ah"/><use transform="matrix(0.01577777777777778,0,0,0.01577777777777778,28.00555555555556,0)" xlink:href="#ai"/><use transform="matrix(0.01577777777777778,0,0,0.01577777777777778,34.711111111111116,0)" xlink:href="#U"/><use transform="matrix(0.01577777777777778,0,0,0.01577777777777778,44.11466666666667,0)" xlink:href="#aj"/><use transform="matrix(0.01577777777777778,0,0,0.01577777777777778,49.51066666666667,0)" xlink:href="#ab"/><use transform="matrix(0.01577777777777778,0,0,0.01577777777777778,57.47844444444445,0)" xlink:href="#ak"/><use transform="matrix(0.01577777777777778,0,0,0.01577777777777778,66.23511111111111,0)" xlink:href="#ad"/></g><path d="M377 12C154 12 39-128 39-350s115-362 338-362 337 140 337 362S600 12 377 12zm-8-659c-142 0-160 148-160 297 0 153 31 297 177 297 138 0 158-151 158-297 0-153-28-297-175-297" id="aE"/><path d="M613-492c0 185-164 242-361 225v200c35 5 74 16 101 29V0H20v-38c23-14 53-23 82-29v-566c-30-5-60-16-82-29v-38c107 3 211-8 312-8 159 0 281 56 281 216zm-165 5c0-119-81-175-196-150v304c121 21 196-38 196-154" id="aF"/><g id="w"><use transform="matrix(0.01577777777777778,0,0,0.01577777777777778,0,0)" xlink:href="#Q"/><use transform="matrix(0.01577777777777778,0,0,0.01577777777777778,8.804,0)" xlink:href="#R"/><use transform="matrix(0.01577777777777778,0,0,0.01577777777777778,19.012222222222224,0)" xlink:href="#aE"/><use transform="matrix(0.01577777777777778,0,0,0.01577777777777778,30.90866666666667,0)" xlink:href="#aF"/></g><g id="x"><use transform="matrix(0.01577777777777778,0,0,0.01577777777777778,0,0)" xlink:href="#aA"/><use transform="matrix(0.01577777777777778,0,0,0.01577777777777778,7.3997777777777785,0)" xlink:href="#aB"/><use transform="matrix(0.01577777777777778,0,0,0.01577777777777778,14.56288888888889,0)" xlink:href="#aC"/><use transform="matrix(0.01577777777777778,0,0,0.01577777777777778,18.933333333333337,0)" xlink:href="#aD"/></g><g id="y"><use transform="matrix(0.01577777777777778,0,0,0.01577777777777778,0,0)" xlink:href="#am"/><use transform="matrix(0.01577777777777778,0,0,0.01577777777777778,9.703333333333335,0)" xlink:href="#ad"/><use transform="matrix(0.01577777777777778,0,0,0.01577777777777778,17.639555555555557,0)" xlink:href="#ac"/><use transform="matrix(0.01577777777777778,0,0,0.01577777777777778,24.471333333333334,0)" xlink:href="#W"/><use transform="matrix(0.01577777777777778,0,0,0.01577777777777778,33.52777777777778,0)" xlink:href="#an"/><use transform="matrix(0.01577777777777778,0,0,0.01577777777777778,40.88022222222222,0)" xlink:href="#ao"/><use transform="matrix(0.01577777777777778,0,0,0.01577777777777778,50.141777777777776,0)" xlink:href="#ad"/><use transform="matrix(0.01577777777777778,0,0,0.01577777777777778,58.077999999999996,0)" xlink:href="#ae"/></g><g id="z"><use transform="matrix(0.01577777777777778,0,0,0.01577777777777778,0,0)" xlink:href="#aj"/><use transform="matrix(0.01577777777777778,0,0,0.01577777777777778,5.396000000000001,0)" xlink:href="#as"/><use transform="matrix(0.01577777777777778,0,0,0.01577777777777778,14.452444444444446,0)" xlink:href="#ae"/></g><path d="M454-646c-26-7-50-14-72-25v-29h221v29c-24 11-49 19-76 25L326-380c85 110 179 227 272 331l48 24V0H521l-34-24c-80-94-160-205-231-311h-49v282c31 5 56 13 75 24V0H29v-29c27-11 54-19 82-24v-593c-30-4-57-12-82-25v-29h253v29c-22 10-48 19-75 25v277l60-14" id="aG"/><g id="A"><use transform="matrix(0.01577777777777778,0,0,0.01577777777777778,0,0)" xlink:href="#aG"/><use transform="matrix(0.01577777777777778,0,0,0.01577777777777778,10.192444444444446,0)" xlink:href="#Z"/><use transform="matrix(0.01577777777777778,0,0,0.01577777777777778,19.564444444444447,0)" xlink:href="#ar"/><use transform="matrix(0.01577777777777778,0,0,0.01577777777777778,28.116000000000003,0)" xlink:href="#aa"/><use transform="matrix(0.01577777777777778,0,0,0.01577777777777778,33.96955555555556,0)" xlink:href="#ad"/><use transform="matrix(0.01577777777777778,0,0,0.01577777777777778,41.905777777777786,0)" xlink:href="#Z"/><use transform="matrix(0.01577777777777778,0,0,0.01577777777777778,51.27777777777778,0)" xlink:href="#aa"/><use transform="matrix(0.01577777777777778,0,0,0.01577777777777778,57.11555555555556,0)" xlink:href="#aw"/><use transform="matrix(0.01577777777777778,0,0,0.01577777777777778,65.08333333333334,0)" xlink:href="#ax"/></g><g id="B"><use transform="matrix(0.01577777777777778,0,0,0.01577777777777778,0,0)" xlink:href="#am"/><use transform="matrix(0.01577777777777778,0,0,0.01577777777777778,9.703333333333335,0)" xlink:href="#ad"/><use transform="matrix(0.01577777777777778,0,0,0.01577777777777778,17.639555555555557,0)" xlink:href="#ac"/><use transform="matrix(0.01577777777777778,0,0,0.01577777777777778,24.471333333333334,0)" xlink:href="#W"/><use transform="matrix(0.01577777777777778,0,0,0.01577777777777778,33.52777777777778,0)" xlink:href="#an"/><use transform="matrix(0.01577777777777778,0,0,0.01577777777777778,40.88022222222222,0)" xlink:href="#ao"/><use transform="matrix(0.01577777777777778,0,0,0.01577777777777778,50.141777777777776,0)" xlink:href="#ad"/><use transform="matrix(0.01577777777777778,0,0,0.01577777777777778,58.077999999999996,0)" xlink:href="#ae"/></g><g id="C"><use transform="matrix(0.01577777777777778,0,0,0.01577777777777778,0,0)" xlink:href="#U"/><use transform="matrix(0.01577777777777778,0,0,0.01577777777777778,9.403555555555556,0)" xlink:href="#aj"/><use transform="matrix(0.01577777777777778,0,0,0.01577777777777778,14.799555555555557,0)" xlink:href="#ab"/><use transform="matrix(0.01577777777777778,0,0,0.01577777777777778,22.767333333333337,0)" xlink:href="#ak"/><use transform="matrix(0.01577777777777778,0,0,0.01577777777777778,31.524000000000004,0)" xlink:href="#aa"/><use transform="matrix(0.01577777777777778,0,0,0.01577777777777778,37.36177777777778,0)" xlink:href="#aw"/><use transform="matrix(0.01577777777777778,0,0,0.01577777777777778,45.32955555555556,0)" xlink:href="#ax"/></g><path d="M209-367c35-81 104-175 212-133-3 40-18 78-37 102l-79-41c-52 27-100 87-116 160L129 0H43l93-442-61-9v-25c38-19 91-31 138-36l20 12-28 133h4" id="aH"/><path d="M139-97c-3 47 47 58 82 34 69-48 114-130 148-212l44-225h83L414-55h74v25c-30 29-147 65-158-2 2-55 10-106 27-164h-4c-46 89-92 208-217 208-50 0-87-39-83-94 8-122 44-247 66-360l-61-9v-25c42-15 88-31 138-36l22 12c-27 137-68 250-79 403" id="aI"/><path d="M138-31c78 4 148-61 104-129-47-72-160-88-160-207 0-105 81-145 187-145 44 0 89 6 120 26-4 40-20 76-46 94l-74-77c-56 3-99 19-99 78 0 82 87 99 130 147 23 26 45 56 45 105C345 12 129 43 7-18c9-40 13-71 41-96" id="aJ"/><path d="M15-475c31-18 93-54 135-26 6 7 11 16 13 27 18 129 38 256 53 388 49-99 109-187 145-295-3-39-10-86-18-119 35-15 81-18 113 0C405-305 305-144 200 0l-47 12-74-454-64-8v-25" id="aK"/><g id="D"><use transform="matrix(0.01577777777777778,0,0,0.01577777777777778,0,0)" xlink:href="#aH"/><use transform="matrix(0.01577777777777778,0,0,0.01577777777777778,6.074444444444445,0)" xlink:href="#aB"/><use transform="matrix(0.01577777777777778,0,0,0.01577777777777778,13.237555555555558,0)" xlink:href="#aA"/><use transform="matrix(0.01577777777777778,0,0,0.01577777777777778,20.826666666666668,0)" xlink:href="#aI"/><use transform="matrix(0.01577777777777778,0,0,0.01577777777777778,29.378222222222224,0)" xlink:href="#aH"/><use transform="matrix(0.01577777777777778,0,0,0.01577777777777778,35.45266666666667,0)" xlink:href="#aJ"/><use transform="matrix(0.01577777777777778,0,0,0.01577777777777778,42.04777777777778,0)" xlink:href="#aC"/><use transform="matrix(0.01577777777777778,0,0,0.01577777777777778,46.41822222222223,0)" xlink:href="#aK"/><use transform="matrix(0.01577777777777778,0,0,0.01577777777777778,53.29733333333334,0)" xlink:href="#aB"/></g><path d="M176 0H-49l6-29c26-11 52-19 78-24l395-659h26L569-53c24 6 51 12 70 24l-5 29H380l5-29c30-11 59-19 88-24l-30-183H208L101-53c29 4 55 12 80 24zm61-288h198c-12-99-36-185-34-298h-2c-45 109-107 199-162 298" id="aL"/><path d="M236-710c46-39 153-56 223-26-4 35-15 68-39 86l-76-62c-92 16-98 118-120 212h111c3 17 0 33-10 50H214L150-43C129 88 64 173-43 212l-9-22C13 149 50 71 64-24l65-426H56v-26c24-14 56-26 85-33 14-87 43-157 95-201" id="aM"/><g id="E"><use transform="matrix(0.01577777777777778,0,0,0.01577777777777778,0,0)" xlink:href="#aL"/><use transform="matrix(0.01577777777777778,0,0,0.01577777777777778,10.634222222222224,0)" xlink:href="#aI"/><use transform="matrix(0.01577777777777778,0,0,0.01577777777777778,19.18577777777778,0)" xlink:href="#aM"/><use transform="matrix(0.01577777777777778,0,0,0.01577777777777778,23.87177777777778,0)" xlink:href="#aH"/><use transform="matrix(0.01577777777777778,0,0,0.01577777777777778,29.946222222222225,0)" xlink:href="#aI"/><use transform="matrix(0.01577777777777778,0,0,0.01577777777777778,38.497777777777785,0)" xlink:href="#aM"/><use transform="matrix(0.01577777777777778,0,0,0.01577777777777778,43.183777777777784,0)" xlink:href="#aB"/></g><path d="M27 182C82 147 96 70 97-24v-405l-66-8v-39c57-23 132-35 210-36v469c-2 147-84 217-194 255zm139-772c-48 0-86-28-86-74 0-47 38-75 86-75s86 28 86 75c0 46-38 74-86 74" id="aN"/><path d="M475-353c0 99-10 184-2 280l69 10v35C488-8 424 11 349 10c-14-32-13-57-15-102h-5C310-30 262 12 182 12 91 12 27-36 27-127c0-153 154-149 304-162 6-96 9-166-72-166-21 0-40 3-57 10l-47 120h-44c-22-35-40-80-47-131 50-35 139-56 225-56 119 0 186 44 186 159zM177-148c0 47 23 80 68 80 50 0 75-34 86-74v-100c-86 2-154 7-154 94" id="aO"/><g id="F"><use transform="matrix(0.01577777777777778,0,0,0.01577777777777778,0,0)" xlink:href="#aN"/><use transform="matrix(0.01577777777777778,0,0,0.01577777777777778,5.048888888888889,0)" xlink:href="#aO"/></g><path d="M69-333c0-118 91-174 211-179 56-3 98 16 126 38 32-26 81-41 125-55 12 24 6 67-8 84l-103-7c4 13 9 28 9 46-8 134-117 198-262 181-18 15-69 60-18 79 81 31 202 33 256 93 34 37 24 106-5 145-54 75-156 120-281 120-96 0-174-29-174-117C-55 0 30-36 95-76c-18-9-34-27-34-52 0-50 50-80 81-105-41-14-73-46-73-100zm47 266C67-32 37 8 35 73c-2 66 59 99 130 96 91-4 164-41 172-131-14-89-146-75-221-105zm227-322c0-48-22-85-71-83-80 3-118 56-122 137-2 47 37 74 77 74 78 0 116-52 116-128" id="aP"/><path d="M97 8C58 8 29-19 29-57c0-39 29-66 68-66 40 0 69 26 69 66 0 39-29 65-69 65" id="aQ"/><g id="H"><use transform="matrix(0.01577777777777778,0,0,0.01577777777777778,0,0)" xlink:href="#aP"/><use transform="matrix(0.01577777777777778,0,0,0.01577777777777778,8.10977777777778,0)" xlink:href="#aP"/><use transform="matrix(0.01577777777777778,0,0,0.01577777777777778,15.825111111111113,0)" xlink:href="#aM"/><use transform="matrix(0.01577777777777778,0,0,0.01577777777777778,20.132444444444445,0)" xlink:href="#aQ"/></g><g id="I"><use transform="matrix(0.01577777777777778,0,0,0.01577777777777778,0,0)" xlink:href="#aH"/><use transform="matrix(0.01577777777777778,0,0,0.01577777777777778,6.074444444444445,0)" xlink:href="#aB"/><use transform="matrix(0.01577777777777778,0,0,0.01577777777777778,13.237555555555558,0)" xlink:href="#aA"/><use transform="matrix(0.01577777777777778,0,0,0.01577777777777778,20.826666666666668,0)" xlink:href="#aI"/><use transform="matrix(0.01577777777777778,0,0,0.01577777777777778,29.378222222222224,0)" xlink:href="#aH"/><use transform="matrix(0.01577777777777778,0,0,0.01577777777777778,35.45266666666667,0)" xlink:href="#aJ"/><use transform="matrix(0.01577777777777778,0,0,0.01577777777777778,42.04777777777778,0)" xlink:href="#aC"/><use transform="matrix(0.01577777777777778,0,0,0.01577777777777778,46.41822222222223,0)" xlink:href="#aK"/><use transform="matrix(0.01577777777777778,0,0,0.01577777777777778,53.29733333333334,0)" xlink:href="#aB"/></g><path d="M478-437c-7 63-25 147-42 202h-25l-22-77H213L159-53c28 4 55 12 80 24l-5 29H-20l5-29C8-39 36-47 63-53l125-593c-24-7-48-15-67-25l7-29h469c-13 55-27 111-46 162h-26l-17-110H284l-60 285h175l54-74h25" id="aR"/><path d="M148 12C63 19 46-54 63-136l66-314H53l1-26c25-14 56-27 87-34l16-76c19-15 46-26 71-36l21 12-24 110h124c3 21-1 37-10 50H215c-23 118-71 225-71 350 0 82 113 42 154 19l11 18c-35 40-91 70-161 75" id="aS"/><path d="M209 12C98 10 38-65 41-186c3-136 62-241 152-295 34-21 74-31 119-31 111 1 159 73 157 190-2 144-60 251-154 306-32 18-67 28-106 28zm157-238c17-94 27-243-74-243-136 0-150 164-161 305-8 99 86 175 159 106 39-38 63-100 76-168" id="aT"/><path d="M133-156c0 57 6 103 56 106 98-26 135-145 178-227l32-171c-39-29-109-20-147 10-71 57-119 159-119 282zM323-33c3-54 15-102 28-163h-4C319-121 279-44 213-7 121 44 38-6 43-139c6-159 68-278 171-339 53-32 142-44 199-13 27-14 55-21 84-21L407-55h73v25c-30 30-147 65-157-3" id="aU"/><g id="J"><use transform="matrix(0.01577777777777778,0,0,0.01577777777777778,0,0)" xlink:href="#aR"/><use transform="matrix(0.01577777777777778,0,0,0.01577777777777778,8.441111111111113,0)" xlink:href="#aI"/><use transform="matrix(0.01577777777777778,0,0,0.01577777777777778,16.99266666666667,0)" xlink:href="#aD"/><use transform="matrix(0.01577777777777778,0,0,0.01577777777777778,25.702,0)" xlink:href="#aA"/><use transform="matrix(0.01577777777777778,0,0,0.01577777777777778,33.291111111111114,0)" xlink:href="#aS"/><use transform="matrix(0.01577777777777778,0,0,0.01577777777777778,38.608222222222224,0)" xlink:href="#aC"/><use transform="matrix(0.01577777777777778,0,0,0.01577777777777778,42.97866666666667,0)" xlink:href="#aT"/><use transform="matrix(0.01577777777777778,0,0,0.01577777777777778,51.00955555555556,0)" xlink:href="#aD"/><use transform="matrix(0.01577777777777778,0,0,0.01577777777777778,59.71888888888889,0)" xlink:href="#aJ"/><use transform="matrix(0.01577777777777778,0,0,0.01577777777777778,66.31400000000001,0)" xlink:href="#aU"/><use transform="matrix(0.01577777777777778,0,0,0.01577777777777778,74.75511111111112,0)" xlink:href="#aI"/><use transform="matrix(0.01577777777777778,0,0,0.01577777777777778,83.30666666666667,0)" xlink:href="#aM"/><use transform="matrix(0.01577777777777778,0,0,0.01577777777777778,87.99266666666668,0)" xlink:href="#aH"/><use transform="matrix(0.01577777777777778,0,0,0.01577777777777778,94.06711111111113,0)" xlink:href="#aI"/><use transform="matrix(0.01577777777777778,0,0,0.01577777777777778,102.61866666666668,0)" xlink:href="#aM"/><use transform="matrix(0.01577777777777778,0,0,0.01577777777777778,107.30466666666669,0)" xlink:href="#aB"/></g><path d="M349 9C187 9 92-61 92-221v-425c-27-4-55-12-82-25v-29h254v29c-24 10-49 18-76 25v409c-2 124 51 188 173 186 114-2 167-62 167-187v-399c-28-10-56-21-79-34v-29h213v29c-24 13-49 27-78 34v401C583-77 505 9 349 9" id="aV"/><path d="M564-631c-27-12-54-25-77-40v-29h216v29c-28 19-55 32-82 40V12h-57L201-539l-39-78h-3l9 78v475c27 7 53 19 77 35V0H29v-29c24-15 52-26 82-35v-573c-26-10-53-23-76-35v-28h169l315 475 46 86h4c-10-156-3-329-5-492" id="aW"/><path d="M111-646c-28-6-57-15-82-25v-29h474c-2 56-4 110-11 162h-26l-41-110H207v265h163l39-74h25c4 66 4 133 0 202h-25l-39-76H207v279h230l49-120h25c9 53 14 110 11 172H29v-29c23-11 51-19 82-24v-593" id="aX"/><path d="M528-512c1 103-62 164-143 190 59 93 121 182 188 268l54 29V0H506l-38-28c-69-84-120-176-167-282h-94v257c31 7 58 13 85 24V0H29v-29c27-13 52-18 82-24v-593c-32-6-57-14-82-25v-29c93 3 180-8 268-8 138 0 230 58 231 196zm-99 0c0-121-103-160-222-139v299h72c92 1 150-67 150-160" id="aY"/><g id="K"><use transform="matrix(0.01577777777777778,0,0,0.01577777777777778,0,0)" xlink:href="#aV"/><use transform="matrix(0.01577777777777778,0,0,0.01577777777777778,10.602666666666668,0)" xlink:href="#aW"/><use transform="matrix(0.01577777777777778,0,0,0.01577777777777778,22.152,0)" xlink:href="#ah"/><use transform="matrix(0.01577777777777778,0,0,0.01577777777777778,31.918444444444447,0)" xlink:href="#aX"/><use transform="matrix(0.01577777777777778,0,0,0.01577777777777778,41.101111111111116,0)" xlink:href="#aY"/><use transform="matrix(0.01577777777777778,0,0,0.01577777777777778,50.678222222222225,0)" xlink:href="#ai"/></g><path d="M370 12C157 12 53-135 53-350s104-362 317-362 317 147 317 362S583 12 370 12zm-8-672c-160 0-202 145-202 310 0 168 55 310 219 310 156 0 201-148 201-310 0-168-54-310-218-310" id="aZ"/><path d="M342-539c8-103-102-151-192-103l-23 123h-25c-11-37-28-105-32-151 53-31 104-42 188-42 111 0 180 55 180 163 0 191-212 185-223 369h-20c-46-187 136-206 147-359zM211 8c-39 0-68-27-68-65 0-39 29-66 68-66 40 0 69 26 69 66 0 39-29 65-69 65" id="ba"/><g id="L"><use transform="matrix(0.01577777777777778,0,0,0.01577777777777778,0,0)" xlink:href="#aG"/><use transform="matrix(0.01577777777777778,0,0,0.01577777777777778,10.192444444444446,0)" xlink:href="#aW"/><use transform="matrix(0.01577777777777778,0,0,0.01577777777777778,21.74177777777778,0)" xlink:href="#aZ"/><use transform="matrix(0.01577777777777778,0,0,0.01577777777777778,33.03866666666667,0)" xlink:href="#ah"/><use transform="matrix(0.01577777777777778,0,0,0.01577777777777778,42.80511111111112,0)" xlink:href="#aX"/><use transform="matrix(0.01577777777777778,0,0,0.01577777777777778,51.98777777777779,0)" xlink:href="#aW"/><use transform="matrix(0.01577777777777778,0,0,0.01577777777777778,63.53711111111112,0)" xlink:href="#ba"/></g><g id="M"><use transform="matrix(0.01577777777777778,0,0,0.01577777777777778,0,0)" xlink:href="#ac"/><use transform="matrix(0.01577777777777778,0,0,0.01577777777777778,6.831777777777779,0)" xlink:href="#ar"/><use transform="matrix(0.01577777777777778,0,0,0.01577777777777778,15.55688888888889,0)" xlink:href="#Z"/><use transform="matrix(0.01577777777777778,0,0,0.01577777777777778,24.928888888888892,0)" xlink:href="#ac"/><use transform="matrix(0.01577777777777778,0,0,0.01577777777777778,31.760666666666673,0)" xlink:href="#aa"/></g><path d="M596-450c-71 0-97 57-113 117v284c23 7 45 15 65 24V0H334v-25c16-10 36-19 59-24v-231c-2-88-4-170-91-170-68 0-97 53-115 107v294c22 7 41 13 59 24V0H31v-25c19-10 43-18 66-24v-393l-66-8v-26c47-18 93-35 156-36 1 37-1 77 1 113 20-58 72-113 150-113 87 0 127 45 138 123 22-67 72-123 158-123 124 0 145 87 145 212v251c23 4 45 12 66 24V0H630v-25c20-11 40-19 59-24v-249c0-83-9-153-93-152" id="bb"/><g id="N"><use transform="matrix(0.01577777777777778,0,0,0.01577777777777778,0,0)" xlink:href="#aZ"/><use transform="matrix(0.01577777777777778,0,0,0.01577777777777778,11.675555555555556,0)" xlink:href="#ax"/><use transform="matrix(0.01577777777777778,0,0,0.01577777777777778,20.432222222222222,0)" xlink:href="#aa"/><use transform="matrix(0.01577777777777778,0,0,0.01577777777777778,26.285777777777778,0)" xlink:href="#Y"/><use transform="matrix(0.01577777777777778,0,0,0.01577777777777778,31.03488888888889,0)" xlink:href="#bb"/><use transform="matrix(0.01577777777777778,0,0,0.01577777777777778,44.65111111111111,0)" xlink:href="#Y"/><use transform="matrix(0.01577777777777778,0,0,0.01577777777777778,49.400222222222226,0)" xlink:href="#ad"/><use transform="matrix(0.01577777777777778,0,0,0.01577777777777778,57.336444444444446,0)" xlink:href="#ae"/><use transform="matrix(0.01577777777777778,0,0,0.01577777777777778,63.39511111111111,0)" xlink:href="#W"/><use transform="matrix(0.01577777777777778,0,0,0.01577777777777778,72.45155555555556,0)" xlink:href="#Z"/><use transform="matrix(0.01577777777777778,0,0,0.01577777777777778,81.82355555555556,0)" xlink:href="#X"/><use transform="matrix(0.01577777777777778,0,0,0.01577777777777778,90.12266666666667,0)" xlink:href="#ac"/><use transform="matrix(0.01577777777777778,0,0,0.01577777777777778,96.95444444444445,0)" xlink:href="#ai"/></g><g id="O"><use transform="matrix(0.01577777777777778,0,0,0.01577777777777778,0,0)" xlink:href="#aj"/><use transform="matrix(0.01577777777777778,0,0,0.01577777777777778,5.396000000000001,0)" xlink:href="#W"/><use transform="matrix(0.01577777777777778,0,0,0.01577777777777778,14.452444444444446,0)" xlink:href="#Z"/><use transform="matrix(0.01577777777777778,0,0,0.01577777777777778,23.824444444444445,0)" xlink:href="#aq"/><use transform="matrix(0.01577777777777778,0,0,0.01577777777777778,31.96577777777778,0)" xlink:href="#aa"/><use transform="matrix(0.01577777777777778,0,0,0.01577777777777778,37.81933333333334,0)" xlink:href="#Y"/><use transform="matrix(0.01577777777777778,0,0,0.01577777777777778,42.56844444444445,0)" xlink:href="#ar"/><use transform="matrix(0.01577777777777778,0,0,0.01577777777777778,51.293555555555564,0)" xlink:href="#Z"/></g><g id="P"><use transform="matrix(0.01577777777777778,0,0,0.01577777777777778,0,0)" xlink:href="#aj"/><use transform="matrix(0.01577777777777778,0,0,0.01577777777777778,5.396000000000001,0)" xlink:href="#ab"/><use transform="matrix(0.01577777777777778,0,0,0.01577777777777778,13.36377777777778,0)" xlink:href="#V"/><use transform="matrix(0.01577777777777778,0,0,0.01577777777777778,18.112888888888893,0)" xlink:href="#V"/><use transform="matrix(0.01577777777777778,0,0,0.01577777777777778,22.862000000000005,0)" xlink:href="#ac"/></g></defs></g></svg>