<svg xmlns="http://www.w3.org/2000/svg" xmlns:xlink="http://www.w3.org/1999/xlink" xmlns:lucid="lucid" width="1160" height="502"><g transform="translate(-40 -40)" lucid:page-tab-id="0_0"><path d="M0 0h1870.4v1323.2H0z" fill="#fff"/><path d="M584.92 292H582v-2h2.92zm9.75 0h-5.85v-2h5.85zm9.22 0h-5.33v-2h5.32zm29.77 0h-5.85v-2h5.85zm6.83 0h-2.93v-2h2.93z"/><path d="M582.03 292H581v-2h1.03zM655.76 291l-14.26 4.64v-9.28z"/><path d="M659 291l-18.5 6v-12zm-16.5 3.26l10.03-3.26-10.03-3.26z"/><use xlink:href="#a" transform="matrix(1,0,0,1,603.8892983603812,276.2888888888889) translate(0 23.066666666666666)"/><path d="M181 291h19.5" stroke="#000" stroke-width="2" fill="none"/><path d="M181.03 292H180v-2h1.03z"/><path d="M215.76 291l-14.26 4.64v-9.28z" stroke="#000" stroke-width="2"/><path d="M1022 290.17l19.5-.1" stroke="#000" stroke-width="2" fill="none"/><path d="M1022.03 291.17H1021v-2h1.02z"/><path d="M1056.76 290l-14.24 4.7-.04-9.26z" stroke="#000" stroke-width="2"/><path d="M220 60h360v462H220z" stroke="#000" stroke-width="2" fill="#fff"/><use xlink:href="#b" transform="matrix(1,0,0,1,228,68) translate(172 16.162222222222223)"/><use xlink:href="#c" transform="matrix(1,0,0,1,228,68) translate(38.47777777777776 43.699999999999996)"/><use xlink:href="#d" transform="matrix(1,0,0,1,228,68) translate(142.76666666666665 43.699999999999996)"/><path d="M262 160c-6.63 0-12 5.37-12 12v36c0 6.63 5.37 12 12 12h276c6.63 0 12-5.37 12-12v-36c0-6.63-5.37-12-12-12z" stroke="#fff" stroke-width="2" fill="#dcdcdc"/><use xlink:href="#e" transform="matrix(1,0,0,1,257.9999999999999,168) translate(59.92888888888888 29.184444444444445)"/><use xlink:href="#f" transform="matrix(1,0,0,1,257.9999999999999,168) translate(161.42222222222222 29.184444444444445)"/><path d="M262 300c-6.63 0-12 5.37-12 12v36c0 6.63 5.37 12 12 12h274.78c6.62 0 12-5.37 12-12v-36c0-6.63-5.38-12-12-12z" stroke="#fff" stroke-width="2" fill="#dcdcdc"/><use xlink:href="#g" transform="matrix(1,0,0,1,257.99999999999994,308) translate(57.45555555555555 29.184444444444445)"/><use xlink:href="#f" transform="matrix(1,0,0,1,257.99999999999994,308) translate(162.89555555555555 29.184444444444445)"/><path d="M263.22 435.75c-6.62 0-12 5.37-12 12v36c0 6.63 5.38 12 12 12H538c6.63 0 12-5.37 12-12v-36c0-6.63-5.37-12-12-12z" stroke="#fff" stroke-width="2" fill="#dcdcdc"/><use xlink:href="#h" transform="matrix(1,0,0,1,259.22372136805797,443.75169677734374) translate(57.68666666666667 29.184444444444445)"/><use xlink:href="#f" transform="matrix(1,0,0,1,259.22372136805797,443.75169677734374) translate(162.66444444444446 29.184444444444445)"/><path d="M401.6 416.25h-2v-17.38h2zm-.6-40.9h-2V362h2z"/><path d="M401 362.03h-2V361h2zM400.6 431.52L396 417.25h9.27z"/><path d="M400.6 434.75l-6-18.5h12.02zm-3.25-16.5l3.26 10.03 3.27-10.03z"/><use xlink:href="#i" transform="matrix(1,0,0,1,350.9599999999999,375.3355068805872) translate(0 18.453333333333333)"/><path d="M841.5 405.17h-3v-7.48h3zm0-31.02h-3v-8.3h3z"/><path d="M841.5 365.9h-3v-1.54h3zM840 420.94l-4.64-14.27h9.28z"/><path d="M840 425.8l-6.7-20.63h13.4zm-2.57-17.63l2.57 7.9 2.57-7.9z"/><use xlink:href="#j" transform="matrix(1,0,0,1,833.4066666666668,377.095455151586) translate(0 13.840000000000002)"/><path d="M660 60h360v462H660z" stroke="#000" stroke-width="2" fill="#fff"/><use xlink:href="#b" transform="matrix(1,0,0,1,668,68) translate(172 16.162222222222223)"/><use xlink:href="#k" transform="matrix(1,0,0,1,668,68) translate(37.02222222222218 43.699999999999996)"/><use xlink:href="#l" transform="matrix(1,0,0,1,668,68) translate(132.75555555555553 43.699999999999996)"/><path d="M711.05 300c-6.95 0-12.58 5.63-12.58 12.57v37.72c0 6.93 5.63 12.56 12.58 12.56h257.9c6.95 0 12.58-5.63 12.58-12.57v-37.73c0-6.94-5.63-12.57-12.58-12.57z" stroke="#fff" stroke-width="3" fill="#dcdcdc"/><use xlink:href="#m" transform="matrix(1,0,0,1,706.474394332238,307.99999999999994) translate(43.35111111111111 30.184444444444445)"/><path d="M711.05 427.3c-6.95 0-12.58 5.62-12.58 12.56v37.7c0 6.96 5.63 12.6 12.58 12.6h257.9c6.95 0 12.58-5.64 12.58-12.6v-37.7c0-6.94-5.63-12.57-12.58-12.57z" stroke="#fff" stroke-width="3" fill="#dcdcdc"/><use xlink:href="#n" transform="matrix(1,0,0,1,706.474394332238,435.28926943824405) translate(66.24 30.184444444444445)"/><path d="M841.5 405.17h-3v-7.48h3zm0-31.02h-3v-8.3h3z"/><path d="M841.5 365.9h-3v-1.54h3zM840 420.94l-4.64-14.27h9.28z"/><path d="M840 425.8l-6.7-20.63h13.4zm-2.57-17.63l2.57 7.9 2.57-7.9z"/><use xlink:href="#o" transform="matrix(1,0,0,1,831.2088888888889,374.15323292936375) translate(0 18.453333333333333)"/><path d="M401 280.5h-2v-20.35h2zm0-43.9h-2V222h2z"/><path d="M401 222.03h-2V221h2zM400 295.76l-4.64-14.26h9.28z"/><path d="M400 299l-6-18.5h12zm-3.26-16.5l3.26 10.03 3.26-10.03z"/><use xlink:href="#p" transform="matrix(1,0,0,1,372.0622222222221,236.6120345032819) translate(0 18.453333333333333)"/><path d="M60 260.25c0-2.76 2.24-5 5-5h110c2.76 0 5 2.24 5 5v61.5c0 2.76-2.24 5-5 5H65c-2.76 0-5-2.24-5-5z" stroke="#000" stroke-opacity="0" stroke-width="2" fill="#fff" fill-opacity="0"/><use xlink:href="#q" transform="matrix(1,0,0,1,60,255.2483032226562) translate(7.01 28.076666666666668)"/><use xlink:href="#r" transform="matrix(1,0,0,1,60,255.2483032226562) translate(6.01 57.498888888888885)"/><path d="M1060 259.25c0-2.76 2.24-5 5-5h110c2.76 0 5 2.24 5 5v61.5c0 2.76-2.24 5-5 5h-110c-2.76 0-5-2.24-5-5z" stroke="#000" stroke-opacity="0" stroke-width="2" fill="#fff" fill-opacity="0"/><use xlink:href="#s" transform="matrix(1,0,0,1,1060,254.2483032226562) translate(7.01 28.076666666666668)"/><use xlink:href="#t" transform="matrix(1,0,0,1,1060,254.2483032226562) translate(12.41 28.076666666666668)"/><use xlink:href="#u" transform="matrix(1,0,0,1,1060,254.2483032226562) translate(6.01 57.498888888888885)"/><use xlink:href="#v" transform="matrix(1,0,0,1,1060,254.2483032226562) translate(11.41 57.498888888888885)"/><path d="M60 325c0-2.76 2.24-5 5-5h110c2.76 0 5 2.24 5 5v31.5c0 2.76-2.24 5-5 5H65c-2.76 0-5-2.24-5-5z" stroke="#000" stroke-opacity="0" stroke-width="2" fill="#fff" fill-opacity="0"/><use xlink:href="#w" transform="matrix(1,0,0,1,60,320) translate(6.01 28.953333333333333)"/><use xlink:href="#x" transform="matrix(1,0,0,1,60,320) translate(79.48555555555556 28.953333333333333)"/><path d="M1060 325c0-2.76 2.24-5 5-5h110c2.76 0 5 2.24 5 5v31.5c0 2.76-2.24 5-5 5h-110c-2.76 0-5-2.24-5-5z" stroke="#000" stroke-opacity="0" stroke-width="2" fill="#fff" fill-opacity="0"/><g><use xlink:href="#y" transform="matrix(1,0,0,1,1060,320) translate(7.01 28.076666666666668)"/><use xlink:href="#z" transform="matrix(1,0,0,1,1060,320) translate(12.41 28.076666666666668)"/><use xlink:href="#A" transform="matrix(1,0,0,1,1060,320) translate(85.88555555555556 28.076666666666668)"/></g><path d="M841 424.8h-2v-27.1h2zm0-50.65h-2v-8.8h2z"/><path d="M841 425.8h-2v-1.04h2zM841 365.38h-2v-1.02h2z"/><path d="M711.05 158.57c-6.95 0-12.58 5.63-12.58 12.57v37.72c0 6.94 5.63 12.57 12.58 12.57h257.9c6.95 0 12.58-5.63 12.58-12.57v-37.72c0-6.94-5.63-12.57-12.58-12.57z" stroke="#fff" stroke-width="3" fill="#dcdcdc"/><g><use xlink:href="#B" transform="matrix(1,0,0,1,706.474394332238,166.57142857142858) translate(16.13333333333331 30.184444444444445)"/><use xlink:href="#C" transform="matrix(1,0,0,1,706.474394332238,166.57142857142858) translate(49.05777777777776 30.184444444444445)"/></g><path d="M841 280h-2v-18.77h2zm0-42.3h-2v-13.77h2z"/><path d="M841 223.95h-2v-1.02h2zM840 295.26L835.36 281h9.28z"/><path d="M840 298.5l-6-18.5h12zm-3.26-16.5l3.26 10.03 3.26-10.03z"/><g><use xlink:href="#o" transform="matrix(1,0,0,1,831.2088888888889,237.6880864317657) translate(0 18.453333333333333)"/></g><defs><path d="M224-53c28 5 58 13 80 24V0H48v-29c26-12 53-20 80-24v-593c-28-6-55-15-80-25v-29h256v29c-23 10-53 20-80 25v593" id="D"/><path d="M528-512c1 103-62 164-143 190 59 93 121 182 188 268l54 29V0H506l-38-28c-69-84-120-176-167-282h-94v257c31 7 58 13 85 24V0H29v-29c27-13 52-18 82-24v-593c-32-6-57-14-82-25v-29c93 3 180-8 268-8 138 0 230 58 231 196zm-99 0c0-121-103-160-222-139v299h72c92 1 150-67 150-160" id="E"/><g id="a"><use transform="matrix(0.022222222222222223,0,0,0.022222222222222223,0,0)" xlink:href="#D"/><use transform="matrix(0.022222222222222223,0,0,0.022222222222222223,7.822222222222223,0)" xlink:href="#E"/></g><path d="M454-449c10 67 8 154 0 221h-30l-45-79H242v240c31 4 60 14 87 29V0H20v-38c21-12 45-22 72-29v-566c-28-6-51-17-72-29v-38h523c-2 64-9 128-20 183h-41l-46-118H242v263h137l45-77h30" id="F"/><path d="M23-476c59-21 132-35 210-36v133h4c29-64 72-128 158-133 19 30 36 75 32 127H290c-25 14-44 31-57 66v256c31 3 56 11 80 24V0H23v-39c22-12 41-17 66-24v-366l-66-8v-39" id="G"/><path d="M297 12C125 12 31-80 31-250c0-169 97-262 266-262 174 0 266 90 266 262 0 170-97 262-266 262zm-8-463c-96 0-103 98-103 201 0 109 17 201 125 201 90 0 97-101 97-201 0-107-15-201-119-201" id="H"/><path d="M399-512c128 0 168 80 167 210v239c27 5 49 13 66 24V0H367v-39c19-10 33-16 55-24v-235c-2-74-13-134-82-134-58 0-91 43-107 91v278c23 6 37 12 55 24V0H23v-39c17-9 39-17 66-24v-366l-66-8v-39c58-21 131-36 210-36 1 34-1 71 1 103 27-53 84-103 165-103" id="I"/><path d="M217 12C125 12 88-35 88-132v-305H8v-39c25-16 52-27 80-34v-81c37-21 86-37 144-36v127h132v63H232v259c2 70 7 110 67 110 28 0 61-3 82-12l7 33c-41 33-98 59-171 59" id="J"/><path d="M343-68c44 0 100-16 124-36l19 20c-34 61-105 96-200 96C119 12 37-84 31-250c-7-201 154-303 349-248 96 27 138 121 113 257H186c1 102 53 174 157 173zm7-225c13-100-12-185-106-155-44 26-49 86-55 155h161" id="K"/><path d="M585-28C529-7 460 9 385 10l-9-109h-4C353-37 310 12 233 12 88 12 29-85 31-242c2-167 84-263 249-267 40-1 67 5 95 16v-176l-76-8v-39c64-18 141-33 220-36v681l66 8v35zM186-247c0 90 15 179 95 179 59 0 82-38 94-97v-269c-20-12-46-20-81-18-94 5-108 95-108 205" id="L"/><g id="c"><use transform="matrix(0.022222222222222223,0,0,0.022222222222222223,0,0)" xlink:href="#F"/><use transform="matrix(0.022222222222222223,0,0,0.022222222222222223,12.777777777777779,0)" xlink:href="#G"/><use transform="matrix(0.022222222222222223,0,0,0.022222222222222223,22.355555555555554,0)" xlink:href="#H"/><use transform="matrix(0.022222222222222223,0,0,0.022222222222222223,35.55555555555556,0)" xlink:href="#I"/><use transform="matrix(0.022222222222222223,0,0,0.022222222222222223,49.86666666666667,0)" xlink:href="#J"/><use transform="matrix(0.022222222222222223,0,0,0.022222222222222223,58.733333333333334,0)" xlink:href="#K"/><use transform="matrix(0.022222222222222223,0,0,0.022222222222222223,70.66666666666667,0)" xlink:href="#I"/><use transform="matrix(0.022222222222222223,0,0,0.022222222222222223,84.97777777777779,0)" xlink:href="#L"/></g><path d="M190-243c1 196 71 323 170 420l-33 33C178 120 50-2 50-243c0-240 134-361 280-459l30 31c-99 104-171 224-170 428" id="M"/><path d="M416-38c23-11 55-24 83-29l-58-159H219L160-67c31 4 60 14 87 29V0H0v-38c20-12 46-23 71-29l258-645h74L654-67c27 5 56 16 75 29V0H416v-38zM243-291h177c-29-91-66-175-84-277h-2c-21 102-59 186-91 277" id="N"/><path d="M475-353c0 99-10 184-2 280l69 10v35C488-8 424 11 349 10c-14-32-13-57-15-102h-5C310-30 262 12 182 12 91 12 27-36 27-127c0-153 154-149 304-162 6-96 9-166-72-166-21 0-40 3-57 10l-47 120h-44c-22-35-40-80-47-131 50-35 139-56 225-56 119 0 186 44 186 159zM177-148c0 47 23 80 68 80 50 0 75-34 86-74v-100c-86 2-154 7-154 94" id="O"/><path d="M21-716c60-22 139-35 220-36v689c22 5 44 13 66 24V0H31v-39c22-11 44-19 66-24v-606l-76-8v-39" id="P"/><path d="M219 78c16-26 20-41 31-78L38-437c-21-6-36-14-53-24v-39h263v38c-14 9-33 18-57 25 39 106 89 200 118 315h2c26-110 63-210 94-315-20-4-38-12-55-24v-39h193v39c-14 9-33 17-57 24L323 0c-36 90-67 163-144 202-15 8-32 11-48 13-26-26-42-67-47-113l13-24h122" id="Q"/><path d="M161-56c48 28 134 3 127-53-12-91-127-97-184-149-32-29-65-62-65-122 3-157 243-150 364-100-5 44-26 98-39 135h-34l-42-102c-48-20-123-5-115 49 14 88 127 96 185 146 32 27 64 60 64 116C422 36 155 36 29-26c2-51 29-104 49-139h34" id="R"/><path d="M231 137c26 4 45 11 66 24v39H21v-39c23-11 45-19 66-24v-566l-66-8v-39c59-21 132-35 210-36 1 37-1 77 1 112 24-62 67-114 155-112 143 3 191 104 191 251 0 169-85 273-252 273-47 0-64-5-95-20v145zm192-398c0-93-11-171-94-171-56 0-87 42-98 98v266c23 16 42 23 81 23 95 0 111-101 111-216" id="S"/><path d="M562-63c24 6 48 11 66 24V0H363v-39c17-10 33-18 55-24v-202c-4-95-1-162-81-167-56-3-94 48-108 91v278c23 6 37 11 55 24V0H19v-39c21-11 43-19 66-24v-606l-76-8v-39c62-21 138-35 220-36 1 117-1 237 1 353 30-60 79-110 165-113 130-4 167 79 167 210v239" id="T"/><path d="M45-702c150 91 280 213 280 449 0 242-121 374-277 463l-33-33C115 78 182-56 184-253c2-201-69-318-169-418" id="U"/><g id="d"><use transform="matrix(0.022222222222222223,0,0,0.022222222222222223,0,0)" xlink:href="#M"/><use transform="matrix(0.022222222222222223,0,0,0.022222222222222223,8.333333333333334,0)" xlink:href="#N"/><use transform="matrix(0.022222222222222223,0,0,0.022222222222222223,24.533333333333328,0)" xlink:href="#I"/><use transform="matrix(0.022222222222222223,0,0,0.022222222222222223,38.84444444444444,0)" xlink:href="#O"/><use transform="matrix(0.022222222222222223,0,0,0.022222222222222223,51.22222222222222,0)" xlink:href="#P"/><use transform="matrix(0.022222222222222223,0,0,0.022222222222222223,58.6,0)" xlink:href="#Q"/><use transform="matrix(0.022222222222222223,0,0,0.022222222222222223,70.33333333333334,0)" xlink:href="#R"/><use transform="matrix(0.022222222222222223,0,0,0.022222222222222223,80.3777777777778,0)" xlink:href="#K"/><use transform="matrix(0.022222222222222223,0,0,0.022222222222222223,92.31111111111113,0)" xlink:href="#S"/><use transform="matrix(0.022222222222222223,0,0,0.022222222222222223,105.84444444444446,0)" xlink:href="#T"/><use transform="matrix(0.022222222222222223,0,0,0.022222222222222223,120.06666666666669,0)" xlink:href="#O"/><use transform="matrix(0.022222222222222223,0,0,0.022222222222222223,132.44444444444446,0)" xlink:href="#R"/><use transform="matrix(0.022222222222222223,0,0,0.022222222222222223,142.4888888888889,0)" xlink:href="#K"/><use transform="matrix(0.022222222222222223,0,0,0.022222222222222223,154.42222222222225,0)" xlink:href="#U"/></g><path d="M111-646c-30-5-59-14-82-25v-29h274v29c-30 11-61 21-96 25v594h230l59-161h26c9 63 13 142 10 213H29v-29c27-13 51-19 82-24v-593" id="V"/><path d="M307-50c44 0 103-15 125-36l14 16c-29 50-88 82-165 82C119 12 43-88 41-250c-2-160 74-260 226-262 146-2 212 109 182 262H137c3 118 52 197 170 200zm53-244c9-89-12-177-97-174-96 4-114 65-123 174h220" id="W"/><path d="M217-475c-16 10-29 19-49 25l104 150 102-150c-23-7-39-15-50-24v-26h167v26c-13 9-31 17-56 24L298-268 456-49c19 7 37 13 53 24V0H304v-24c17-9 32-19 50-25L243-213 131-49c19 7 34 15 50 24V0H10v-25c19-11 37-19 56-24l149-199L65-450c-19-7-33-13-49-24v-26h201v25" id="X"/><path d="M197-49c26 7 46 13 66 24V0H41v-25c21-11 41-17 66-24v-393l-66-8v-26c46-16 95-35 156-36v463zm-45-563c-37 0-64-22-64-58s27-59 64-59 63 23 63 59-26 58-63 58" id="Y"/><path d="M14-716c45-18 106-33 166-36v478h26c49-55 100-116 143-176-17-5-33-13-49-24v-26h193v26c-24 10-48 18-76 24-43 56-96 115-144 165 58 77 123 163 187 236l56 24V0H392c-78-73-123-157-179-238l-33-10v199c22 4 44 12 65 24V0H24v-25c22-11 44-19 66-24v-633l-76-8v-26" id="Z"/><path d="M415-353c0 100-10 198-2 294l69 10v21c-39 18-83 39-139 38-14-31-13-67-15-111h-5C306-35 258 4 177 12 35 25-13-191 112-244c57-24 129-30 212-36 11-104 1-206-116-186-12 1-24 3-35 8l-47 120h-26c-12-37-24-81-27-125 50-30 110-49 188-49 108 0 154 55 154 159zM135-140c-1 55 30 91 82 90 61-1 91-43 108-87v-105c-102 2-189 4-190 102" id="aa"/><path d="M31-716c44-18 106-35 166-36v703c22 5 44 13 66 24V0H41v-25c22-11 44-19 66-24v-633l-76-8v-26" id="ab"/><path d="M142-42c84 43 202-40 136-120S56-246 56-387c0-137 194-144 310-102-6 47-12 89-25 131h-25l-38-102c-60-22-139-1-132 64 10 92 120 101 177 151 31 27 62 56 62 110C386 21 171 37 46-17c3-50 13-94 27-134h25" id="ac"/><path d="M309-50c45 2 80-15 105-34l13 14c-23 46-82 83-153 82C113 10 44-90 41-250c-3-159 81-261 231-262 61 0 114 11 153 31-4 43-16 110-31 142h-27l-42-119c-13-8-21-10-46-10-112 0-142 83-142 217 0 116 56 197 172 201" id="ad"/><path d="M504-49c24 6 48 11 66 24V0H354v-25c16-9 36-17 60-24v-234c-2-92-15-167-102-167-74 0-112 51-132 109v292c23 6 42 11 59 24V0H24v-25c21-11 43-19 66-24v-633l-76-8v-26c46-17 105-35 166-36 1 117-1 237 1 353 26-56 76-113 156-113 130 0 167 79 167 210v253" id="ae"/><g id="e"><use transform="matrix(0.017777777777777778,0,0,0.017777777777777778,0,0)" xlink:href="#V"/><use transform="matrix(0.017777777777777778,0,0,0.017777777777777778,9.76,0)" xlink:href="#W"/><use transform="matrix(0.017777777777777778,0,0,0.017777777777777778,18.38222222222222,0)" xlink:href="#X"/><use transform="matrix(0.017777777777777778,0,0,0.017777777777777778,27.608888888888888,0)" xlink:href="#Y"/><use transform="matrix(0.017777777777777778,0,0,0.017777777777777778,32.96,0)" xlink:href="#Z"/><use transform="matrix(0.017777777777777778,0,0,0.017777777777777778,42.13333333333333,0)" xlink:href="#aa"/><use transform="matrix(0.017777777777777778,0,0,0.017777777777777778,51.111111111111114,0)" xlink:href="#ab"/><use transform="matrix(0.017777777777777778,0,0,0.017777777777777778,56.46222222222222,0)" xlink:href="#Y"/><use transform="matrix(0.017777777777777778,0,0,0.017777777777777778,61.81333333333333,0)" xlink:href="#ac"/><use transform="matrix(0.017777777777777778,0,0,0.017777777777777778,69.5111111111111,0)" xlink:href="#ad"/><use transform="matrix(0.017777777777777778,0,0,0.017777777777777778,77.79555555555555,0)" xlink:href="#ae"/><use transform="matrix(0.017777777777777778,0,0,0.017777777777777778,88.2311111111111,0)" xlink:href="#W"/></g><path d="M427-29c25-10 54-18 82-24l-68-183H202L136-53c28 4 57 12 86 24V0H0v-29c24-11 48-19 72-24l253-659h29L607-53c28 6 55 11 76 24V0H427v-29zM222-288h202c-33-99-79-185-98-298h-2c-27 106-67 199-102 298" id="af"/><path d="M344-512c130 0 167 79 167 210v253c27 5 49 13 66 24V0H362v-25c18-9 38-17 59-24v-237c-2-90-16-164-102-164-75 0-110 52-132 109v292c21 4 41 12 60 24V0H31v-25c17-9 39-17 66-24v-393l-66-8v-26c45-16 95-35 156-36 1 37-1 77 1 112 26-55 77-112 156-112" id="ag"/><path d="M205 105c22-29 32-63 45-105L42-450c-21-6-36-14-53-24v-26h209v25c-14 9-33 18-57 25 48 120 107 229 147 358h2c30-126 74-238 110-358-20-4-38-12-55-24v-26h171v26c-14 9-33 17-57 24-67 182-120 386-201 554-29 60-65 97-136 111-14-24-26-57-34-86l13-24h104" id="ah"/><g id="f"><use transform="matrix(0.017777777777777778,0,0,0.017777777777777778,0,0)" xlink:href="#af"/><use transform="matrix(0.017777777777777778,0,0,0.017777777777777778,12.142222222222221,0)" xlink:href="#ag"/><use transform="matrix(0.017777777777777778,0,0,0.017777777777777778,22.702222222222222,0)" xlink:href="#aa"/><use transform="matrix(0.017777777777777778,0,0,0.017777777777777778,31.68,0)" xlink:href="#ab"/><use transform="matrix(0.017777777777777778,0,0,0.017777777777777778,37.03111111111111,0)" xlink:href="#ah"/><use transform="matrix(0.017777777777777778,0,0,0.017777777777777778,46.00888888888889,0)" xlink:href="#ac"/><use transform="matrix(0.017777777777777778,0,0,0.017777777777777778,53.70666666666666,0)" xlink:href="#W"/></g><path d="M58-35c4-61 13-127 25-181h26l41 147c21 19 43 30 88 29 88-3 153-41 153-127 0-131-166-134-245-203-44-38-87-82-85-163 3-122 85-176 208-179 71-2 146 12 191 33-2 60-13 121-24 172h-26l-40-137c-25-11-66-16-104-16-67-1-119 41-113 108 11 132 164 141 245 209 44 37 88 78 86 156C480-49 385 9 242 12 172 14 94-8 58-35" id="ai"/><path d="M218 12C131 12 94-38 95-132v-318H15v-26c25-16 52-27 80-34v-85c25-16 47-38 90-36v131h150v50H185v290c0 70 16 110 76 110 27 0 71-3 91-12l7 15c-33 31-79 59-141 59" id="aj"/><g id="g"><use transform="matrix(0.017777777777777778,0,0,0.017777777777777778,0,0)" xlink:href="#ai"/><use transform="matrix(0.017777777777777778,0,0,0.017777777777777778,9.528888888888888,0)" xlink:href="#ah"/><use transform="matrix(0.017777777777777778,0,0,0.017777777777777778,18.506666666666668,0)" xlink:href="#ag"/><use transform="matrix(0.017777777777777778,0,0,0.017777777777777778,29.06666666666667,0)" xlink:href="#aj"/><use transform="matrix(0.017777777777777778,0,0,0.017777777777777778,35.662222222222226,0)" xlink:href="#aa"/><use transform="matrix(0.017777777777777778,0,0,0.017777777777777778,44.64,0)" xlink:href="#Z"/><use transform="matrix(0.017777777777777778,0,0,0.017777777777777778,53.81333333333333,0)" xlink:href="#aj"/><use transform="matrix(0.017777777777777778,0,0,0.017777777777777778,60.40888888888889,0)" xlink:href="#Y"/><use transform="matrix(0.017777777777777778,0,0,0.017777777777777778,65.76,0)" xlink:href="#ac"/><use transform="matrix(0.017777777777777778,0,0,0.017777777777777778,73.45777777777778,0)" xlink:href="#ad"/><use transform="matrix(0.017777777777777778,0,0,0.017777777777777778,81.74222222222222,0)" xlink:href="#ae"/><use transform="matrix(0.017777777777777778,0,0,0.017777777777777778,92.17777777777778,0)" xlink:href="#W"/></g><path d="M596-450c-71 0-97 57-113 117v284c23 7 45 15 65 24V0H334v-25c16-10 36-19 59-24v-231c-2-88-4-170-91-170-68 0-97 53-115 107v294c22 7 41 13 59 24V0H31v-25c19-10 43-18 66-24v-393l-66-8v-26c47-18 93-35 156-36 1 37-1 77 1 113 20-58 72-113 150-113 87 0 127 45 138 123 22-67 72-123 158-123 124 0 145 87 145 212v251c23 4 45 12 66 24V0H630v-25c20-11 40-19 59-24v-249c0-83-9-153-93-152" id="ak"/><g id="h"><use transform="matrix(0.017777777777777778,0,0,0.017777777777777778,0,0)" xlink:href="#ai"/><use transform="matrix(0.017777777777777778,0,0,0.017777777777777778,9.528888888888888,0)" xlink:href="#W"/><use transform="matrix(0.017777777777777778,0,0,0.017777777777777778,18.47111111111111,0)" xlink:href="#ak"/><use transform="matrix(0.017777777777777778,0,0,0.017777777777777778,33.81333333333333,0)" xlink:href="#aa"/><use transform="matrix(0.017777777777777778,0,0,0.017777777777777778,42.7911111111111,0)" xlink:href="#ag"/><use transform="matrix(0.017777777777777778,0,0,0.017777777777777778,53.35111111111111,0)" xlink:href="#aj"/><use transform="matrix(0.017777777777777778,0,0,0.017777777777777778,59.946666666666665,0)" xlink:href="#Y"/><use transform="matrix(0.017777777777777778,0,0,0.017777777777777778,65.29777777777778,0)" xlink:href="#ac"/><use transform="matrix(0.017777777777777778,0,0,0.017777777777777778,72.99555555555555,0)" xlink:href="#ad"/><use transform="matrix(0.017777777777777778,0,0,0.017777777777777778,81.28,0)" xlink:href="#ae"/><use transform="matrix(0.017777777777777778,0,0,0.017777777777777778,91.71555555555555,0)" xlink:href="#W"/></g><path d="M246 9C181 8 119-5 77-29v-653l-76-8v-26c47-17 105-33 166-36 1 116-3 238 2 351 18-60 74-111 147-111 138 0 188 100 188 253C504-87 415 10 246 9zm162-268c-2-99-23-191-119-191-71 0-105 57-122 115v279c24 13 61 22 99 21 105-4 144-101 142-224" id="al"/><path d="M242 12C22 26 86-252 83-442l-66-8v-26c49-16 94-35 156-36 1 99-7 198-6 296 0 91 13 166 103 166 70 0 103-59 123-117v-275l-65-8v-26c48-16 94-35 155-36v455l66 8v21c-45 17-84 39-145 38l-7-119h-4C373-42 325 7 242 12" id="am"/><g id="i"><use transform="matrix(0.017777777777777778,0,0,0.017777777777777778,0,0)" xlink:href="#ai"/><use transform="matrix(0.017777777777777778,0,0,0.017777777777777778,9.528888888888888,0)" xlink:href="#ah"/><use transform="matrix(0.017777777777777778,0,0,0.017777777777777778,18.506666666666668,0)" xlink:href="#ag"/><use transform="matrix(0.017777777777777778,0,0,0.017777777777777778,29.06666666666667,0)" xlink:href="#aj"/><use transform="matrix(0.017777777777777778,0,0,0.017777777777777778,35.662222222222226,0)" xlink:href="#aa"/><use transform="matrix(0.017777777777777778,0,0,0.017777777777777778,44.64,0)" xlink:href="#X"/><use transform="matrix(0.017777777777777778,0,0,0.017777777777777778,53.86666666666667,0)" xlink:href="#al"/><use transform="matrix(0.017777777777777778,0,0,0.017777777777777778,63.55555555555556,0)" xlink:href="#aa"/><use transform="matrix(0.017777777777777778,0,0,0.017777777777777778,72.53333333333333,0)" xlink:href="#am"/><use transform="matrix(0.017777777777777778,0,0,0.017777777777777778,82.73777777777778,0)" xlink:href="#ak"/></g><g id="j"><use transform="matrix(0.013333333333333334,0,0,0.013333333333333334,0,0)" xlink:href="#D"/><use transform="matrix(0.013333333333333334,0,0,0.013333333333333334,4.693333333333333,0)" xlink:href="#E"/></g><path d="M181-700c176-10 403-27 400 160-2 97-67 144-151 163v4c101 14 182 61 182 174C612 16 363 16 139 0H20v-38c22-13 52-26 82-29v-566c-28-6-60-16-82-29v-38h161zm65 634c110 29 211-18 211-130 0-116-91-133-211-127v257zm185-453c6-105-83-136-185-118v249c115 13 179-36 185-131" id="an"/><path d="M335-68c45 1 80-15 105-34l16 21c-26 59-88 93-172 93C114 12 36-82 31-250c-6-201 154-297 357-252 28 6 50 16 68 25-7 53-18 109-36 151h-49l-42-119c-11-8-19-10-39-10-97 3-104 95-104 197 0 109 42 186 149 190" id="ao"/><path d="M367-437c-18-6-31-14-45-24v-39h234v39c-25 10-43 18-72 24-38 51-87 96-130 141 56 76 114 163 178 233l51 24V0H414c-69-61-104-150-152-229l-33-10v176c25 5 41 13 61 24V0H19v-39c22-11 44-19 66-24v-606l-76-8v-39c61-21 140-35 220-36v469h26c41-42 81-105 112-154" id="ap"/><g id="k"><use transform="matrix(0.022222222222222223,0,0,0.022222222222222223,0,0)" xlink:href="#an"/><use transform="matrix(0.022222222222222223,0,0,0.022222222222222223,14.422222222222222,0)" xlink:href="#O"/><use transform="matrix(0.022222222222222223,0,0,0.022222222222222223,26.8,0)" xlink:href="#ao"/><use transform="matrix(0.022222222222222223,0,0,0.022222222222222223,37.55555555555556,0)" xlink:href="#ap"/><use transform="matrix(0.022222222222222223,0,0,0.022222222222222223,50.17777777777778,0)" xlink:href="#K"/><use transform="matrix(0.022222222222222223,0,0,0.022222222222222223,62.111111111111114,0)" xlink:href="#I"/><use transform="matrix(0.022222222222222223,0,0,0.022222222222222223,76.42222222222223,0)" xlink:href="#L"/></g><path d="M42-35c5-68 18-137 33-195h41l41 147c61 61 222 26 212-78-9-91-96-111-160-149-77-45-160-92-160-211 0-136 98-191 235-191 81 0 152 11 208 35-3 63-14 130-27 183h-41l-46-137c-68-32-194-19-184 70 14 126 164 136 241 206 42 38 85 80 84 158C517-51 412 13 253 12 172 10 93-4 42-35" id="aq"/><g id="l"><use transform="matrix(0.022222222222222223,0,0,0.022222222222222223,0,0)" xlink:href="#M"/><use transform="matrix(0.022222222222222223,0,0,0.022222222222222223,8.333333333333334,0)" xlink:href="#aq"/><use transform="matrix(0.022222222222222223,0,0,0.022222222222222223,20.733333333333334,0)" xlink:href="#Q"/><use transform="matrix(0.022222222222222223,0,0,0.022222222222222223,32.46666666666667,0)" xlink:href="#I"/><use transform="matrix(0.022222222222222223,0,0,0.022222222222222223,46.77777777777778,0)" xlink:href="#J"/><use transform="matrix(0.022222222222222223,0,0,0.022222222222222223,55.644444444444446,0)" xlink:href="#T"/><use transform="matrix(0.022222222222222223,0,0,0.022222222222222223,69.86666666666667,0)" xlink:href="#K"/><use transform="matrix(0.022222222222222223,0,0,0.022222222222222223,81.80000000000001,0)" xlink:href="#R"/><use transform="matrix(0.022222222222222223,0,0,0.022222222222222223,91.84444444444446,0)" xlink:href="#K"/><use transform="matrix(0.022222222222222223,0,0,0.022222222222222223,103.7777777777778,0)" xlink:href="#S"/><use transform="matrix(0.022222222222222223,0,0,0.022222222222222223,117.31111111111113,0)" xlink:href="#T"/><use transform="matrix(0.022222222222222223,0,0,0.022222222222222223,131.53333333333336,0)" xlink:href="#O"/><use transform="matrix(0.022222222222222223,0,0,0.022222222222222223,143.91111111111113,0)" xlink:href="#R"/><use transform="matrix(0.022222222222222223,0,0,0.022222222222222223,153.95555555555558,0)" xlink:href="#K"/><use transform="matrix(0.022222222222222223,0,0,0.022222222222222223,165.8888888888889,0)" xlink:href="#U"/></g><path d="M557-492c0 181-161 237-350 218v221c36 4 68 13 96 24V0H29v-29c24-13 53-18 82-24v-593c-31-5-56-14-82-25v-29c93 3 179-8 267-8 153 0 261 61 261 216zm-107 0c0-134-109-182-243-159v324c139 23 243-29 243-165" id="ar"/><path d="M31-476c47-18 94-35 156-36v106h4c30-56 78-109 163-106 11 25 25 48 23 87H244c-24 16-45 42-57 79v297c31 3 56 11 80 24V0H31v-25c22-12 41-17 66-24v-393l-66-8v-26" id="as"/><path d="M276 12C114 12 41-89 41-250s78-262 235-262c164 0 234 99 236 262 2 158-86 262-236 262zm-8-480c-100 0-133 95-131 218 2 121 37 218 156 218 94 0 125-98 123-218-2-118-34-218-148-218" id="at"/><path d="M48-351c0-111 82-161 199-161 69 0 117 12 153 43 39-27 80-46 123-58 15 20 21 63 2 81H420c17 24 25 56 25 95 1 125-117 180-256 158-16 20-31 59 5 75C298-72 485-85 485 58c0 118-112 151-235 154-119 3-220-35-220-130C30-3 93-25 158-48c-26-12-51-34-51-70 0-34 38-67 59-81-68-16-118-74-118-152zm220 519c72-1 127-18 127-87 0-97-134-90-213-120-41 25-62 49-62 101 0 79 62 107 148 106zm-21-636c-80 0-109 40-109 117 0 74 34 117 109 118s108-49 108-118c0-74-31-117-108-117" id="au"/><path d="M187 151c26 4 45 11 66 24v25H31v-25c23-11 45-19 66-24v-593l-66-8v-26c47-18 93-35 156-36 1 37-1 77 1 112 25-62 66-112 150-112 138 0 189 94 187 251-2 163-75 273-234 273-51 0-68-5-104-20v159zm242-412c0-102-23-189-123-189-73 0-104 52-119 116v280c27 16 54 25 99 22 110-7 143-111 143-229" id="av"/><g id="m"><use transform="matrix(0.017777777777777778,0,0,0.017777777777777778,0,0)" xlink:href="#ar"/><use transform="matrix(0.017777777777777778,0,0,0.017777777777777778,10.57777777777778,0)" xlink:href="#as"/><use transform="matrix(0.017777777777777778,0,0,0.017777777777777778,17.404444444444444,0)" xlink:href="#at"/><use transform="matrix(0.017777777777777778,0,0,0.017777777777777778,27.235555555555557,0)" xlink:href="#au"/><use transform="matrix(0.017777777777777778,0,0,0.017777777777777778,36.586666666666666,0)" xlink:href="#as"/><use transform="matrix(0.017777777777777778,0,0,0.017777777777777778,43.413333333333334,0)" xlink:href="#aa"/><use transform="matrix(0.017777777777777778,0,0,0.017777777777777778,52.39111111111112,0)" xlink:href="#ak"/><use transform="matrix(0.017777777777777778,0,0,0.017777777777777778,67.73333333333333,0)" xlink:href="#ak"/><use transform="matrix(0.017777777777777778,0,0,0.017777777777777778,83.07555555555555,0)" xlink:href="#at"/><use transform="matrix(0.017777777777777778,0,0,0.017777777777777778,92.90666666666667,0)" xlink:href="#av"/><use transform="matrix(0.017777777777777778,0,0,0.017777777777777778,102.77333333333333,0)" xlink:href="#aj"/><use transform="matrix(0.017777777777777778,0,0,0.017777777777777778,109.36888888888888,0)" xlink:href="#Y"/><use transform="matrix(0.017777777777777778,0,0,0.017777777777777778,114.71999999999998,0)" xlink:href="#ak"/><use transform="matrix(0.017777777777777778,0,0,0.017777777777777778,130.0622222222222,0)" xlink:href="#Y"/><use transform="matrix(0.017777777777777778,0,0,0.017777777777777778,135.41333333333333,0)" xlink:href="#W"/><use transform="matrix(0.017777777777777778,0,0,0.017777777777777778,144.35555555555555,0)" xlink:href="#as"/><use transform="matrix(0.017777777777777778,0,0,0.017777777777777778,151.1822222222222,0)" xlink:href="#am"/><use transform="matrix(0.017777777777777778,0,0,0.017777777777777778,161.38666666666666,0)" xlink:href="#ag"/><use transform="matrix(0.017777777777777778,0,0,0.017777777777777778,171.94666666666666,0)" xlink:href="#au"/></g><path d="M152-350c0 202 106 334 319 305 15-2 24-8 29-13l47-124h26c7 39 14 105 11 153-41 30-106 41-175 41C172 12 53-111 53-350c0-229 114-357 335-362 82-2 138 9 190 34 0 59-7 120-15 172h-26l-52-144c-17-9-60-10-87-10-172 0-246 130-246 310" id="aw"/><path d="M532-28c-43 19-86 39-146 38l-9-109h-4C355-37 314 12 238 12 91 12 43-86 41-247c-2-159 81-261 231-262 50 0 68 3 104 16v-189l-76-8v-26c46-17 105-35 166-36v695l66 8v21zM137-247c2 101 24 197 121 197 72 0 104-52 118-115v-282c-27-15-55-18-99-18-103 0-142 104-140 218" id="ax"/><g id="n"><use transform="matrix(0.017777777777777778,0,0,0.017777777777777778,0,0)" xlink:href="#aw"/><use transform="matrix(0.017777777777777778,0,0,0.017777777777777778,11.022222222222222,0)" xlink:href="#at"/><use transform="matrix(0.017777777777777778,0,0,0.017777777777777778,20.85333333333333,0)" xlink:href="#ax"/><use transform="matrix(0.017777777777777778,0,0,0.017777777777777778,30.72,0)" xlink:href="#W"/><use transform="matrix(0.017777777777777778,0,0,0.017777777777777778,39.66222222222222,0)" xlink:href="#au"/><use transform="matrix(0.017777777777777778,0,0,0.017777777777777778,49.01333333333333,0)" xlink:href="#W"/><use transform="matrix(0.017777777777777778,0,0,0.017777777777777778,57.95555555555555,0)" xlink:href="#ag"/><use transform="matrix(0.017777777777777778,0,0,0.017777777777777778,68.51555555555555,0)" xlink:href="#W"/><use transform="matrix(0.017777777777777778,0,0,0.017777777777777778,77.45777777777778,0)" xlink:href="#as"/><use transform="matrix(0.017777777777777778,0,0,0.017777777777777778,84.28444444444445,0)" xlink:href="#Y"/><use transform="matrix(0.017777777777777778,0,0,0.017777777777777778,89.63555555555556,0)" xlink:href="#W"/><use transform="matrix(0.017777777777777778,0,0,0.017777777777777778,98.57777777777778,0)" xlink:href="#as"/><use transform="matrix(0.017777777777777778,0,0,0.017777777777777778,105.40444444444445,0)" xlink:href="#am"/><use transform="matrix(0.017777777777777778,0,0,0.017777777777777778,115.6088888888889,0)" xlink:href="#ag"/><use transform="matrix(0.017777777777777778,0,0,0.017777777777777778,126.1688888888889,0)" xlink:href="#au"/></g><g id="o"><use transform="matrix(0.017777777777777778,0,0,0.017777777777777778,0,0)" xlink:href="#D"/><use transform="matrix(0.017777777777777778,0,0,0.017777777777777778,6.257777777777778,0)" xlink:href="#E"/></g><path d="M358-53c34 7 63 11 92 24V0H169v-29c30-11 58-19 93-24v-595H109L56-505H31c-8-59-11-130-12-195h581c-1 65-4 135-11 195h-26l-52-143H358v595" id="ay"/><g id="p"><use transform="matrix(0.017777777777777778,0,0,0.017777777777777778,0,0)" xlink:href="#ay"/><use transform="matrix(0.017777777777777778,0,0,0.017777777777777778,9.884444444444444,0)" xlink:href="#at"/><use transform="matrix(0.017777777777777778,0,0,0.017777777777777778,19.715555555555557,0)" xlink:href="#Z"/><use transform="matrix(0.017777777777777778,0,0,0.017777777777777778,28.675555555555555,0)" xlink:href="#W"/><use transform="matrix(0.017777777777777778,0,0,0.017777777777777778,37.617777777777775,0)" xlink:href="#ag"/><use transform="matrix(0.017777777777777778,0,0,0.017777777777777778,48.17777777777778,0)" xlink:href="#ac"/></g><path d="M111-646c-28-6-57-15-82-25v-29h474c-2 56-4 110-11 162h-26l-41-110H207v265h163l39-74h25c4 66 4 133 0 202h-25l-39-76H207v279h230l49-120h25c9 53 14 110 11 172H29v-29c23-11 51-19 82-24v-593" id="az"/><path d="M71-313h282v63H71v-63" id="aA"/><g id="q"><use transform="matrix(0.022222222222222223,0,0,0.022222222222222223,0,0)" xlink:href="#az"/><use transform="matrix(0.022222222222222223,0,0,0.022222222222222223,12.933333333333334,0)" xlink:href="#Y"/><use transform="matrix(0.022222222222222223,0,0,0.022222222222222223,19.622222222222224,0)" xlink:href="#ag"/><use transform="matrix(0.022222222222222223,0,0,0.022222222222222223,32.82222222222222,0)" xlink:href="#au"/><use transform="matrix(0.022222222222222223,0,0,0.022222222222222223,44.51111111111111,0)" xlink:href="#aa"/><use transform="matrix(0.022222222222222223,0,0,0.022222222222222223,55.733333333333334,0)" xlink:href="#al"/><use transform="matrix(0.022222222222222223,0,0,0.022222222222222223,67.84444444444445,0)" xlink:href="#W"/><use transform="matrix(0.022222222222222223,0,0,0.022222222222222223,79.02222222222223,0)" xlink:href="#aA"/></g><path d="M203 46c204-19 351 121 552 55l5 14c-59 58-148 111-258 71-108-39-209-91-329-120zm167-34C157 12 53-135 53-350s104-362 317-362 317 147 317 362S583 12 370 12zm-8-672c-160 0-202 145-202 310 0 168 55 310 219 310 156 0 201-148 201-310 0-168-54-310-218-310" id="aB"/><g id="r"><use transform="matrix(0.022222222222222223,0,0,0.022222222222222223,0,0)" xlink:href="#aB"/><use transform="matrix(0.022222222222222223,0,0,0.022222222222222223,16.444444444444446,0)" xlink:href="#am"/><use transform="matrix(0.022222222222222223,0,0,0.022222222222222223,29.200000000000003,0)" xlink:href="#W"/><use transform="matrix(0.022222222222222223,0,0,0.022222222222222223,40.37777777777778,0)" xlink:href="#ab"/><use transform="matrix(0.022222222222222223,0,0,0.022222222222222223,47.06666666666667,0)" xlink:href="#ab"/><use transform="matrix(0.022222222222222223,0,0,0.022222222222222223,53.75555555555556,0)" xlink:href="#aj"/><use transform="matrix(0.022222222222222223,0,0,0.022222222222222223,62,0)" xlink:href="#W"/><use transform="matrix(0.022222222222222223,0,0,0.022222222222222223,72.77777777777779,0)" xlink:href="#X"/><use transform="matrix(0.022222222222222223,0,0,0.022222222222222223,84.31111111111112,0)" xlink:href="#aj"/></g><g id="t"><use transform="matrix(0.022222222222222223,0,0,0.022222222222222223,0,0)" xlink:href="#af"/><use transform="matrix(0.022222222222222223,0,0,0.022222222222222223,15.177777777777779,0)" xlink:href="#am"/><use transform="matrix(0.022222222222222223,0,0,0.022222222222222223,27.93333333333334,0)" xlink:href="#ac"/><use transform="matrix(0.022222222222222223,0,0,0.022222222222222223,37.55555555555556,0)" xlink:href="#au"/><use transform="matrix(0.022222222222222223,0,0,0.022222222222222223,49.24444444444445,0)" xlink:href="#aa"/><use transform="matrix(0.022222222222222223,0,0,0.022222222222222223,60.46666666666667,0)" xlink:href="#al"/><use transform="matrix(0.022222222222222223,0,0,0.022222222222222223,72.57777777777778,0)" xlink:href="#W"/><use transform="matrix(0.022222222222222223,0,0,0.022222222222222223,83.75555555555556,0)" xlink:href="#aA"/></g><g id="v"><use transform="matrix(0.022222222222222223,0,0,0.022222222222222223,0,0)" xlink:href="#aB"/><use transform="matrix(0.022222222222222223,0,0,0.022222222222222223,16.444444444444446,0)" xlink:href="#am"/><use transform="matrix(0.022222222222222223,0,0,0.022222222222222223,29.200000000000003,0)" xlink:href="#W"/><use transform="matrix(0.022222222222222223,0,0,0.022222222222222223,40.37777777777778,0)" xlink:href="#ab"/><use transform="matrix(0.022222222222222223,0,0,0.022222222222222223,47.06666666666667,0)" xlink:href="#ab"/><use transform="matrix(0.022222222222222223,0,0,0.022222222222222223,53.75555555555556,0)" xlink:href="#aj"/><use transform="matrix(0.022222222222222223,0,0,0.022222222222222223,62,0)" xlink:href="#W"/><use transform="matrix(0.022222222222222223,0,0,0.022222222222222223,72.77777777777779,0)" xlink:href="#X"/><use transform="matrix(0.022222222222222223,0,0,0.022222222222222223,84.31111111111112,0)" xlink:href="#aj"/></g><path d="M145-243c1 202 77 332 179 433l-24 20C167 112 59-14 59-243c0-232 117-351 244-459l21 18C223-577 144-452 145-243" id="aC"/><g id="w"><use transform="matrix(0.017777777777777778,0,0,0.017777777777777778,0,0)" xlink:href="#aC"/><use transform="matrix(0.017777777777777778,0,0,0.017777777777777778,6.097777777777778,0)" xlink:href="#ai"/><use transform="matrix(0.017777777777777778,0,0,0.017777777777777778,15.626666666666665,0)" xlink:href="#av"/><use transform="matrix(0.017777777777777778,0,0,0.017777777777777778,25.68888888888889,0)" xlink:href="#as"/><use transform="matrix(0.017777777777777778,0,0,0.017777777777777778,32.51555555555556,0)" xlink:href="#aa"/><use transform="matrix(0.017777777777777778,0,0,0.017777777777777778,41.49333333333334,0)" xlink:href="#ad"/><use transform="matrix(0.017777777777777778,0,0,0.017777777777777778,49.777777777777786,0)" xlink:href="#ae"/><use transform="matrix(0.017777777777777778,0,0,0.017777777777777778,60.21333333333334,0)" xlink:href="#W"/></g><path d="M40-702c130 101 244 220 244 449 0 231-106 364-241 463l-24-20C122 88 196-50 197-253c1-206-77-326-178-431" id="aD"/><g id="x"><use transform="matrix(0.017777777777777778,0,0,0.017777777777777778,0,0)" xlink:href="#af"/><use transform="matrix(0.017777777777777778,0,0,0.017777777777777778,12.142222222222221,0)" xlink:href="#aD"/></g><g id="z"><use transform="matrix(0.017777777777777778,0,0,0.017777777777777778,0,0)" xlink:href="#aC"/><use transform="matrix(0.017777777777777778,0,0,0.017777777777777778,6.097777777777778,0)" xlink:href="#ai"/><use transform="matrix(0.017777777777777778,0,0,0.017777777777777778,15.626666666666665,0)" xlink:href="#av"/><use transform="matrix(0.017777777777777778,0,0,0.017777777777777778,25.68888888888889,0)" xlink:href="#as"/><use transform="matrix(0.017777777777777778,0,0,0.017777777777777778,32.51555555555556,0)" xlink:href="#aa"/><use transform="matrix(0.017777777777777778,0,0,0.017777777777777778,41.49333333333334,0)" xlink:href="#ad"/><use transform="matrix(0.017777777777777778,0,0,0.017777777777777778,49.777777777777786,0)" xlink:href="#ae"/><use transform="matrix(0.017777777777777778,0,0,0.017777777777777778,60.21333333333334,0)" xlink:href="#W"/></g><path d="M29-700c214 7 502-64 502 160 0 92-55 145-133 165v4c92 18 164 64 164 172C562-51 439 6 289 6 206 6 117-2 29 0v-29c27-13 54-21 82-24v-593c-28-6-57-15-82-25v-29zM201-54c30 8 49 8 95 8 99 0 170-51 170-148 0-132-128-141-265-136v276zm234-468c8-122-114-146-234-128v268h50c111 7 178-46 184-140" id="aE"/><g id="A"><use transform="matrix(0.017777777777777778,0,0,0.017777777777777778,0,0)" xlink:href="#aE"/><use transform="matrix(0.017777777777777778,0,0,0.017777777777777778,10.933333333333334,0)" xlink:href="#aD"/></g><path d="M107-509c-10-159 49-246 199-243 32 1 67 5 92 13-4 42-11 80-22 113h-25l-44-86c-116-8-111 98-110 212h115v50H197v401c35 4 67 12 96 24V0H41v-25c21-12 43-20 66-24v-401H31v-26c23-15 49-26 76-33" id="aF"/><path d="M139 8c-39 0-68-27-68-65 0-39 29-66 68-66 40 0 69 26 69 66 0 39-29 65-69 65" id="aG"/><g id="B"><use transform="matrix(0.017777777777777778,0,0,0.017777777777777778,0,0)" xlink:href="#au"/><use transform="matrix(0.017777777777777778,0,0,0.017777777777777778,9.351111111111111,0)" xlink:href="#au"/><use transform="matrix(0.017777777777777778,0,0,0.017777777777777778,18.702222222222222,0)" xlink:href="#aF"/><use transform="matrix(0.017777777777777778,0,0,0.017777777777777778,24.355555555555554,0)" xlink:href="#aG"/></g><g id="C"><use transform="matrix(0.017777777777777778,0,0,0.017777777777777778,0,0)" xlink:href="#ar"/><use transform="matrix(0.017777777777777778,0,0,0.017777777777777778,10.57777777777778,0)" xlink:href="#as"/><use transform="matrix(0.017777777777777778,0,0,0.017777777777777778,17.404444444444444,0)" xlink:href="#at"/><use transform="matrix(0.017777777777777778,0,0,0.017777777777777778,27.235555555555557,0)" xlink:href="#au"/><use transform="matrix(0.017777777777777778,0,0,0.017777777777777778,36.586666666666666,0)" xlink:href="#as"/><use transform="matrix(0.017777777777777778,0,0,0.017777777777777778,43.413333333333334,0)" xlink:href="#aa"/><use transform="matrix(0.017777777777777778,0,0,0.017777777777777778,52.39111111111112,0)" xlink:href="#ak"/><use transform="matrix(0.017777777777777778,0,0,0.017777777777777778,67.73333333333333,0)" xlink:href="#ak"/><use transform="matrix(0.017777777777777778,0,0,0.017777777777777778,83.07555555555555,0)" xlink:href="#aj"/><use transform="matrix(0.017777777777777778,0,0,0.017777777777777778,89.67111111111109,0)" xlink:href="#as"/><use transform="matrix(0.017777777777777778,0,0,0.017777777777777778,96.49777777777778,0)" xlink:href="#aa"/><use transform="matrix(0.017777777777777778,0,0,0.017777777777777778,105.47555555555554,0)" xlink:href="#ag"/><use transform="matrix(0.017777777777777778,0,0,0.017777777777777778,116.03555555555553,0)" xlink:href="#ac"/><use transform="matrix(0.017777777777777778,0,0,0.017777777777777778,123.73333333333332,0)" xlink:href="#aF"/><use transform="matrix(0.017777777777777778,0,0,0.017777777777777778,129.49333333333334,0)" xlink:href="#at"/><use transform="matrix(0.017777777777777778,0,0,0.017777777777777778,139.32444444444445,0)" xlink:href="#as"/><use transform="matrix(0.017777777777777778,0,0,0.017777777777777778,146.1511111111111,0)" xlink:href="#ak"/><use transform="matrix(0.017777777777777778,0,0,0.017777777777777778,161.49333333333334,0)" xlink:href="#aa"/><use transform="matrix(0.017777777777777778,0,0,0.017777777777777778,170.47111111111116,0)" xlink:href="#aj"/><use transform="matrix(0.017777777777777778,0,0,0.017777777777777778,177.0666666666667,0)" xlink:href="#Y"/><use transform="matrix(0.017777777777777778,0,0,0.017777777777777778,182.41777777777781,0)" xlink:href="#at"/><use transform="matrix(0.017777777777777778,0,0,0.017777777777777778,192.24888888888893,0)" xlink:href="#ag"/></g></defs></g></svg>