<svg xmlns="http://www.w3.org/2000/svg" xmlns:xlink="http://www.w3.org/1999/xlink" xmlns:lucid="lucid" width="800" height="240"><g transform="translate(-440 -300)" lucid:page-tab-id="0_0"><path d="M0 0h1870.4v1323.2H0z" fill="#fff"/><path d="M860 400h200v40H860z" stroke="#000" stroke-width="2" fill="#fff"/><use xlink:href="#a" transform="matrix(1,0,0,1,865,405) translate(26.34222222222222 22.203333333333333)"/><use xlink:href="#b" transform="matrix(1,0,0,1,865,405) translate(106.78666666666668 22.203333333333333)"/><path d="M460 480h600v40H460z" stroke="#000" stroke-width="2" fill="#fff"/><use xlink:href="#c" transform="matrix(1,0,0,1,465,485) translate(193.28444444444443 22.203333333333333)"/><use xlink:href="#d" transform="matrix(1,0,0,1,465,485) translate(234.22666666666666 22.203333333333333)"/><use xlink:href="#e" transform="matrix(1,0,0,1,465,485) translate(323.9866666666667 22.203333333333333)"/><path d="M460 400h360v40H460z" stroke="#000" stroke-width="2" fill="#fff"/><use xlink:href="#f" transform="matrix(1,0,0,1,465,405) translate(25.00888888888889 22.203333333333333)"/><use xlink:href="#d" transform="matrix(1,0,0,1,465,405) translate(118.52000000000001 22.203333333333333)"/><use xlink:href="#g" transform="matrix(1,0,0,1,465,405) translate(208.28 22.203333333333333)"/><use xlink:href="#h" transform="matrix(1,0,0,1,465,405) translate(285.32888888888886 22.203333333333333)"/><path d="M1120 400h100v40h-100z" stroke="#000" stroke-width="2" fill="#fff"/><use xlink:href="#i" transform="matrix(1,0,0,1,1125,405) translate(10.840000000000003 22.203333333333333)"/><path d="M460 320h120v40H460z" stroke="#000" stroke-width="2" fill="#fff"/><use xlink:href="#j" transform="matrix(1,0,0,1,465,325) translate(19.275555555555556 22.203333333333333)"/><path d="M860 320h200v40H860z" stroke="#000" stroke-width="2" fill="#fff"/><use xlink:href="#f" transform="matrix(1,0,0,1,865,325) translate(23.213333333333324 22.203333333333333)"/><use xlink:href="#k" transform="matrix(1,0,0,1,865,325) translate(116.72444444444444 22.203333333333333)"/><path d="M960 362v18.5" stroke="#000" stroke-width="2" fill="none"/><path d="M961 362.03h-2V361h2z"/><path d="M960 395.76l-4.64-14.26h9.28z" stroke="#000" stroke-width="2"/><path d="M1118 420h-38.5" stroke="#000" stroke-width="2" fill="none"/><path d="M1119 421h-1.03v-2h1.03z"/><path d="M1064.24 420l14.26-4.64v9.28z" stroke="#000" stroke-width="2"/><path d="M520 362v18.5" stroke="#000" stroke-width="2" fill="none"/><path d="M521 362.03h-2V361h2z"/><path d="M520 395.76l-4.64-14.26h9.28z" stroke="#000" stroke-width="2"/><path d="M582 340h258.5" stroke="#000" stroke-width="2" fill="none"/><path d="M582.03 341H581v-2h1.03z"/><path d="M855.76 340l-14.26 4.64v-9.28z" stroke="#000" stroke-width="2"/><use xlink:href="#l" transform="matrix(1,0,0,1,646.4888888888889,312.4622222222222) translate(0 18.453333333333333)"/><path d="M960 442v18.5" stroke="#000" stroke-width="2" fill="none"/><path d="M961 442.03h-2V441h2z"/><path d="M960 475.76l-4.64-14.26h9.28z" stroke="#000" stroke-width="2"/><path d="M640 442v18.5" stroke="#000" stroke-width="2" fill="none"/><path d="M641 442.03h-2V441h2z"/><path d="M640 475.76l-4.64-14.26h9.28z" stroke="#000" stroke-width="2"/><defs><path d="M111-646c-30-5-59-14-82-25v-29h274v29c-30 11-61 21-96 25v594h230l59-161h26c9 63 13 142 10 213H29v-29c27-13 51-19 82-24v-593" id="m"/><path d="M415-353c0 100-10 198-2 294l69 10v21c-39 18-83 39-139 38-14-31-13-67-15-111h-5C306-35 258 4 177 12 35 25-13-191 112-244c57-24 129-30 212-36 11-104 1-206-116-186-12 1-24 3-35 8l-47 120h-26c-12-37-24-81-27-125 50-30 110-49 188-49 108 0 154 55 154 159zM135-140c-1 55 30 91 82 90 61-1 91-43 108-87v-105c-102 2-189 4-190 102" id="n"/><path d="M344-512c130 0 167 79 167 210v253c27 5 49 13 66 24V0H362v-25c18-9 38-17 59-24v-237c-2-90-16-164-102-164-75 0-110 52-132 109v292c21 4 41 12 60 24V0H31v-25c17-9 39-17 66-24v-393l-66-8v-26c45-16 95-35 156-36 1 37-1 77 1 112 26-55 77-112 156-112" id="o"/><path d="M48-351c0-111 82-161 199-161 69 0 117 12 153 43 39-27 80-46 123-58 15 20 21 63 2 81H420c17 24 25 56 25 95 1 125-117 180-256 158-16 20-31 59 5 75C298-72 485-85 485 58c0 118-112 151-235 154-119 3-220-35-220-130C30-3 93-25 158-48c-26-12-51-34-51-70 0-34 38-67 59-81-68-16-118-74-118-152zm220 519c72-1 127-18 127-87 0-97-134-90-213-120-41 25-62 49-62 101 0 79 62 107 148 106zm-21-636c-80 0-109 40-109 117 0 74 34 117 109 118s108-49 108-118c0-74-31-117-108-117" id="p"/><path d="M242 12C22 26 86-252 83-442l-66-8v-26c49-16 94-35 156-36 1 99-7 198-6 296 0 91 13 166 103 166 70 0 103-59 123-117v-275l-65-8v-26c48-16 94-35 155-36v455l66 8v21c-45 17-84 39-145 38l-7-119h-4C373-42 325 7 242 12" id="q"/><path d="M307-50c44 0 103-15 125-36l14 16c-29 50-88 82-165 82C119 12 43-88 41-250c-2-160 74-260 226-262 146-2 212 109 182 262H137c3 118 52 197 170 200zm53-244c9-89-12-177-97-174-96 4-114 65-123 174h220" id="r"/><g id="a"><use transform="matrix(0.017777777777777778,0,0,0.017777777777777778,0,0)" xlink:href="#m"/><use transform="matrix(0.017777777777777778,0,0,0.017777777777777778,9.76,0)" xlink:href="#n"/><use transform="matrix(0.017777777777777778,0,0,0.017777777777777778,18.73777777777778,0)" xlink:href="#o"/><use transform="matrix(0.017777777777777778,0,0,0.017777777777777778,29.29777777777778,0)" xlink:href="#p"/><use transform="matrix(0.017777777777777778,0,0,0.017777777777777778,38.64888888888889,0)" xlink:href="#q"/><use transform="matrix(0.017777777777777778,0,0,0.017777777777777778,48.85333333333334,0)" xlink:href="#n"/><use transform="matrix(0.017777777777777778,0,0,0.017777777777777778,57.83111111111111,0)" xlink:href="#p"/><use transform="matrix(0.017777777777777778,0,0,0.017777777777777778,67.18222222222222,0)" xlink:href="#r"/></g><path d="M58-35c4-61 13-127 25-181h26l41 147c21 19 43 30 88 29 88-3 153-41 153-127 0-131-166-134-245-203-44-38-87-82-85-163 3-122 85-176 208-179 71-2 146 12 191 33-2 60-13 121-24 172h-26l-40-137c-25-11-66-16-104-16-67-1-119 41-113 108 11 132 164 141 245 209 44 37 88 78 86 156C480-49 385 9 242 12 172 14 94-8 58-35" id="s"/><path d="M31-476c47-18 94-35 156-36v106h4c30-56 78-109 163-106 11 25 25 48 23 87H244c-24 16-45 42-57 79v297c31 3 56 11 80 24V0H31v-25c22-12 41-17 66-24v-393l-66-8v-26" id="t"/><path d="M402-450c-21-5-39-13-55-24v-26h170v26c-15 11-36 18-57 24L283 0l-45 12L43-450c-19-7-37-15-53-24v-26h209v25c-18 10-35 19-57 25 45 121 95 237 136 363h2c31-131 82-241 122-363" id="u"/><path d="M197-49c26 7 46 13 66 24V0H41v-25c21-11 41-17 66-24v-393l-66-8v-26c46-16 95-35 156-36v463zm-45-563c-37 0-64-22-64-58s27-59 64-59 63 23 63 59-26 58-63 58" id="v"/><path d="M309-50c45 2 80-15 105-34l13 14c-23 46-82 83-153 82C113 10 44-90 41-250c-3-159 81-261 231-262 61 0 114 11 153 31-4 43-16 110-31 142h-27l-42-119c-13-8-21-10-46-10-112 0-142 83-142 217 0 116 56 197 172 201" id="w"/><g id="b"><use transform="matrix(0.017777777777777778,0,0,0.017777777777777778,0,0)" xlink:href="#s"/><use transform="matrix(0.017777777777777778,0,0,0.017777777777777778,9.528888888888888,0)" xlink:href="#r"/><use transform="matrix(0.017777777777777778,0,0,0.017777777777777778,18.47111111111111,0)" xlink:href="#t"/><use transform="matrix(0.017777777777777778,0,0,0.017777777777777778,25.6,0)" xlink:href="#u"/><use transform="matrix(0.017777777777777778,0,0,0.017777777777777778,34.61333333333334,0)" xlink:href="#v"/><use transform="matrix(0.017777777777777778,0,0,0.017777777777777778,39.964444444444446,0)" xlink:href="#w"/><use transform="matrix(0.017777777777777778,0,0,0.017777777777777778,47.92888888888889,0)" xlink:href="#r"/></g><path d="M152-350c0 202 106 334 319 305 15-2 24-8 29-13l47-124h26c7 39 14 105 11 153-41 30-106 41-175 41C172 12 53-111 53-350c0-229 114-357 335-362 82-2 138 9 190 34 0 59-7 120-15 172h-26l-52-144c-17-9-60-10-87-10-172 0-246 130-246 310" id="x"/><path d="M276 12C114 12 41-89 41-250s78-262 235-262c164 0 234 99 236 262 2 158-86 262-236 262zm-8-480c-100 0-133 95-131 218 2 121 37 218 156 218 94 0 125-98 123-218-2-118-34-218-148-218" id="y"/><g id="c"><use transform="matrix(0.017777777777777778,0,0,0.017777777777777778,0,0)" xlink:href="#x"/><use transform="matrix(0.017777777777777778,0,0,0.017777777777777778,11.022222222222222,0)" xlink:href="#y"/><use transform="matrix(0.017777777777777778,0,0,0.017777777777777778,20.85333333333333,0)" xlink:href="#t"/><use transform="matrix(0.017777777777777778,0,0,0.017777777777777778,27.68,0)" xlink:href="#r"/></g><path d="M358-53c34 7 63 11 92 24V0H169v-29c30-11 58-19 93-24v-595H109L56-505H31c-8-59-11-130-12-195h581c-1 65-4 135-11 195h-26l-52-143H358v595" id="z"/><path d="M205 105c22-29 32-63 45-105L42-450c-21-6-36-14-53-24v-26h209v25c-14 9-33 18-57 25 48 120 107 229 147 358h2c30-126 74-238 110-358-20-4-38-12-55-24v-26h171v26c-14 9-33 17-57 24-67 182-120 386-201 554-29 60-65 97-136 111-14-24-26-57-34-86l13-24h104" id="A"/><path d="M187 151c26 4 45 11 66 24v25H31v-25c23-11 45-19 66-24v-593l-66-8v-26c47-18 93-35 156-36 1 37-1 77 1 112 25-62 66-112 150-112 138 0 189 94 187 251-2 163-75 273-234 273-51 0-68-5-104-20v159zm242-412c0-102-23-189-123-189-73 0-104 52-119 116v280c27 16 54 25 99 22 110-7 143-111 143-229" id="B"/><path d="M218 12C131 12 94-38 95-132v-318H15v-26c25-16 52-27 80-34v-85c25-16 47-38 90-36v131h150v50H185v290c0 70 16 110 76 110 27 0 71-3 91-12l7 15c-33 31-79 59-141 59" id="C"/><g id="d"><use transform="matrix(0.017777777777777778,0,0,0.017777777777777778,0,0)" xlink:href="#z"/><use transform="matrix(0.017777777777777778,0,0,0.017777777777777778,11.004444444444445,0)" xlink:href="#A"/><use transform="matrix(0.017777777777777778,0,0,0.017777777777777778,19.982222222222223,0)" xlink:href="#B"/><use transform="matrix(0.017777777777777778,0,0,0.017777777777777778,30.044444444444444,0)" xlink:href="#r"/><use transform="matrix(0.017777777777777778,0,0,0.017777777777777778,38.986666666666665,0)" xlink:href="#s"/><use transform="matrix(0.017777777777777778,0,0,0.017777777777777778,48.51555555555555,0)" xlink:href="#w"/><use transform="matrix(0.017777777777777778,0,0,0.017777777777777778,56.8,0)" xlink:href="#t"/><use transform="matrix(0.017777777777777778,0,0,0.017777777777777778,63.626666666666665,0)" xlink:href="#v"/><use transform="matrix(0.017777777777777778,0,0,0.017777777777777778,68.97777777777777,0)" xlink:href="#B"/><use transform="matrix(0.017777777777777778,0,0,0.017777777777777778,78.84444444444443,0)" xlink:href="#C"/></g><path d="M596-450c-71 0-97 57-113 117v284c23 7 45 15 65 24V0H334v-25c16-10 36-19 59-24v-231c-2-88-4-170-91-170-68 0-97 53-115 107v294c22 7 41 13 59 24V0H31v-25c19-10 43-18 66-24v-393l-66-8v-26c47-18 93-35 156-36 1 37-1 77 1 113 20-58 72-113 150-113 87 0 127 45 138 123 22-67 72-123 158-123 124 0 145 87 145 212v251c23 4 45 12 66 24V0H630v-25c20-11 40-19 59-24v-249c0-83-9-153-93-152" id="D"/><path d="M31-716c44-18 106-35 166-36v703c22 5 44 13 66 24V0H41v-25c22-11 44-19 66-24v-633l-76-8v-26" id="E"/><g id="e"><use transform="matrix(0.017777777777777778,0,0,0.017777777777777778,0,0)" xlink:href="#x"/><use transform="matrix(0.017777777777777778,0,0,0.017777777777777778,11.022222222222222,0)" xlink:href="#y"/><use transform="matrix(0.017777777777777778,0,0,0.017777777777777778,20.85333333333333,0)" xlink:href="#D"/><use transform="matrix(0.017777777777777778,0,0,0.017777777777777778,36.19555555555556,0)" xlink:href="#B"/><use transform="matrix(0.017777777777777778,0,0,0.017777777777777778,46.25777777777778,0)" xlink:href="#v"/><use transform="matrix(0.017777777777777778,0,0,0.017777777777777778,51.60888888888889,0)" xlink:href="#E"/><use transform="matrix(0.017777777777777778,0,0,0.017777777777777778,56.96,0)" xlink:href="#r"/><use transform="matrix(0.017777777777777778,0,0,0.017777777777777778,65.90222222222222,0)" xlink:href="#t"/></g><path d="M532-28c-43 19-86 39-146 38l-9-109h-4C355-37 314 12 238 12 91 12 43-86 41-247c-2-159 81-261 231-262 50 0 68 3 104 16v-189l-76-8v-26c46-17 105-35 166-36v695l66 8v21zM137-247c2 101 24 197 121 197 72 0 104-52 118-115v-282c-27-15-55-18-99-18-103 0-142 104-140 218" id="F"/><g id="f"><use transform="matrix(0.017777777777777778,0,0,0.017777777777777778,0,0)" xlink:href="#s"/><use transform="matrix(0.017777777777777778,0,0,0.017777777777777778,9.528888888888888,0)" xlink:href="#C"/><use transform="matrix(0.017777777777777778,0,0,0.017777777777777778,16.124444444444443,0)" xlink:href="#n"/><use transform="matrix(0.017777777777777778,0,0,0.017777777777777778,25.10222222222222,0)" xlink:href="#o"/><use transform="matrix(0.017777777777777778,0,0,0.017777777777777778,35.66222222222222,0)" xlink:href="#F"/><use transform="matrix(0.017777777777777778,0,0,0.017777777777777778,45.528888888888886,0)" xlink:href="#n"/><use transform="matrix(0.017777777777777778,0,0,0.017777777777777778,54.50666666666666,0)" xlink:href="#E"/><use transform="matrix(0.017777777777777778,0,0,0.017777777777777778,59.85777777777777,0)" xlink:href="#y"/><use transform="matrix(0.017777777777777778,0,0,0.017777777777777778,69.68888888888888,0)" xlink:href="#o"/><use transform="matrix(0.017777777777777778,0,0,0.017777777777777778,80.24888888888889,0)" xlink:href="#r"/></g><g id="g"><use transform="matrix(0.017777777777777778,0,0,0.017777777777777778,0,0)" xlink:href="#x"/><use transform="matrix(0.017777777777777778,0,0,0.017777777777777778,11.022222222222222,0)" xlink:href="#y"/><use transform="matrix(0.017777777777777778,0,0,0.017777777777777778,20.85333333333333,0)" xlink:href="#D"/><use transform="matrix(0.017777777777777778,0,0,0.017777777777777778,36.19555555555556,0)" xlink:href="#B"/><use transform="matrix(0.017777777777777778,0,0,0.017777777777777778,46.25777777777778,0)" xlink:href="#v"/><use transform="matrix(0.017777777777777778,0,0,0.017777777777777778,51.60888888888889,0)" xlink:href="#E"/><use transform="matrix(0.017777777777777778,0,0,0.017777777777777778,56.96,0)" xlink:href="#r"/><use transform="matrix(0.017777777777777778,0,0,0.017777777777777778,65.90222222222222,0)" xlink:href="#t"/></g><path d="M145-243c1 202 77 332 179 433l-24 20C167 112 59-14 59-243c0-232 117-351 244-459l21 18C223-577 144-452 145-243" id="G"/><path d="M224-53c28 5 58 13 80 24V0H48v-29c26-12 53-20 80-24v-593c-28-6-55-15-80-25v-29h256v29c-23 10-53 20-80 25v593" id="H"/><path d="M40-702c130 101 244 220 244 449 0 231-106 364-241 463l-24-20C122 88 196-50 197-253c1-206-77-326-178-431" id="I"/><g id="h"><use transform="matrix(0.017777777777777778,0,0,0.017777777777777778,0,0)" xlink:href="#G"/><use transform="matrix(0.017777777777777778,0,0,0.017777777777777778,6.097777777777778,0)" xlink:href="#x"/><use transform="matrix(0.017777777777777778,0,0,0.017777777777777778,17.546666666666667,0)" xlink:href="#m"/><use transform="matrix(0.017777777777777778,0,0,0.017777777777777778,27.306666666666665,0)" xlink:href="#H"/><use transform="matrix(0.017777777777777778,0,0,0.017777777777777778,33.56444444444444,0)" xlink:href="#I"/></g><path d="M111-646c-28-6-57-15-82-25v-29h474c-2 56-4 110-11 162h-26l-41-110H207v265h163l39-74h25c4 66 4 133 0 202h-25l-39-76H207v279h230l49-120h25c9 53 14 110 11 172H29v-29c23-11 51-19 82-24v-593" id="J"/><g id="i"><use transform="matrix(0.017777777777777778,0,0,0.017777777777777778,0,0)" xlink:href="#J"/><use transform="matrix(0.017777777777777778,0,0,0.017777777777777778,10.346666666666666,0)" xlink:href="#F"/><use transform="matrix(0.017777777777777778,0,0,0.017777777777777778,20.213333333333328,0)" xlink:href="#v"/><use transform="matrix(0.017777777777777778,0,0,0.017777777777777778,25.56444444444444,0)" xlink:href="#C"/><use transform="matrix(0.017777777777777778,0,0,0.017777777777777778,32.16,0)" xlink:href="#y"/><use transform="matrix(0.017777777777777778,0,0,0.017777777777777778,41.99111111111111,0)" xlink:href="#t"/><use transform="matrix(0.017777777777777778,0,0,0.017777777777777778,48.81777777777778,0)" xlink:href="#r"/><use transform="matrix(0.017777777777777778,0,0,0.017777777777777778,57.76,0)" xlink:href="#o"/></g><path d="M29-700c214 7 502-64 502 160 0 92-55 145-133 165v4c92 18 164 64 164 172C562-51 439 6 289 6 206 6 117-2 29 0v-29c27-13 54-21 82-24v-593c-28-6-57-15-82-25v-29zM201-54c30 8 49 8 95 8 99 0 170-51 170-148 0-132-128-141-265-136v276zm234-468c8-122-114-146-234-128v268h50c111 7 178-46 184-140" id="K"/><path d="M423-171c9 54 15 109 12 171H43v-25l285-431H139L95-338H70c-10-50-11-106-11-162h376v26L149-44h195l54-127h25" id="L"/><g id="j"><use transform="matrix(0.017777777777777778,0,0,0.017777777777777778,0,0)" xlink:href="#K"/><use transform="matrix(0.017777777777777778,0,0,0.017777777777777778,10.933333333333334,0)" xlink:href="#r"/><use transform="matrix(0.017777777777777778,0,0,0.017777777777777778,19.875555555555554,0)" xlink:href="#o"/><use transform="matrix(0.017777777777777778,0,0,0.017777777777777778,30.43555555555556,0)" xlink:href="#q"/><use transform="matrix(0.017777777777777778,0,0,0.017777777777777778,40.64,0)" xlink:href="#C"/><use transform="matrix(0.017777777777777778,0,0,0.017777777777777778,47.217777777777776,0)" xlink:href="#L"/><use transform="matrix(0.017777777777777778,0,0,0.017777777777777778,55.68,0)" xlink:href="#r"/><use transform="matrix(0.017777777777777778,0,0,0.017777777777777778,64.62222222222222,0)" xlink:href="#t"/></g><g id="k"><use transform="matrix(0.017777777777777778,0,0,0.017777777777777778,0,0)" xlink:href="#s"/><use transform="matrix(0.017777777777777778,0,0,0.017777777777777778,9.528888888888888,0)" xlink:href="#r"/><use transform="matrix(0.017777777777777778,0,0,0.017777777777777778,18.47111111111111,0)" xlink:href="#t"/><use transform="matrix(0.017777777777777778,0,0,0.017777777777777778,25.6,0)" xlink:href="#u"/><use transform="matrix(0.017777777777777778,0,0,0.017777777777777778,34.29333333333334,0)" xlink:href="#r"/><use transform="matrix(0.017777777777777778,0,0,0.017777777777777778,43.23555555555556,0)" xlink:href="#t"/></g><path d="M121-646c-29-7-58-14-82-25v-29h254v29c-23 10-48 20-76 25v560c0 136-49 218-154 246l-11-15c54-43 70-118 69-220v-571" id="M"/><path d="M370 12C157 12 53-135 53-350s104-362 317-362 317 147 317 362S583 12 370 12zm-8-672c-160 0-202 145-202 310 0 168 55 310 219 310 156 0 201-148 201-310 0-168-54-310-218-310" id="N"/><path d="M564-631c-27-12-54-25-77-40v-29h216v29c-28 19-55 32-82 40V12h-57L201-539l-39-78h-3l9 78v475c27 7 53 19 77 35V0H29v-29c24-15 52-26 82-35v-573c-26-10-53-23-76-35v-28h169l315 475 46 86h4c-10-156-3-329-5-492" id="O"/><path d="M71-313h282v63H71v-63" id="P"/><path d="M504-49c24 6 48 11 66 24V0H354v-25c16-9 36-17 60-24v-234c-2-92-15-167-102-167-74 0-112 51-132 109v292c23 6 42 11 59 24V0H24v-25c21-11 43-19 66-24v-633l-76-8v-26c46-17 105-35 166-36 1 117-1 237 1 353 26-56 76-113 156-113 130 0 167 79 167 210v253" id="Q"/><g id="l"><use transform="matrix(0.017777777777777778,0,0,0.017777777777777778,0,0)" xlink:href="#M"/><use transform="matrix(0.017777777777777778,0,0,0.017777777777777778,6.062222222222222,0)" xlink:href="#s"/><use transform="matrix(0.017777777777777778,0,0,0.017777777777777778,15.591111111111111,0)" xlink:href="#N"/><use transform="matrix(0.017777777777777778,0,0,0.017777777777777778,28.746666666666666,0)" xlink:href="#O"/><use transform="matrix(0.017777777777777778,0,0,0.017777777777777778,41.76,0)" xlink:href="#P"/><use transform="matrix(0.017777777777777778,0,0,0.017777777777777778,49.315555555555555,0)" xlink:href="#O"/><use transform="matrix(0.017777777777777778,0,0,0.017777777777777778,62.32888888888889,0)" xlink:href="#n"/><use transform="matrix(0.017777777777777778,0,0,0.017777777777777778,71.30666666666667,0)" xlink:href="#w"/><use transform="matrix(0.017777777777777778,0,0,0.017777777777777778,79.5911111111111,0)" xlink:href="#Q"/><use transform="matrix(0.017777777777777778,0,0,0.017777777777777778,90.02666666666667,0)" xlink:href="#t"/><use transform="matrix(0.017777777777777778,0,0,0.017777777777777778,96.85333333333334,0)" xlink:href="#v"/><use transform="matrix(0.017777777777777778,0,0,0.017777777777777778,102.20444444444445,0)" xlink:href="#w"/><use transform="matrix(0.017777777777777778,0,0,0.017777777777777778,110.4888888888889,0)" xlink:href="#Q"/><use transform="matrix(0.017777777777777778,0,0,0.017777777777777778,120.92444444444445,0)" xlink:href="#C"/><use transform="matrix(0.017777777777777778,0,0,0.017777777777777778,127.52,0)" xlink:href="#r"/><use transform="matrix(0.017777777777777778,0,0,0.017777777777777778,136.4622222222222,0)" xlink:href="#o"/></g></defs></g></svg>